<svg width="200" height="51" viewBox="0 0 200 51" fill="none" xmlns="http://www.w3.org/2000/svg">
<path d="M1.54395 25.2288C1.54395 11.8947 12.3534 1.08521 25.6876 1.08521H173.862C187.196 1.08521 198.005 11.8947 198.005 25.2288V25.2288C198.005 38.563 187.196 49.3724 173.862 49.3724H25.6876C12.3534 49.3724 1.54395 38.563 1.54395 25.2288V25.2288Z" fill="#090B1A"/>
<path d="M25.6876 1.58521H173.862C186.92 1.58521 197.505 12.1708 197.505 25.2288C197.505 38.2868 186.92 48.8724 173.862 48.8724H25.6876C12.6295 48.8724 2.04395 38.2868 2.04395 25.2288C2.04395 12.1708 12.6296 1.58521 25.6876 1.58521Z" fill="white" fill-opacity="0.15" stroke="#A5F9F9"/>
<path fill-rule="evenodd" clip-rule="evenodd" d="M0 25.5C0 25.4043 0.000527139 25.3087 0.00157867 25.2133H5.00196C5.00066 25.3087 5 25.4043 5 25.5C5 36.8218 14.1782 46 25.5 46H100.572V51H25.5C11.4168 51 0 39.5833 0 25.5ZM199.325 24.0672C198.582 10.6505 187.467 0 173.864 0H100.572V5H173.864C184.705 5 193.58 13.4138 194.315 24.0672H199.325Z" fill="url(#paint0_linear)"/>
<defs>
<linearGradient id="paint0_linear" x1="99.6625" y1="0" x2="99.6625" y2="51" gradientUnits="userSpaceOnUse">
<stop stop-color="#A5F9F9"/>
<stop offset="1" stop-color="white"/>
</linearGradient>
</defs>
</svg>
