<svg width="1920" height="342" viewBox="0 0 1920 342" fill="none" xmlns="http://www.w3.org/2000/svg">
<rect width="1920" height="342" fill="#222247"/>
<mask id="mask0" mask-type="alpha" maskUnits="userSpaceOnUse" x="0" y="0" width="1920" height="342">
<rect width="1920" height="342" fill="#222247"/>
</mask>
<g mask="url(#mask0)">
<g style="mix-blend-mode:color-dodge" opacity="0.46">
<g style="mix-blend-mode:color-dodge" opacity="0.46">
<path d="M1093.33 325.36C1092.85 325.36 1092.38 325.505 1091.98 325.776C1091.57 326.048 1091.26 326.433 1091.07 326.885C1090.89 327.336 1090.84 327.833 1090.94 328.312C1091.03 328.791 1091.26 329.231 1091.6 329.576C1091.95 329.922 1092.38 330.157 1092.86 330.252C1093.33 330.348 1093.82 330.299 1094.27 330.112C1094.72 329.925 1095.1 329.608 1095.37 329.202C1095.63 328.796 1095.78 328.318 1095.78 327.83C1095.78 327.505 1095.72 327.183 1095.59 326.883C1095.47 326.583 1095.29 326.31 1095.06 326.08C1094.84 325.851 1094.57 325.669 1094.27 325.545C1093.97 325.422 1093.65 325.359 1093.33 325.36V325.36Z" fill="#9AD8D0"/>
</g>
</g>
<g style="mix-blend-mode:color-dodge">
<path d="M125.356 194.75C124.87 194.748 124.395 194.892 123.99 195.163C123.585 195.434 123.269 195.821 123.082 196.274C122.894 196.727 122.844 197.226 122.938 197.708C123.031 198.189 123.264 198.632 123.607 198.98C123.95 199.328 124.387 199.565 124.864 199.662C125.34 199.758 125.834 199.71 126.283 199.522C126.732 199.335 127.116 199.017 127.386 198.609C127.657 198.201 127.801 197.721 127.801 197.23C127.801 196.574 127.544 195.945 127.085 195.48C126.627 195.015 126.005 194.753 125.356 194.75Z" fill="#9AD8D0"/>
</g>
<g style="mix-blend-mode:color-dodge" opacity="0.81">
<g style="mix-blend-mode:color-dodge" opacity="0.81">
<path d="M622.656 282.4C622.17 282.398 621.695 282.542 621.29 282.813C620.885 283.084 620.569 283.471 620.381 283.924C620.194 284.377 620.144 284.876 620.238 285.358C620.331 285.839 620.564 286.282 620.907 286.63C621.25 286.978 621.687 287.215 622.164 287.312C622.64 287.408 623.134 287.359 623.583 287.172C624.032 286.985 624.416 286.667 624.686 286.259C624.956 285.851 625.101 285.371 625.101 284.88C625.101 284.224 624.843 283.595 624.385 283.13C623.927 282.665 623.305 282.403 622.656 282.4V282.4Z" fill="#9AD8D0"/>
</g>
</g>
<g style="mix-blend-mode:color-dodge">
<path d="M1178.94 134.19C1178.45 134.188 1177.98 134.332 1177.57 134.604C1177.17 134.875 1176.85 135.263 1176.67 135.716C1176.48 136.17 1176.43 136.669 1176.52 137.151C1176.62 137.633 1176.85 138.076 1177.2 138.424C1177.54 138.771 1177.98 139.007 1178.45 139.103C1178.93 139.198 1179.43 139.148 1179.88 138.959C1180.32 138.77 1180.71 138.451 1180.98 138.042C1181.25 137.632 1181.39 137.151 1181.39 136.66C1181.38 136.006 1181.12 135.379 1180.67 134.916C1180.21 134.454 1179.59 134.193 1178.94 134.19V134.19Z" fill="#9AD8D0"/>
</g>
<g style="mix-blend-mode:color-dodge" opacity="0.08">
<g style="mix-blend-mode:color-dodge" opacity="0.08">
<path d="M1561.95 293.79C1561.47 293.788 1560.99 293.932 1560.59 294.203C1560.18 294.474 1559.86 294.861 1559.68 295.314C1559.49 295.767 1559.44 296.266 1559.53 296.748C1559.63 297.229 1559.86 297.672 1560.2 298.02C1560.55 298.368 1560.98 298.605 1561.46 298.702C1561.94 298.798 1562.43 298.75 1562.88 298.562C1563.33 298.375 1563.71 298.057 1563.98 297.649C1564.25 297.241 1564.4 296.761 1564.4 296.27C1564.4 295.614 1564.14 294.985 1563.68 294.52C1563.22 294.055 1562.6 293.793 1561.95 293.79V293.79Z" fill="#9AD8D0"/>
</g>
</g>
<g style="mix-blend-mode:color-dodge" opacity="0.55">
<g style="mix-blend-mode:color-dodge" opacity="0.55">
<path d="M1647.26 169.04C1646.78 169.038 1646.3 169.182 1645.9 169.454C1645.49 169.726 1645.17 170.113 1644.99 170.566C1644.8 171.02 1644.75 171.519 1644.85 172.001C1644.94 172.483 1645.17 172.926 1645.52 173.274C1645.86 173.621 1646.3 173.858 1646.78 173.953C1647.25 174.048 1647.75 173.998 1648.2 173.809C1648.65 173.62 1649.03 173.301 1649.3 172.892C1649.57 172.482 1649.71 172.001 1649.71 171.51C1649.71 170.855 1649.45 170.227 1648.99 169.764C1648.53 169.3 1647.91 169.04 1647.26 169.04V169.04Z" fill="#9AD8D0"/>
</g>
</g>
<g style="mix-blend-mode:color-dodge">
<path d="M1032.98 30.23C1032.5 30.228 1032.02 30.3718 1031.61 30.6431C1031.21 30.9144 1030.89 31.301 1030.71 31.754C1030.52 32.207 1030.47 32.7059 1030.56 33.1877C1030.66 33.6694 1030.89 34.1122 1031.23 34.4601C1031.58 34.8079 1032.01 35.0451 1032.49 35.1416C1032.97 35.2381 1033.46 35.1896 1033.91 35.0022C1034.36 34.8148 1034.74 34.4969 1035.01 34.0889C1035.28 33.6808 1035.43 33.2009 1035.43 32.71C1035.43 32.054 1035.17 31.4247 1034.71 30.9599C1034.25 30.4951 1033.63 30.2326 1032.98 30.23Z" fill="#9AD8D0"/>
</g>
<g style="mix-blend-mode:color-dodge">
<path d="M720.655 4.94C722.005 4.94 723.099 3.83414 723.099 2.47C723.099 1.10586 722.005 0 720.655 0C719.305 0 718.21 1.10586 718.21 2.47C718.21 3.83414 719.305 4.94 720.655 4.94Z" fill="#9AD8D0"/>
</g>
<g style="mix-blend-mode:color-dodge" opacity="0.94">
<g style="mix-blend-mode:color-dodge" opacity="0.94">
<path d="M1202.9 204.43C1202.42 204.43 1201.95 204.575 1201.54 204.846C1201.14 205.118 1200.83 205.503 1200.64 205.955C1200.46 206.406 1200.41 206.903 1200.5 207.382C1200.6 207.861 1200.83 208.301 1201.17 208.646C1201.52 208.992 1201.95 209.227 1202.42 209.322C1202.9 209.418 1203.39 209.369 1203.84 209.182C1204.28 208.995 1204.67 208.678 1204.93 208.272C1205.2 207.866 1205.35 207.388 1205.35 206.9C1205.35 206.245 1205.09 205.617 1204.63 205.153C1204.17 204.69 1203.55 204.43 1202.9 204.43Z" fill="#9AD8D0"/>
</g>
</g>
<g style="mix-blend-mode:color-dodge" opacity="0.67">
<g style="mix-blend-mode:color-dodge" opacity="0.67">
<path d="M464.078 156.68C463.592 156.678 463.116 156.822 462.711 157.094C462.305 157.365 461.989 157.753 461.802 158.206C461.615 158.66 461.566 159.159 461.66 159.641C461.755 160.123 461.989 160.566 462.332 160.914C462.676 161.261 463.115 161.497 463.592 161.593C464.069 161.688 464.563 161.638 465.012 161.449C465.461 161.26 465.844 160.941 466.113 160.532C466.382 160.122 466.524 159.641 466.522 159.15C466.522 158.826 466.459 158.504 466.336 158.205C466.213 157.905 466.033 157.633 465.806 157.403C465.579 157.174 465.31 156.992 465.013 156.868C464.717 156.744 464.399 156.68 464.078 156.68Z" fill="#9AD8D0"/>
</g>
</g>
<g style="mix-blend-mode:color-dodge" opacity="0.92">
<g style="mix-blend-mode:color-dodge" opacity="0.92">
<path d="M356.073 196.94C355.586 196.938 355.11 197.082 354.705 197.354C354.3 197.625 353.984 198.013 353.797 198.466C353.61 198.92 353.561 199.419 353.655 199.901C353.749 200.383 353.983 200.826 354.327 201.174C354.671 201.521 355.109 201.757 355.586 201.853C356.063 201.948 356.558 201.898 357.007 201.709C357.455 201.52 357.839 201.201 358.108 200.792C358.376 200.382 358.519 199.901 358.517 199.41C358.514 198.756 358.256 198.129 357.798 197.666C357.34 197.204 356.72 196.943 356.073 196.94Z" fill="#9AD8D0"/>
</g>
</g>
<g style="mix-blend-mode:color-dodge" opacity="0.6">
<g style="mix-blend-mode:color-dodge" opacity="0.6">
<path d="M543.56 151.56C543.074 151.558 542.598 151.702 542.193 151.973C541.788 152.244 541.472 152.631 541.285 153.084C541.098 153.537 541.048 154.036 541.141 154.518C541.235 154.999 541.468 155.442 541.811 155.79C542.154 156.138 542.591 156.375 543.067 156.472C543.544 156.568 544.038 156.52 544.487 156.332C544.936 156.145 545.32 155.827 545.59 155.419C545.86 155.011 546.004 154.531 546.004 154.04C546.004 153.384 545.747 152.755 545.289 152.29C544.831 151.825 544.209 151.563 543.56 151.56Z" fill="#9AD8D0"/>
</g>
</g>
<g style="mix-blend-mode:color-dodge">
<path d="M1169.39 103.02C1168.91 103.022 1168.44 103.169 1168.04 103.441C1167.63 103.714 1167.32 104.1 1167.14 104.552C1166.96 105.003 1166.91 105.5 1167 105.978C1167.1 106.456 1167.33 106.896 1167.68 107.24C1168.02 107.585 1168.45 107.819 1168.93 107.913C1169.4 108.008 1169.89 107.958 1170.34 107.771C1170.78 107.584 1171.17 107.267 1171.43 106.861C1171.7 106.455 1171.85 105.978 1171.85 105.49C1171.85 105.165 1171.78 104.843 1171.66 104.542C1171.53 104.242 1171.35 103.969 1171.13 103.74C1170.9 103.51 1170.63 103.329 1170.33 103.205C1170.03 103.082 1169.71 103.019 1169.39 103.02V103.02Z" fill="#9AD8D0"/>
</g>
<g style="mix-blend-mode:color-dodge" opacity="0.07">
<g style="mix-blend-mode:color-dodge" opacity="0.07">
<path d="M1514.17 299.02C1513.69 299.02 1513.21 299.165 1512.81 299.436C1512.41 299.708 1512.1 300.093 1511.91 300.545C1511.73 300.996 1511.68 301.493 1511.77 301.972C1511.87 302.451 1512.1 302.891 1512.44 303.237C1512.78 303.582 1513.22 303.817 1513.69 303.913C1514.17 304.008 1514.66 303.959 1515.1 303.772C1515.55 303.585 1515.93 303.268 1516.2 302.862C1516.47 302.456 1516.61 301.979 1516.61 301.49C1516.61 300.835 1516.36 300.207 1515.9 299.743C1515.44 299.28 1514.82 299.02 1514.17 299.02V299.02Z" fill="#9AD8D0"/>
</g>
</g>
<g style="mix-blend-mode:color-dodge">
<path d="M886.428 244.29C885.942 244.288 885.466 244.432 885.061 244.704C884.656 244.976 884.34 245.363 884.153 245.816C883.966 246.27 883.916 246.769 884.011 247.251C884.105 247.733 884.339 248.176 884.683 248.524C885.027 248.871 885.465 249.107 885.942 249.203C886.419 249.298 886.913 249.248 887.362 249.059C887.811 248.87 888.194 248.551 888.463 248.142C888.732 247.732 888.875 247.251 888.873 246.76C888.874 246.435 888.812 246.114 888.69 245.813C888.567 245.513 888.387 245.24 888.16 245.011C887.933 244.781 887.663 244.599 887.365 244.475C887.068 244.352 886.75 244.289 886.428 244.29Z" fill="#9AD8D0"/>
</g>
<g style="mix-blend-mode:color-dodge">
<path d="M191.833 96.8599C191.35 96.8619 190.879 97.0084 190.478 97.281C190.077 97.5536 189.766 97.9401 189.582 98.3916C189.399 98.8431 189.352 99.3394 189.447 99.8179C189.542 100.296 189.776 100.736 190.118 101.08C190.461 101.424 190.896 101.659 191.37 101.753C191.844 101.848 192.335 101.798 192.781 101.611C193.227 101.424 193.608 101.107 193.877 100.701C194.145 100.295 194.288 99.818 194.288 99.3299C194.288 99.0047 194.224 98.6827 194.101 98.3823C193.977 98.082 193.796 97.8093 193.568 97.5798C193.34 97.3503 193.07 97.1686 192.772 97.045C192.474 96.9215 192.155 96.8586 191.833 96.8599V96.8599Z" fill="#9AD8D0"/>
</g>
<g style="mix-blend-mode:color-dodge" opacity="0.26">
<g style="mix-blend-mode:color-dodge" opacity="0.26">
<path d="M1574.48 194.56C1574 194.558 1573.52 194.702 1573.11 194.973C1572.71 195.244 1572.39 195.631 1572.21 196.084C1572.02 196.537 1571.97 197.036 1572.06 197.518C1572.16 197.999 1572.39 198.442 1572.73 198.79C1573.07 199.138 1573.51 199.375 1573.99 199.472C1574.46 199.568 1574.96 199.52 1575.41 199.332C1575.86 199.145 1576.24 198.827 1576.51 198.419C1576.78 198.011 1576.93 197.531 1576.93 197.04C1576.93 196.715 1576.86 196.393 1576.74 196.092C1576.62 195.791 1576.44 195.517 1576.21 195.287C1575.99 195.057 1575.72 194.874 1575.42 194.749C1575.12 194.624 1574.8 194.56 1574.48 194.56V194.56Z" fill="#9AD8D0"/>
</g>
</g>
<g style="mix-blend-mode:color-dodge" opacity="0.78">
<g style="mix-blend-mode:color-dodge" opacity="0.78">
<path d="M1651.02 122.56C1650.54 122.56 1650.06 122.706 1649.66 122.978C1649.26 123.251 1648.94 123.638 1648.76 124.091C1648.57 124.544 1648.52 125.043 1648.62 125.524C1648.71 126.005 1648.94 126.447 1649.29 126.794C1649.63 127.141 1650.07 127.377 1650.54 127.472C1651.02 127.568 1651.51 127.519 1651.96 127.331C1652.41 127.144 1652.79 126.826 1653.06 126.418C1653.33 126.01 1653.48 125.531 1653.48 125.04C1653.48 124.714 1653.41 124.392 1653.29 124.091C1653.17 123.79 1652.99 123.517 1652.76 123.286C1652.53 123.056 1652.26 122.873 1651.96 122.749C1651.67 122.624 1651.35 122.56 1651.02 122.56V122.56Z" fill="#9AD8D0"/>
</g>
</g>
<g style="mix-blend-mode:color-dodge" opacity="0.62">
<g style="mix-blend-mode:color-dodge" opacity="0.62">
<path d="M1539.51 121.96C1539.02 121.958 1538.54 122.102 1538.14 122.373C1537.73 122.644 1537.42 123.031 1537.23 123.484C1537.04 123.937 1536.99 124.436 1537.09 124.918C1537.18 125.399 1537.41 125.842 1537.76 126.19C1538.1 126.538 1538.54 126.775 1539.01 126.872C1539.49 126.968 1539.98 126.92 1540.43 126.732C1540.88 126.545 1541.27 126.227 1541.54 125.819C1541.81 125.411 1541.95 124.931 1541.95 124.44C1541.95 123.784 1541.69 123.155 1541.23 122.69C1540.78 122.225 1540.15 121.963 1539.51 121.96V121.96Z" fill="#9AD8D0"/>
</g>
</g>
<g style="mix-blend-mode:color-dodge" opacity="0.58">
<g style="mix-blend-mode:color-dodge" opacity="0.58">
<path d="M1589.25 135.68C1588.76 135.68 1588.29 135.825 1587.89 136.096C1587.49 136.368 1587.17 136.753 1586.99 137.205C1586.8 137.656 1586.76 138.153 1586.85 138.632C1586.94 139.111 1587.18 139.551 1587.52 139.896C1587.86 140.242 1588.3 140.477 1588.77 140.572C1589.24 140.668 1589.74 140.619 1590.18 140.432C1590.63 140.245 1591.01 139.928 1591.28 139.522C1591.55 139.116 1591.69 138.638 1591.69 138.15C1591.69 137.826 1591.63 137.504 1591.51 137.205C1591.38 136.905 1591.2 136.633 1590.98 136.403C1590.75 136.174 1590.48 135.992 1590.18 135.868C1589.89 135.744 1589.57 135.68 1589.25 135.68Z" fill="#9AD8D0"/>
</g>
</g>
<g style="mix-blend-mode:color-dodge" opacity="0.27">
<g style="mix-blend-mode:color-dodge" opacity="0.27">
<path d="M1651.95 279.28C1651.47 279.28 1650.99 279.426 1650.59 279.699C1650.19 279.972 1649.87 280.36 1649.69 280.813C1649.5 281.267 1649.45 281.766 1649.55 282.248C1649.64 282.729 1649.88 283.171 1650.22 283.517C1650.57 283.864 1651 284.099 1651.48 284.194C1651.96 284.288 1652.45 284.238 1652.9 284.048C1653.35 283.859 1653.73 283.54 1654 283.131C1654.27 282.721 1654.41 282.241 1654.41 281.75C1654.41 281.094 1654.15 280.466 1653.69 280.003C1653.23 279.54 1652.6 279.28 1651.95 279.28Z" fill="#9AD8D0"/>
</g>
</g>
<g style="mix-blend-mode:color-dodge">
<path d="M1539.53 70.1499C1539.05 70.1499 1538.58 70.2948 1538.18 70.5662C1537.77 70.8376 1537.46 71.2234 1537.28 71.6747C1537.09 72.126 1537.04 72.6227 1537.14 73.1018C1537.23 73.5809 1537.46 74.021 1537.81 74.3665C1538.15 74.7119 1538.58 74.9472 1539.06 75.0425C1539.53 75.1378 1540.02 75.0889 1540.47 74.9019C1540.92 74.715 1541.3 74.3984 1541.57 73.9922C1541.84 73.586 1541.98 73.1084 1541.98 72.6199C1541.98 72.2952 1541.92 71.9734 1541.8 71.6731C1541.67 71.3729 1541.49 71.1001 1541.27 70.8704C1541.04 70.6408 1540.77 70.4589 1540.47 70.3353C1540.17 70.2116 1539.86 70.1486 1539.53 70.1499V70.1499Z" fill="#9AD8D0"/>
</g>
<g style="mix-blend-mode:color-dodge" opacity="0.12">
<g style="mix-blend-mode:color-dodge" opacity="0.12">
<path d="M1495.58 232.79C1495.1 232.788 1494.62 232.932 1494.22 233.204C1493.81 233.476 1493.49 233.863 1493.31 234.316C1493.12 234.77 1493.07 235.269 1493.17 235.751C1493.26 236.233 1493.49 236.676 1493.84 237.024C1494.18 237.371 1494.62 237.607 1495.1 237.703C1495.57 237.798 1496.07 237.748 1496.52 237.559C1496.97 237.37 1497.35 237.051 1497.62 236.642C1497.89 236.232 1498.03 235.751 1498.03 235.26C1498.02 234.606 1497.77 233.979 1497.31 233.516C1496.85 233.054 1496.23 232.793 1495.58 232.79Z" fill="#9AD8D0"/>
</g>
</g>
<g style="mix-blend-mode:color-dodge" opacity="0.25">
<g style="mix-blend-mode:color-dodge" opacity="0.25">
<path d="M1479.2 182.73C1478.72 182.73 1478.25 182.875 1477.85 183.146C1477.44 183.418 1477.13 183.803 1476.95 184.255C1476.76 184.706 1476.71 185.203 1476.81 185.682C1476.9 186.161 1477.13 186.601 1477.47 186.947C1477.82 187.292 1478.25 187.527 1478.73 187.622C1479.2 187.718 1479.69 187.669 1480.14 187.482C1480.59 187.295 1480.97 186.978 1481.24 186.572C1481.5 186.166 1481.65 185.689 1481.65 185.2C1481.65 184.545 1481.39 183.917 1480.93 183.453C1480.47 182.99 1479.85 182.73 1479.2 182.73Z" fill="#9AD8D0"/>
</g>
</g>
<g style="mix-blend-mode:color-dodge" opacity="0.64">
<g style="mix-blend-mode:color-dodge" opacity="0.64">
<path d="M1359.9 152.79C1359.41 152.788 1358.93 152.932 1358.53 153.203C1358.13 153.474 1357.81 153.861 1357.62 154.314C1357.43 154.767 1357.38 155.266 1357.48 155.748C1357.57 156.229 1357.8 156.672 1358.15 157.02C1358.49 157.368 1358.93 157.605 1359.4 157.702C1359.88 157.798 1360.37 157.75 1360.82 157.562C1361.27 157.375 1361.66 157.057 1361.93 156.649C1362.2 156.241 1362.34 155.761 1362.34 155.27C1362.34 154.614 1362.08 153.985 1361.63 153.52C1361.17 153.055 1360.55 152.793 1359.9 152.79V152.79Z" fill="#9AD8D0"/>
</g>
</g>
<g style="mix-blend-mode:color-dodge">
<path d="M831.559 25.8301C831.073 25.8281 830.597 25.9721 830.192 26.2439C829.787 26.5156 829.471 26.9028 829.284 27.3564C829.097 27.81 829.047 28.3094 829.142 28.7914C829.236 29.2734 829.47 29.7163 829.814 30.0637C830.158 30.4111 830.596 30.6475 831.073 30.7429C831.55 30.8383 832.044 30.7883 832.493 30.5994C832.942 30.4104 833.326 30.091 833.594 29.6817C833.863 29.2723 834.006 28.7914 834.004 28.3001C834.001 27.6458 833.743 27.0191 833.285 26.5564C832.827 26.0938 832.207 25.8327 831.559 25.8301V25.8301Z" fill="#9AD8D0"/>
</g>
<g style="mix-blend-mode:color-dodge" opacity="0.71">
<g style="mix-blend-mode:color-dodge" opacity="0.71">
<path d="M499.588 100.72C499.102 100.72 498.627 100.866 498.223 101.139C497.819 101.412 497.505 101.8 497.319 102.253C497.134 102.707 497.086 103.206 497.181 103.688C497.277 104.169 497.511 104.611 497.856 104.957C498.2 105.304 498.638 105.539 499.115 105.634C499.592 105.728 500.085 105.678 500.534 105.488C500.982 105.299 501.365 104.98 501.633 104.571C501.902 104.161 502.044 103.681 502.042 103.19C502.042 102.865 501.979 102.543 501.855 102.242C501.732 101.942 501.551 101.669 501.323 101.44C501.095 101.21 500.824 101.029 500.526 100.905C500.228 100.782 499.909 100.719 499.588 100.72V100.72Z" fill="#9AD8D0"/>
</g>
</g>
<g style="mix-blend-mode:color-dodge" opacity="0.97">
<g style="mix-blend-mode:color-dodge" opacity="0.97">
<path d="M331.964 231.49C331.478 231.488 331.002 231.632 330.598 231.903C330.193 232.174 329.876 232.561 329.689 233.014C329.502 233.467 329.452 233.966 329.545 234.448C329.639 234.929 329.872 235.372 330.215 235.72C330.558 236.068 330.995 236.305 331.471 236.402C331.948 236.498 332.442 236.45 332.891 236.262C333.34 236.075 333.724 235.757 333.994 235.349C334.264 234.941 334.408 234.461 334.408 233.97C334.41 233.645 334.347 233.323 334.225 233.022C334.103 232.721 333.923 232.447 333.696 232.217C333.469 231.987 333.199 231.804 332.902 231.679C332.604 231.554 332.286 231.49 331.964 231.49Z" fill="#9AD8D0"/>
</g>
</g>
<g style="mix-blend-mode:color-dodge" opacity="0.77">
<g style="mix-blend-mode:color-dodge" opacity="0.77">
<path d="M225.087 284.49C224.602 284.488 224.126 284.632 223.721 284.903C223.316 285.174 223 285.561 222.813 286.014C222.625 286.467 222.575 286.966 222.669 287.448C222.763 287.929 222.996 288.372 223.338 288.72C223.681 289.068 224.119 289.305 224.595 289.402C225.071 289.498 225.565 289.45 226.014 289.262C226.464 289.075 226.847 288.757 227.118 288.349C227.388 287.941 227.532 287.461 227.532 286.97C227.532 286.314 227.275 285.685 226.817 285.22C226.358 284.755 225.737 284.493 225.087 284.49Z" fill="#9AD8D0"/>
</g>
</g>
<g style="mix-blend-mode:color-dodge">
<path d="M157.452 218.09C156.966 218.09 156.491 218.236 156.087 218.509C155.683 218.781 155.369 219.169 155.183 219.623C154.998 220.077 154.95 220.576 155.045 221.057C155.141 221.539 155.376 221.981 155.72 222.327C156.064 222.673 156.502 222.909 156.979 223.003C157.456 223.098 157.95 223.047 158.398 222.858C158.846 222.669 159.229 222.35 159.497 221.94C159.766 221.531 159.908 221.051 159.906 220.56C159.906 220.235 159.843 219.913 159.719 219.612C159.596 219.312 159.415 219.039 159.187 218.81C158.959 218.58 158.688 218.399 158.39 218.275C158.093 218.151 157.774 218.089 157.452 218.09Z" fill="#9AD8D0"/>
</g>
<g style="mix-blend-mode:color-dodge" opacity="0.5">
<g style="mix-blend-mode:color-dodge" opacity="0.5">
<path d="M1151.35 327.14C1150.86 327.14 1150.39 327.286 1149.98 327.559C1149.58 327.832 1149.27 328.219 1149.08 328.673C1148.89 329.127 1148.85 329.626 1148.94 330.107C1149.04 330.589 1149.27 331.031 1149.62 331.377C1149.96 331.724 1150.4 331.959 1150.88 332.053C1151.35 332.148 1151.85 332.097 1152.3 331.908C1152.74 331.719 1153.13 331.4 1153.39 330.99C1153.66 330.581 1153.81 330.101 1153.8 329.61C1153.8 328.954 1153.54 328.326 1153.08 327.863C1152.62 327.4 1152 327.14 1151.35 327.14Z" fill="#9AD8D0"/>
</g>
</g>
<g style="mix-blend-mode:color-dodge" opacity="0.55">
<g style="mix-blend-mode:color-dodge" opacity="0.55">
<path d="M1106.42 305.7C1105.93 305.698 1105.46 305.842 1105.05 306.113C1104.65 306.384 1104.33 306.771 1104.14 307.224C1103.95 307.677 1103.9 308.176 1104 308.658C1104.09 309.139 1104.32 309.582 1104.67 309.93C1105.01 310.278 1105.45 310.515 1105.92 310.612C1106.4 310.708 1106.89 310.66 1107.34 310.472C1107.79 310.285 1108.18 309.967 1108.45 309.559C1108.72 309.151 1108.86 308.671 1108.86 308.18C1108.86 307.524 1108.6 306.895 1108.15 306.43C1107.69 305.965 1107.07 305.703 1106.42 305.7V305.7Z" fill="#9AD8D0"/>
</g>
</g>
<g style="mix-blend-mode:color-dodge" opacity="0.75">
<g style="mix-blend-mode:color-dodge" opacity="0.75">
<path d="M132.482 295.5C131.999 295.502 131.526 295.649 131.126 295.922C130.725 296.195 130.413 296.582 130.23 297.034C130.046 297.486 130 297.983 130.096 298.462C130.193 298.941 130.427 299.38 130.77 299.724C131.114 300.068 131.55 300.301 132.025 300.395C132.499 300.488 132.991 300.437 133.437 300.248C133.882 300.059 134.263 299.741 134.53 299.334C134.797 298.927 134.938 298.449 134.936 297.96C134.936 297.635 134.873 297.314 134.749 297.014C134.626 296.714 134.445 296.442 134.216 296.213C133.988 295.985 133.717 295.804 133.42 295.682C133.122 295.559 132.803 295.497 132.482 295.5Z" fill="#9AD8D0"/>
</g>
</g>
<g style="mix-blend-mode:color-dodge" opacity="0.77">
<g style="mix-blend-mode:color-dodge" opacity="0.77">
<path d="M102.445 276.86C101.961 276.86 101.488 277.005 101.086 277.276C100.684 277.548 100.371 277.933 100.186 278.385C100.001 278.836 99.9526 279.333 100.047 279.812C100.141 280.291 100.374 280.731 100.716 281.076C101.058 281.422 101.493 281.657 101.968 281.752C102.442 281.848 102.933 281.799 103.38 281.612C103.827 281.425 104.208 281.108 104.477 280.702C104.746 280.296 104.889 279.818 104.889 279.33C104.889 278.675 104.632 278.047 104.173 277.583C103.715 277.12 103.093 276.86 102.445 276.86V276.86Z" fill="#9AD8D0"/>
</g>
</g>
</g>
</svg>
