<svg width="414" height="171" viewBox="0 0 414 171" fill="none" xmlns="http://www.w3.org/2000/svg">
<rect width="414" height="170" fill="#222247"/>
<path opacity="0.67" d="M64.586 137.759H59.8037V154.898H64.586V137.759Z" fill="url(#paint0_linear)"/>
<path d="M59.8037 137.759V104.2L62.1933 102.409L64.586 104.2V137.759H59.8037Z" fill="url(#paint1_linear)"/>
<path d="M62.1943 99.1951L59.8047 101.123V102.409L62.1943 100.481L64.5869 102.409V101.123L62.1943 99.1951Z" fill="url(#paint2_linear)"/>
<path opacity="0.67" d="M404.124 59.5603H401.999V68.13H404.124V59.5603Z" fill="url(#paint3_linear)"/>
<path d="M401.999 59.5603V12.6711L403.062 11.8916L404.124 12.6711V59.5603H401.999Z" fill="url(#paint4_linear)"/>
<path d="M403.062 9.74927L401.999 10.7126V11.3561L403.062 10.3927L404.124 11.3561V10.7126L403.062 9.74927Z" fill="url(#paint5_linear)"/>
<path d="M166.607 164.003V142.244L168.999 140.437L171.39 142.244V164.003H166.607Z" fill="url(#paint6_linear)"/>
<path d="M168.999 137.759L166.607 139.365V140.437L168.999 138.83L171.39 140.437V139.365L168.999 137.759Z" fill="url(#paint7_linear)"/>
<path opacity="0.67" d="M304.761 125.975H299.979V143.114H304.761V125.975Z" fill="url(#paint8_linear)"/>
<path d="M299.979 125.975V115.959L302.368 114.192L304.761 115.959V125.975H299.979Z" fill="url(#paint9_linear)"/>
<path d="M302.368 110.979L299.979 112.907V114.192L302.368 112.264L304.761 114.192V112.907L302.368 110.979Z" fill="url(#paint10_linear)"/>
<path opacity="0.67" d="M352.052 122.099H341.956V170.303H352.052V122.099Z" fill="url(#paint11_linear)"/>
<path d="M341.956 122.099V91.7694L347.005 87.8206L352.052 91.7694V122.099H341.956Z" fill="url(#paint12_linear)"/>
<path d="M347.005 83L341.956 87.1783V89.9628L347.005 85.7877L352.052 89.9628V87.1783L347.005 83Z" fill="url(#paint13_linear)"/>
<path opacity="0.67" d="M329.616 56.8823H325.365V84.1981H329.616V56.8823Z" fill="url(#paint14_linear)"/>
<path d="M325.365 56.8824V10.9911L327.491 9.21362L329.616 10.9911V56.8824H325.365Z" fill="url(#paint15_linear)"/>
<path d="M327.492 6L325.366 7.92945V9.21362L327.492 7.28418L329.617 9.21362V7.92945L327.492 6Z" fill="url(#paint16_linear)"/>
<path opacity="0.67" d="M94.4815 58.4893H89.6992V75.6286H94.4815V58.4893Z" fill="url(#paint17_linear)"/>
<path d="M89.6992 58.4891V48.4733L92.0888 46.7058L94.4815 48.4733V58.4891H89.6992Z" fill="url(#paint18_linear)"/>
<path d="M92.0888 43.4924L89.6992 45.4206V46.7061L92.0888 44.7779L94.4815 46.7061V45.4206L92.0888 43.4924Z" fill="url(#paint19_linear)"/>
<path opacity="0.67" d="M29.0958 54.2043H19V102.409H29.0958V54.2043Z" fill="url(#paint20_linear)"/>
<path d="M19 54.2044V23.8746L24.0494 19.9258L29.0958 23.8746V54.2044H19Z" fill="url(#paint21_linear)"/>
<path d="M24.0504 15.1052L19.001 19.2836V22.0681L24.0504 17.8929L29.0968 22.0681V19.2836L24.0504 15.1052Z" fill="url(#paint22_linear)"/>
<defs>
<linearGradient id="paint0_linear" x1="62.1948" y1="137.759" x2="62.1948" y2="154.898" gradientUnits="userSpaceOnUse">
<stop stop-color="#A5F9F9"/>
<stop offset="1" stop-color="#A5F9F9" stop-opacity="0"/>
</linearGradient>
<linearGradient id="paint1_linear" x1="62.1948" y1="102.409" x2="62.1948" y2="137.759" gradientUnits="userSpaceOnUse">
<stop stop-color="#A5F9F9"/>
<stop offset="1" stop-color="white"/>
</linearGradient>
<linearGradient id="paint2_linear" x1="7275.39" y1="2912.72" x2="7350.14" y2="2912.72" gradientUnits="userSpaceOnUse">
<stop stop-color="#A5F9F9"/>
<stop offset="0.18" stop-color="#ADFAFA"/>
<stop offset="0.46" stop-color="#C3FBFB"/>
<stop offset="0.8" stop-color="#E6FDFD"/>
<stop offset="1" stop-color="white"/>
</linearGradient>
<linearGradient id="paint3_linear" x1="403.062" y1="59.5603" x2="403.062" y2="68.13" gradientUnits="userSpaceOnUse">
<stop stop-color="#A5F9F9"/>
<stop offset="1" stop-color="#A5F9F9" stop-opacity="0"/>
</linearGradient>
<linearGradient id="paint4_linear" x1="403.062" y1="11.8916" x2="403.062" y2="59.5603" gradientUnits="userSpaceOnUse">
<stop stop-color="#A5F9F9"/>
<stop offset="1" stop-color="white"/>
</linearGradient>
<linearGradient id="paint5_linear" x1="403.062" y1="9.74927" x2="403.062" y2="11.3561" gradientUnits="userSpaceOnUse">
<stop stop-color="#A5F9F9"/>
<stop offset="1" stop-color="white"/>
</linearGradient>
<linearGradient id="paint6_linear" x1="168.999" y1="140.437" x2="168.999" y2="164.003" gradientUnits="userSpaceOnUse">
<stop stop-color="#A5F9F9"/>
<stop offset="1" stop-color="white"/>
</linearGradient>
<linearGradient id="paint7_linear" x1="2265.2" y1="2632.33" x2="2339.94" y2="2632.33" gradientUnits="userSpaceOnUse">
<stop stop-color="#A5F9F9"/>
<stop offset="0.18" stop-color="#ADFAFA"/>
<stop offset="0.46" stop-color="#C3FBFB"/>
<stop offset="0.8" stop-color="#E6FDFD"/>
<stop offset="1" stop-color="white"/>
</linearGradient>
<linearGradient id="paint8_linear" x1="302.37" y1="125.975" x2="302.37" y2="143.114" gradientUnits="userSpaceOnUse">
<stop stop-color="#A5F9F9"/>
<stop offset="1" stop-color="#A5F9F9" stop-opacity="0"/>
</linearGradient>
<linearGradient id="paint9_linear" x1="302.37" y1="114.192" x2="302.37" y2="125.975" gradientUnits="userSpaceOnUse">
<stop stop-color="#A5F9F9"/>
<stop offset="1" stop-color="white"/>
</linearGradient>
<linearGradient id="paint10_linear" x1="887.381" y1="2317.13" x2="962.128" y2="2317.13" gradientUnits="userSpaceOnUse">
<stop stop-color="#A5F9F9"/>
<stop offset="0.18" stop-color="#ADFAFA"/>
<stop offset="0.46" stop-color="#C3FBFB"/>
<stop offset="0.8" stop-color="#E6FDFD"/>
<stop offset="1" stop-color="white"/>
</linearGradient>
<linearGradient id="paint11_linear" x1="347.004" y1="122.099" x2="347.004" y2="170.303" gradientUnits="userSpaceOnUse">
<stop stop-color="#A5F9F9"/>
<stop offset="1" stop-color="#A5F9F9" stop-opacity="0"/>
</linearGradient>
<linearGradient id="paint12_linear" x1="347.004" y1="87.8206" x2="347.004" y2="122.099" gradientUnits="userSpaceOnUse">
<stop stop-color="#A5F9F9"/>
<stop offset="1" stop-color="white"/>
</linearGradient>
<linearGradient id="paint13_linear" x1="3568.79" y1="1812.92" x2="3911.34" y2="1812.92" gradientUnits="userSpaceOnUse">
<stop stop-color="#A5F9F9"/>
<stop offset="0.18" stop-color="#ADFAFA"/>
<stop offset="0.46" stop-color="#C3FBFB"/>
<stop offset="0.8" stop-color="#E6FDFD"/>
<stop offset="1" stop-color="white"/>
</linearGradient>
<linearGradient id="paint14_linear" x1="327.491" y1="56.8823" x2="327.491" y2="84.1981" gradientUnits="userSpaceOnUse">
<stop stop-color="#A5F9F9"/>
<stop offset="0.546875" stop-color="#A5F9F9" stop-opacity="0"/>
</linearGradient>
<linearGradient id="paint15_linear" x1="327.491" y1="9.21362" x2="327.491" y2="56.8824" gradientUnits="userSpaceOnUse">
<stop stop-color="#A5F9F9"/>
<stop offset="1" stop-color="white"/>
</linearGradient>
<linearGradient id="paint16_linear" x1="327.492" y1="6" x2="327.492" y2="9.21362" gradientUnits="userSpaceOnUse">
<stop stop-color="#A5F9F9"/>
<stop offset="1" stop-color="white"/>
</linearGradient>
<linearGradient id="paint17_linear" x1="92.0903" y1="58.4893" x2="92.0903" y2="75.6286" gradientUnits="userSpaceOnUse">
<stop stop-color="#A5F9F9"/>
<stop offset="1" stop-color="#A5F9F9" stop-opacity="0"/>
</linearGradient>
<linearGradient id="paint18_linear" x1="92.0903" y1="46.7058" x2="92.0903" y2="58.4891" gradientUnits="userSpaceOnUse">
<stop stop-color="#A5F9F9"/>
<stop offset="1" stop-color="white"/>
</linearGradient>
<linearGradient id="paint19_linear" x1="677.102" y1="2249.64" x2="751.848" y2="2249.64" gradientUnits="userSpaceOnUse">
<stop stop-color="#A5F9F9"/>
<stop offset="0.18" stop-color="#ADFAFA"/>
<stop offset="0.46" stop-color="#C3FBFB"/>
<stop offset="0.8" stop-color="#E6FDFD"/>
<stop offset="1" stop-color="white"/>
</linearGradient>
<linearGradient id="paint20_linear" x1="24.0479" y1="54.2043" x2="24.0479" y2="102.409" gradientUnits="userSpaceOnUse">
<stop stop-color="#A5F9F9"/>
<stop offset="1" stop-color="#A5F9F9" stop-opacity="0"/>
</linearGradient>
<linearGradient id="paint21_linear" x1="24.0479" y1="19.9258" x2="24.0479" y2="54.2044" gradientUnits="userSpaceOnUse">
<stop stop-color="#A5F9F9"/>
<stop offset="1" stop-color="white"/>
</linearGradient>
<linearGradient id="paint22_linear" x1="3245.83" y1="1745.03" x2="3588.39" y2="1745.03" gradientUnits="userSpaceOnUse">
<stop stop-color="#A5F9F9"/>
<stop offset="0.18" stop-color="#ADFAFA"/>
<stop offset="0.46" stop-color="#C3FBFB"/>
<stop offset="0.8" stop-color="#E6FDFD"/>
<stop offset="1" stop-color="white"/>
</linearGradient>
</defs>
</svg>
