<svg width="245" height="117" viewBox="0 0 245 117" fill="none" xmlns="http://www.w3.org/2000/svg">
<rect width="245" height="116.499" fill="white"/>
<path d="M87.8498 49.8818C88.0056 49.3804 88.04 48.8514 87.9504 48.3353C87.8608 47.8192 87.6495 47.3296 87.3327 46.9038C87.013 46.5465 86.6111 46.2654 86.1588 46.0828C85.7065 45.9002 85.2162 45.821 84.7265 45.8516H77.4872C76.9197 45.8488 76.3611 45.9861 75.8648 46.2503C75.3686 46.5145 74.9515 46.8968 74.6536 47.3604C74.099 46.9923 73.4346 46.8076 72.761 46.8343H72.6369C72.2582 46.8495 71.8814 46.8926 71.5096 46.9634C71.4352 46.4009 71.1699 45.8776 70.7547 45.4743L70.6409 45.4346C70.0075 44.9556 69.2238 44.6967 68.4174 44.7001C68.3523 44.6902 68.286 44.6902 68.2209 44.7001C67.3337 44.728 66.4774 45.0194 65.7699 45.5339C65.1676 46.0053 64.7515 46.6604 64.5909 47.3902L64.4358 48.0751C63.5257 48.1843 62.5639 48.2836 61.5815 48.3829H61.447C61.3241 48.4033 61.203 48.4332 61.085 48.4722C61.1655 48.0354 61.15 47.5872 61.0396 47.1565C60.9291 46.7257 60.7262 46.3218 60.4438 45.9707C60.0155 45.5074 59.4826 45.1441 58.8858 44.9084C58.289 44.6727 57.644 44.5709 57 44.6107H39.3568C38.1966 44.5372 37.046 44.8537 36.1024 45.5058C35.1589 46.1579 34.4812 47.1049 34.1859 48.1843C34.069 48.6712 34.0668 49.1769 34.1795 49.6646C34.2922 50.1524 34.517 50.6098 34.8374 51.0035C35.272 51.4581 35.8064 51.8141 36.4021 52.0459C36.9977 52.2777 37.6396 52.3794 38.2813 52.3436H42.2318L38.5812 68.9708C38.4171 69.5392 38.3905 70.1361 38.5034 70.7159C38.6164 71.2956 38.8658 71.843 39.2327 72.3161C39.6214 72.7547 40.1097 73.1018 40.6602 73.3307C41.2106 73.5596 41.8085 73.6642 42.4077 73.6364C43.6269 73.6423 44.8102 73.2401 45.754 72.4991C46.6977 71.7581 47.3429 70.7246 47.5786 69.5764L51.3844 52.3734H55.9658C56.8863 52.3815 57.7961 52.1844 58.6237 51.7976C58.5567 52.4852 58.7678 53.1712 59.2132 53.7135C59.4393 53.9696 59.7173 54.179 60.0302 54.329C59.7047 54.4078 59.3942 54.5351 59.1097 54.7062C58.7194 54.9677 58.3893 55.3036 58.1402 55.693C57.8911 56.0825 57.7283 56.517 57.6619 56.9695C57.4959 57.4223 57.4611 57.9099 57.5613 58.3801C57.6615 58.8504 57.8928 59.2858 58.2307 59.6397C58.5126 59.9248 58.8554 60.1478 59.2357 60.2935C59.616 60.4391 60.0246 60.504 60.4335 60.4835H61.7262C61.7199 60.4995 61.7199 60.5172 61.7262 60.5331H59.1821C58.3 60.4905 57.4278 60.7277 56.7001 61.2082C55.9849 61.773 55.5133 62.5723 55.3763 63.4516C55.2369 63.898 55.2063 64.3693 55.287 64.8289C55.3677 65.2885 55.5575 65.7241 55.8417 66.102C56.2392 66.5177 56.7583 66.8083 57.331 66.9359L56.0486 68.0079L55.9245 68.1171C55.3771 68.6719 54.995 69.3575 54.8179 70.1025C54.8123 70.1652 54.8123 70.2283 54.8179 70.2911C54.7579 70.9377 54.8982 71.5869 55.2212 72.1573V72.2268C55.4898 72.6165 55.8473 72.9424 56.2666 73.1797C56.6858 73.4171 57.156 73.5597 57.6412 73.5967H57.7963C58.5829 73.6071 59.3603 73.4333 60.0612 73.0904L60.2474 72.9911C62.1158 71.7063 63.7599 70.1449 65.1184 68.3653C65.4735 67.9332 65.7982 67.4789 66.0905 67.0053H69.1931C69.4426 67.0061 69.6917 66.9861 69.9377 66.9458L69.1724 70.43C69.1677 70.4563 69.1677 70.4832 69.1724 70.5095C69.0961 70.8712 69.1037 71.2447 69.1949 71.6033C69.2861 71.9619 69.4585 72.2968 69.6998 72.5841C70.0042 72.9053 70.3768 73.1601 70.7925 73.3313C71.2081 73.5025 71.6572 73.5863 72.1095 73.5768H72.2646C73.0537 73.6024 73.8295 73.3769 74.4711 72.9352C75.1127 72.4935 75.5841 71.8605 75.8118 71.1348C75.8118 71.1348 75.8118 71.0852 75.8118 71.0554L76.0187 70.0628C76.6533 70.1732 77.2973 70.2263 77.9423 70.2216C78.7926 70.2434 79.6379 70.0899 80.4211 69.7714C81.2043 69.4528 81.9072 68.9768 82.4823 68.3752C83.6549 67.1606 84.4189 65.6351 84.6748 63.9976C85.1512 61.7239 85.1512 59.382 84.6748 57.1084C86.0518 54.8346 87.0958 52.3895 87.7774 49.8421L87.8498 49.8818ZM70.6409 60.4835C70.9324 60.4831 71.2233 60.4565 71.5096 60.4041L71.4476 60.692C71.0164 60.5792 70.5707 60.5257 70.1238 60.5331H68.676V60.4835H70.6409ZM72.8334 54.4282C72.379 54.2581 71.8937 54.1771 71.4062 54.19H70.0721L70.2169 53.5845C71.2105 53.3927 72.1913 53.1441 73.154 52.84L72.8334 54.4282ZM80.3623 52.2344C80.1877 52.6573 79.9909 53.0715 79.7728 53.4753L80.052 52.2344H80.3623ZM78.2939 62.1016C78.2352 62.5673 78.0953 63.0203 77.8802 63.4417C77.7458 63.6501 77.6837 63.6303 77.5596 63.6303L78.3559 60.0368C78.4852 60.6928 78.4852 61.3662 78.3559 62.0221" fill="white"/>
<path d="M106.465 60.4041L106.837 58.6867H106.91C107.249 58.6931 107.586 58.635 107.902 58.5157C108.218 58.3965 108.507 58.2184 108.75 57.9919L108.823 57.9224C109.137 57.5512 109.35 57.1113 109.443 56.6418C109.553 56.297 109.563 55.9301 109.472 55.5803C109.381 55.2305 109.192 54.9112 108.926 54.6565C108.515 54.2873 107.969 54.0877 107.406 54.1006C107.331 53.9366 107.234 53.783 107.116 53.644C106.86 53.3661 106.539 53.1495 106.18 53.0117C105.821 52.8738 105.433 52.8184 105.048 52.8498H104.976C104.495 52.8477 104.022 52.96 103.598 53.1765C103.174 53.3931 102.812 53.7072 102.545 54.0907H99.8875L99.7841 53.9914C99.3838 53.6415 98.8566 53.4562 98.3156 53.4752H96.6092C96.3497 53.2027 96.0277 52.9918 95.6688 52.8591C95.3098 52.7265 94.9237 52.6757 94.5408 52.7109C93.7958 52.6635 93.0589 52.8828 92.4724 53.3263L92.3069 53.4752H90.5385C90.0855 53.4626 89.639 53.5802 89.2561 53.8127C88.7875 54.1429 88.469 54.6334 88.3667 55.1826C88.3281 55.3724 88.3074 55.5651 88.3046 55.7584C87.9056 56.0937 87.636 56.5483 87.5393 57.0488C87.4442 57.4404 87.4657 57.8497 87.6014 58.2301C87.5097 58.4094 87.4436 58.5997 87.4049 58.7959C87.3509 59.0203 87.3301 59.2509 87.3429 59.4809L87.2808 59.5305C86.8437 59.8658 86.5405 60.3357 86.4224 60.8607C86.2729 61.3818 86.3319 61.9377 86.5879 62.4192C86.7054 62.6255 86.8662 62.8062 87.0603 62.9497C87.2543 63.0933 87.4773 63.1966 87.7152 63.253L87.1877 65.824C87.1174 66.1749 87.1174 66.5354 87.1877 66.8862C86.8328 67.0664 86.5243 67.3202 86.2845 67.6293C86.0448 67.9384 85.8799 68.295 85.8019 68.673L85.3882 70.5194C85.3882 70.5194 85.3882 70.5789 85.3882 70.6087C85.3271 70.9196 85.3371 71.2394 85.4174 71.5462C85.4978 71.853 85.6466 72.1394 85.8536 72.3856C86.1047 72.655 86.4124 72.8704 86.7564 73.0175C87.1004 73.1647 87.473 73.2402 87.8496 73.2393H87.9944C88.6382 73.2519 89.2679 73.0575 89.7833 72.6869C90.2986 72.3163 90.67 71.791 90.8384 71.1944C90.8432 71.1648 90.8432 71.1346 90.8384 71.105V70.9264H92.2552C92.1875 71.4602 92.3037 72.0006 92.5862 72.465C92.8081 72.8449 93.1377 73.1566 93.5368 73.3639C93.9358 73.5712 94.388 73.6657 94.8407 73.6363C95.2757 73.6419 95.7067 73.5558 96.1033 73.3843C96.5 73.2128 96.8527 72.96 97.1366 72.6437L97.3951 72.326C97.4751 72.4243 97.5691 72.5112 97.6744 72.5841C98.1405 72.8961 98.689 73.0751 99.2567 73.1003C99.7014 73.1003 100.053 73.1599 100.374 73.1599H101.408C102.225 73.1961 103.034 72.9993 103.735 72.594C104.472 72.0682 104.968 71.2892 105.121 70.4201L105.307 69.5664C105.407 69.2007 105.42 68.8179 105.345 68.4466C105.27 68.0753 105.108 67.7252 104.872 67.4222C105.069 67.1167 105.209 66.7808 105.286 66.4296L105.896 63.6501C106.054 63.0839 105.984 62.4814 105.7 61.9625C106.077 61.5122 106.336 60.981 106.455 60.414" fill="white"/>
<path d="M126.859 55.6988H125.825C125.905 55.3268 125.892 54.9416 125.786 54.5755C125.68 54.2094 125.484 53.873 125.215 53.5944C124.945 53.336 124.621 53.1353 124.264 53.0053C123.908 52.8753 123.527 52.8189 123.146 52.8399C122.441 52.8124 121.746 53.0115 121.171 53.4058L121.057 53.4951C120.529 53.9456 120.166 54.5479 120.023 55.2124L119.909 55.6988H118.462C117.963 55.6894 117.468 55.7878 117.014 55.9867V55.8676C117.108 55.5011 117.115 55.119 117.035 54.7495C116.954 54.38 116.788 54.0326 116.548 53.7333C116.298 53.4422 115.981 53.2102 115.623 53.0553C115.264 52.9003 114.873 52.8267 114.48 52.8399C113.744 52.8201 113.027 53.0683 112.474 53.5348C111.926 53.9871 111.561 54.6085 111.439 55.2918L111.15 56.6319C110.712 56.6318 110.283 56.7487 109.91 56.9696C109.537 57.1905 109.236 57.5067 109.04 57.8827L108.957 58.0515C108.317 59.6507 107.564 61.2061 106.703 62.7071C106.669 62.7569 106.641 62.8102 106.62 62.8659C106.485 63.1698 106.381 63.4856 106.31 63.8089C106.188 64.1772 106.173 64.5702 106.266 64.9461C106.359 65.3219 106.556 65.6665 106.837 65.9432C107.071 66.1954 107.36 66.3941 107.684 66.5247C108.008 66.6552 108.358 66.7143 108.709 66.6976H108.813L107.944 70.6087C107.792 71.2425 107.891 71.908 108.223 72.4749C108.446 72.8493 108.773 73.157 109.167 73.3638C109.562 73.5706 110.008 73.6683 110.457 73.6463C110.881 73.6514 111.302 73.573 111.693 73.416C112.084 73.2589 112.438 73.0265 112.732 72.733V72.6834C113.129 72.2624 113.403 71.749 113.528 71.1944L115.163 63.8387C115.359 63.8528 115.556 63.8528 115.752 63.8387L114.718 68.6631C114.565 69.166 114.534 69.6958 114.627 70.2119C114.72 70.7281 114.935 71.2169 115.256 71.6411C115.61 72.0272 116.054 72.3286 116.551 72.5216C117.048 72.7146 117.586 72.7938 118.12 72.7529H123.808C124.499 72.7426 125.163 72.4911 125.675 72.0453C126.187 71.5996 126.512 70.9901 126.59 70.3308C126.709 69.9524 126.734 69.5528 126.664 69.1635C126.594 68.7742 126.431 68.4058 126.187 68.0873C125.968 67.8359 125.692 67.6362 125.38 67.5037C125.068 67.3711 124.728 67.3093 124.387 67.323H120.871L122.257 61.0692H126.27C126.682 61.078 127.091 61.0079 127.475 60.8631C127.859 60.7182 128.208 60.5014 128.503 60.2254C128.925 59.7785 129.202 59.223 129.3 58.6272C129.438 58.227 129.461 57.7988 129.369 57.3869C129.276 56.975 129.07 56.5943 128.772 56.2845C128.516 56.0553 128.215 55.8775 127.887 55.7616C127.558 55.6457 127.209 55.594 126.859 55.6095" fill="white"/>
<path d="M31.1143 50.0108C31.6545 49.6203 32.0952 49.1173 32.4033 48.5395C32.7115 47.9617 32.8789 47.3244 32.8931 46.6755C32.8931 44.1045 30.2249 42 26.9466 42C23.6682 42 21 44.1045 21 46.6755C21 49.2465 23.6682 51.3609 26.9466 51.3609H27.2051L27.3602 51.4601C26.5855 51.7234 25.8989 52.1822 25.373 52.7884C24.847 53.3946 24.501 54.1257 24.3714 54.9047L21.2068 69.2984C21.0336 69.8256 20.9901 70.3841 21.0799 70.9301C21.1696 71.4762 21.3901 71.9948 21.7239 72.4452C22.0986 72.8579 22.5688 73.1806 23.0968 73.3875C23.6248 73.5943 24.1959 73.6796 24.7644 73.6364C25.8952 73.6911 27.007 73.3421 27.8854 72.6565C28.7639 71.9709 29.3468 70.9975 29.5217 69.9238L32.6863 55.5301C32.8605 55.0025 32.9035 54.443 32.8119 53.8966C32.7203 53.3501 32.4967 52.8319 32.1589 52.3833C31.8622 52.0164 31.4747 51.7263 31.0316 51.5395C31.0849 51.3927 31.1128 51.2384 31.1143 51.0829V50.0108Z" fill="white"/>
<path d="M161.422 67.5116H161.256C161.76 66.9579 162.058 66.2598 162.104 65.5262L162.9 55.5499C162.915 55.3549 162.888 55.159 162.821 54.9745C162.753 54.79 162.646 54.6209 162.507 54.4778L162.363 54.3488C162.566 54.2224 162.734 54.0489 162.849 53.8442C162.965 53.6396 163.025 53.4103 163.025 53.1774V50.0902C163.023 49.8332 162.949 49.5813 162.811 49.3612C162.672 49.1411 162.475 48.9609 162.239 48.8395L161.918 46.3975C161.875 46.0553 161.703 45.7401 161.434 45.5115C161.165 45.2828 160.819 45.1566 160.46 45.1567H158.009C157.921 44.8577 157.734 44.5943 157.477 44.4062C157.219 44.2182 156.905 44.1157 156.582 44.1144H153.127C152.737 44.125 152.365 44.2817 152.093 44.5511C151.989 44.6606 151.901 44.7844 151.835 44.9184C151.704 44.7066 151.518 44.5312 151.294 44.4094C151.071 44.2875 150.819 44.2235 150.563 44.2236H146.778C146.474 44.2228 146.179 44.3121 145.93 44.4792C145.682 44.6462 145.494 44.8829 145.392 45.1567H144.171C143.954 45.1564 143.739 45.2026 143.542 45.2919C143.345 45.3812 143.172 45.5113 143.034 45.6729L142.91 45.4048C142.792 45.1578 142.603 44.9486 142.364 44.8024C142.126 44.6562 141.848 44.5793 141.565 44.5809H136.022C135.734 44.5799 135.452 44.6604 135.211 44.8122C134.97 44.964 134.781 45.1804 134.667 45.4346L133.943 46.9633C133.593 47.0156 133.275 47.1866 133.045 47.4453C132.816 47.7039 132.69 48.0331 132.692 48.3729V51.9267C132.69 52.2696 132.819 52.6014 133.054 52.8598V56.1356C133.053 56.3116 133.084 56.4864 133.147 56.6518C133.004 56.8759 132.929 57.1336 132.93 57.3963V60.6721C132.927 60.8206 132.951 60.9685 133.002 61.1089C132.873 61.3232 132.806 61.5662 132.806 61.8137V65.3277C132.782 65.9771 132.917 66.6229 133.199 67.2138C132.942 67.4855 132.802 67.8399 132.806 68.2064V71.7205C132.806 72.097 132.961 72.458 133.239 72.7242C133.516 72.9905 133.892 73.14 134.285 73.14H143.282C143.361 73.1502 143.441 73.1502 143.52 73.14C143.602 73.1496 143.686 73.1496 143.768 73.14H153.582C153.906 73.1372 154.221 73.0365 154.482 72.8521C155.126 73.3497 155.931 73.6165 156.757 73.6066H161.391C161.783 73.6066 162.159 73.457 162.436 73.1908C162.714 72.9246 162.869 72.5635 162.869 72.187V68.9311C162.869 68.5546 162.714 68.1936 162.436 67.9273C162.159 67.6611 161.783 67.5116 161.391 67.5116H161.422ZM138.897 51.3807H138.752L138.825 51.2616L138.897 51.3807Z" fill="white"/>
<path d="M191.713 66.0325H188.538V65.9134C188.543 65.8738 188.543 65.8338 188.538 65.7943L184.287 52.0756C184.196 51.7866 184.01 51.5338 183.756 51.3549C183.503 51.176 183.196 51.0806 182.881 51.0829H181.299L182.943 45.9707C183.013 45.7589 183.03 45.5342 182.992 45.3149C182.955 45.0956 182.864 44.888 182.727 44.7089C182.589 44.5299 182.41 44.3845 182.203 44.2846C181.997 44.1847 181.768 44.1332 181.536 44.1342H175.6C175.285 44.1329 174.977 44.2286 174.722 44.4072C174.467 44.5858 174.278 44.838 174.183 45.1269L167.451 65.973H164.483C164.091 65.973 163.714 66.1225 163.437 66.3887C163.16 66.6549 163.004 67.016 163.004 67.3925V71.9588C163.004 72.3352 163.16 72.6963 163.437 72.9625C163.714 73.2287 164.091 73.3783 164.483 73.3783H170.874C173.728 73.3783 174.866 70.9462 175.29 69.4771L178.196 60.3942L181.05 69.7947C181.251 70.8219 181.828 71.7458 182.679 72.3981C183.529 73.0504 184.596 73.3877 185.684 73.3485H191.713C192.105 73.3485 192.481 73.1989 192.759 72.9327C193.036 72.6665 193.192 72.3055 193.192 71.929V67.452C193.192 67.0756 193.036 66.7145 192.759 66.4483C192.481 66.1821 192.105 66.0325 191.713 66.0325Z" fill="white"/>
<path d="M222.407 52.0061V50.7553C222.708 50.6642 222.971 50.4831 223.157 50.2384C223.343 49.9937 223.443 49.6983 223.442 49.3954V46.2288C223.442 45.8523 223.286 45.4912 223.009 45.225C222.731 44.9588 222.355 44.8092 221.963 44.8092H212.531C212.417 44.566 212.232 44.3592 212 44.2133C211.767 44.0673 211.496 43.9882 211.218 43.9853H205.426C205.153 43.9847 204.884 44.0578 204.652 44.1965C204.42 44.3352 204.233 44.5337 204.113 44.7695H194.805C194.611 44.7695 194.42 44.8063 194.241 44.8778C194.062 44.9492 193.9 45.054 193.763 45.1859C193.627 45.3178 193.519 45.4744 193.445 45.6466C193.372 45.8187 193.335 46.0031 193.337 46.1891V49.3954C193.337 49.6848 193.429 49.9673 193.601 50.205C193.772 50.4427 194.016 50.6244 194.298 50.7255V52.0061C194.298 52.2248 194.349 52.4407 194.45 52.637C194.55 52.8333 194.697 53.0047 194.878 53.1377V54.0014H194.743C194.55 54 194.358 54.0356 194.179 54.106C194.001 54.1763 193.838 54.2801 193.702 54.4113C193.565 54.5424 193.457 54.6983 193.383 54.87C193.31 55.0416 193.273 55.2255 193.275 55.4109V57.5948C193.054 57.8444 192.933 58.161 192.933 58.4882V60.9997C192.936 61.3744 193.093 61.7329 193.37 61.997C193.647 62.2611 194.022 62.4093 194.412 62.4093H194.94V68.4149H194.743C194.362 68.42 193.999 68.5667 193.729 68.8241C193.459 69.0815 193.303 69.4295 193.295 69.7947V72.1771C193.288 72.3647 193.32 72.5517 193.39 72.7272C193.459 72.9027 193.565 73.0631 193.699 73.199C193.834 73.3349 193.996 73.4436 194.175 73.5187C194.354 73.5938 194.548 73.6338 194.743 73.6364H200.566C201.744 73.6892 202.914 73.4184 203.938 72.8558C204.962 72.2932 205.797 71.462 206.347 70.4598H209.842L210.235 71.1348C210.751 71.94 211.486 72.5948 212.36 73.0287C213.235 73.4625 214.217 73.6589 215.199 73.5966H221.952C222.345 73.5966 222.721 73.4471 222.998 73.1809C223.276 72.9147 223.431 72.5536 223.431 72.1771V69.7947C223.431 69.4182 223.276 69.0572 222.998 68.791C222.721 68.5248 222.345 68.3752 221.952 68.3752H221.322C221.456 67.9983 221.522 67.6022 221.518 67.2039V62.4093H221.828C222.219 62.4093 222.593 62.2611 222.87 61.997C223.147 61.7329 223.305 61.3744 223.307 60.9997V58.4882C223.39 58.3101 223.432 58.1173 223.431 57.9224V55.4109C223.431 55.225 223.393 55.0409 223.319 54.8692C223.244 54.6975 223.135 54.5417 222.998 54.4107C222.86 54.2797 222.697 54.176 222.518 54.1058C222.338 54.0355 222.146 54 221.952 54.0014H221.642V53.2271C221.864 53.1029 222.048 52.9245 222.175 52.7101C222.302 52.4957 222.368 52.2528 222.366 52.0061" fill="white"/>
<path d="M64.3014 55.6095L64.8908 52.9293C63.8567 53.0683 62.7294 53.1874 61.5918 53.237C60.4542 53.2867 59.8751 52.6414 60.1026 51.4701C60.1616 51.0597 60.3528 50.6773 60.6495 50.3765C60.9463 50.0756 61.3336 49.8714 61.7573 49.7925L65.6872 49.3656L66.0595 47.6781C66.1543 47.2649 66.391 46.8943 66.7317 46.6259C67.2105 46.3011 67.7796 46.1213 68.3657 46.1097C68.8468 46.0989 69.3186 46.2382 69.7102 46.5067C69.8624 46.6598 69.9702 46.8485 70.0228 47.054C70.0755 47.2595 70.0711 47.4747 70.0101 47.6781L69.7722 48.77C70.4444 48.6807 71.0339 48.5616 71.5924 48.4524C71.9738 48.3481 72.3654 48.2816 72.761 48.2538C73.4229 48.2538 73.7952 48.4226 73.9607 48.7402C74.1103 48.9169 74.2145 49.1248 74.2648 49.3473C74.3151 49.5698 74.3101 49.8005 74.2502 50.0208C74.2053 50.2736 74.1046 50.5142 73.9547 50.7265C73.8049 50.9388 73.6094 51.1179 73.3815 51.2517C71.9561 51.765 70.48 52.1375 68.9759 52.3635L68.252 55.6095H71.3545C71.5686 55.586 71.7854 55.6046 71.9917 55.6644C72.198 55.7241 72.3894 55.8237 72.5542 55.9569C72.8127 56.1257 72.8954 56.5823 72.7403 57.2673C72.6777 57.713 72.492 58.1346 72.2025 58.4883C71.9898 58.6862 71.7365 58.8395 71.4588 58.9386C71.1811 59.0377 70.885 59.0804 70.5892 59.064H67.5384L67.1971 60.6026C67.0833 61.1188 66.9592 61.5953 66.8765 61.9427H70.1445C70.6654 61.8932 71.1865 62.0351 71.6027 62.3398C71.8406 62.5681 71.8923 63.0545 71.7372 63.7395C71.6494 64.2235 71.4157 64.6722 71.0649 65.0299C70.5887 65.4381 69.9654 65.6518 69.3275 65.6255H65.2632C64.8916 66.2971 64.4627 66.9379 63.9808 67.5414C62.7152 69.212 61.1748 70.6738 59.42 71.8694C58.9258 72.1061 58.3796 72.2253 57.8274 72.2169C57.5583 72.2021 57.2966 72.127 57.0631 71.9977C56.8297 71.8685 56.631 71.6885 56.4829 71.4724C56.3018 71.1506 56.2261 70.7839 56.2657 70.4201C56.3811 69.9163 56.6387 69.4526 57.0104 69.08C57.7757 68.4447 58.5823 67.7598 59.4614 66.9954C59.9392 66.5665 60.3882 66.1089 60.8058 65.6255H58.3651C58.1103 65.6505 57.8529 65.6227 57.6102 65.5439C57.3676 65.4651 57.1454 65.3372 56.9587 65.1689C56.7104 64.9108 56.6794 64.4244 56.8242 63.7395C56.8965 63.2022 57.1638 62.7066 57.5792 62.3398C58.0549 62.0451 58.6172 61.9058 59.1821 61.9427H62.8121C62.9569 61.5159 63.0914 61.0593 63.1948 60.6026L63.5361 59.064H60.4335C60.2176 59.0849 59.9995 59.0573 59.7966 58.9832C59.5938 58.9091 59.4117 58.7906 59.2649 58.6372C58.9546 58.4088 58.9133 57.9522 59.058 57.2673C59.0881 56.9982 59.1752 56.7379 59.3139 56.5023C59.4527 56.2668 59.6401 56.0609 59.8647 55.8974C60.2671 55.6885 60.7212 55.5889 61.1781 55.6095H64.3014ZM86.4019 49.5939C85.6893 52.1596 84.603 54.6158 83.1752 56.8901C83.7113 59.131 83.7431 61.456 83.2683 63.7097C83.0676 65.081 82.4445 66.3634 81.4792 67.3925C81.0413 67.8622 80.5013 68.2337 79.8972 68.4807C79.2931 68.7277 78.6398 68.8442 77.9836 68.8219C76.9447 68.8481 75.9118 68.662 74.9535 68.276L74.4054 70.7874C74.279 71.2345 73.9938 71.6251 73.5991 71.8915C73.2043 72.158 72.7249 72.2836 72.2439 72.2466C71.0649 72.1871 70.5478 71.7007 70.6926 70.7874L75.4602 49.2465C75.7498 47.9362 76.4324 47.2612 77.5286 47.2612H84.7679C86.2261 47.2612 86.8363 48.0553 86.4433 49.6039L86.4019 49.5939ZM77.5803 65.0895C77.8924 65.0952 78.2001 65.0186 78.4699 64.8681C78.7398 64.7175 78.9615 64.4989 79.1109 64.2358C79.4436 63.669 79.6711 63.0509 79.7831 62.4093C80.023 61.0381 79.8803 59.6305 79.3694 58.3294C79.2717 57.9446 79.2717 57.5429 79.3694 57.1581C79.4337 56.824 79.5829 56.5103 79.8038 56.2448C80.9918 54.6827 81.8491 52.9121 82.3272 51.0333C82.3272 50.9142 82.3272 50.8248 82.1307 50.8248H78.8213L75.7188 64.8314C76.3108 64.9948 76.9229 65.0816 77.5389 65.0895" fill="#288CC5"/>
<g clip-path="url(#clip0)">
<path d="M103.761 55.3105L103.834 54.9626C103.958 54.3429 104.433 53.9515 105.24 53.9515C106.046 53.9515 106.346 54.2994 106.273 54.9626L106.201 55.3105H107.442C107.551 55.299 107.661 55.3104 107.765 55.344C107.87 55.3776 107.967 55.4327 108.052 55.5062C108.176 55.6149 108.207 55.8541 108.134 56.2454C108.095 56.4959 107.995 56.7317 107.845 56.9303C107.739 57.0393 107.612 57.1244 107.474 57.1805C107.335 57.2366 107.187 57.2624 107.039 57.2565H105.767L105.136 60.3658C105.036 60.9337 104.737 61.4417 104.299 61.7899C103.838 62.2002 103.248 62.4136 102.645 62.3879C102.033 62.3997 101.425 62.2852 100.856 62.0509C100.567 61.8769 100.494 61.5508 100.577 61.1159V60.942H100.411C100.101 60.942 99.8841 60.942 99.7704 60.768C99.7332 60.7305 99.7046 60.6846 99.6867 60.6337C99.6688 60.5829 99.6621 60.5284 99.667 60.4745C99.543 60.0179 99.3776 59.4526 99.1398 58.7676C99.1258 58.7106 99.1258 58.6507 99.1398 58.5937C99.1665 58.4538 99.2192 58.3208 99.2948 58.2023C99.4302 58.0082 99.6173 57.8607 99.8325 57.7783C99.9763 57.7124 100.131 57.6755 100.287 57.6696C100.427 57.6537 100.568 57.6764 100.697 57.7355C100.826 57.7946 100.938 57.8881 101.021 58.0066C101.245 58.3319 101.404 58.7019 101.487 59.0938C101.58 59.384 101.608 59.6927 101.569 59.9961C101.763 60.1193 101.984 60.1867 102.21 60.1918C102.531 60.1918 102.717 60.0614 102.779 59.7787L103.368 57.213H99.7601C99.6524 57.2316 99.542 57.2214 99.439 57.1834C99.3361 57.1454 99.2438 57.0808 99.1708 56.9956C99.0364 56.8651 99.0364 56.6259 99.0364 56.2454C99.0501 56.0962 99.0929 55.9516 99.1623 55.8206C99.2317 55.6896 99.3261 55.5752 99.4396 55.4844C99.6412 55.3551 99.8759 55.2944 100.112 55.3105H103.761Z" fill="#040516"/>
</g>
<path d="M112.081 58.2798C112.081 58.2798 112.132 58.3393 112.153 58.3393L112.763 55.5797C112.821 55.1866 113.036 54.8306 113.363 54.5871C113.502 54.4644 113.665 54.3696 113.842 54.3082C114.02 54.2468 114.209 54.2201 114.397 54.2297C114.568 54.2121 114.74 54.2355 114.899 54.2979C115.058 54.3603 115.198 54.4597 115.307 54.5871C115.415 54.7279 115.487 54.891 115.518 55.0634C115.548 55.2357 115.536 55.4126 115.483 55.5797L114.976 57.8827C115.026 57.8671 115.075 57.8472 115.121 57.8232C115.263 57.7679 115.413 57.7344 115.566 57.7239C115.707 57.7083 115.849 57.7297 115.979 57.7856C116.108 57.8415 116.219 57.9299 116.3 58.0415C116.611 58.6683 116.817 59.3384 116.91 60.0269C117.017 60.54 117.035 61.0667 116.962 61.5854C116.922 61.8226 116.793 62.0378 116.6 62.1909C116.354 62.3918 116.044 62.5041 115.721 62.5086C115.477 62.537 115.23 62.4882 115.018 62.3696C114.966 62.3339 114.924 62.2859 114.897 62.2303C114.87 62.1746 114.858 62.1132 114.863 62.0519C114.79 61.4265 114.687 60.692 114.552 59.8283L112.101 70.8966C112.028 71.211 111.872 71.5018 111.646 71.7404C111.49 71.8965 111.302 72.0195 111.094 72.1016C110.885 72.1837 110.661 72.2229 110.436 72.2169C110.248 72.239 110.058 72.2075 109.889 72.1263C109.719 72.0451 109.579 71.9177 109.485 71.7602C109.406 71.6312 109.355 71.4881 109.335 71.3397C109.316 71.1912 109.328 71.0404 109.371 70.8966L111.522 61.1585C111.039 62.3843 110.48 63.5809 109.847 64.7421C109.727 64.9286 109.555 65.0783 109.35 65.1733C109.144 65.2683 108.915 65.3047 108.688 65.2781C108.539 65.2943 108.387 65.2737 108.247 65.2181C108.108 65.1625 107.986 65.0739 107.892 64.9604C107.696 64.8215 107.654 64.5435 107.747 64.1167C107.807 63.8717 107.891 63.6325 107.996 63.402C108.885 61.8454 109.666 60.2337 110.333 58.5776C110.401 58.4183 110.517 58.2821 110.666 58.1866C110.815 58.0911 110.991 58.0406 111.17 58.0415C111.493 58.0196 111.814 58.1037 112.081 58.2798ZM124.098 54.5573C124.215 54.6837 124.296 54.8367 124.334 55.0017C124.372 55.1668 124.365 55.3384 124.315 55.5003L123.963 57.1184H126.859C127.018 57.1048 127.177 57.1225 127.328 57.1702C127.48 57.218 127.619 57.295 127.738 57.3963C127.935 57.5551 127.976 57.8827 127.862 58.389C127.813 58.7208 127.67 59.0333 127.449 59.2923C127.292 59.4359 127.107 59.547 126.904 59.6187C126.701 59.6905 126.485 59.7213 126.27 59.7092H121.099L119.227 68.1668C119.134 68.5936 119.289 68.7922 119.723 68.7922H124.387C125.08 68.7922 125.339 69.2289 125.142 70.0925C124.946 70.9562 124.511 71.4029 123.808 71.4029H118.12C116.455 71.4029 115.814 70.5889 116.166 69.0105L118.234 59.7092H117.82C117.663 59.7219 117.505 59.6998 117.358 59.6448C117.211 59.5897 117.079 59.5031 116.972 59.3916C116.765 59.2129 116.714 58.8853 116.827 58.3989C116.892 58.0082 117.106 57.6544 117.427 57.4062C117.729 57.2037 118.096 57.1121 118.461 57.1481H121.099L121.316 55.5003C121.407 55.112 121.629 54.7633 121.947 54.5076C122.252 54.3119 122.614 54.2145 122.981 54.2297C123.165 54.2092 123.352 54.2251 123.53 54.2763C123.708 54.3275 123.873 54.413 124.015 54.5275" fill="#040516"/>
<path d="M25.8089 55.2025C25.9075 54.4442 26.306 53.7513 26.922 53.2672C27.538 52.7831 28.3243 52.5449 29.1182 52.6017C31.2383 52.6017 31.5796 53.8128 31.2383 55.2025L28.0841 69.6061C27.9878 70.368 27.5889 71.0649 26.9703 71.5513C26.3518 72.0377 25.5615 72.2761 24.7643 72.2168C22.696 72.2168 22.3133 70.9959 22.696 69.6061L25.8089 55.2025Z" fill="#288CC5"/>
<path d="M44.052 50.934H38.2812C36.5231 50.934 35.3028 50.0803 35.6337 48.4722C35.8606 47.7104 36.3557 47.0477 37.0346 46.597C37.7134 46.1463 38.5341 45.9355 39.3568 46.0005H57C58.7581 46.0005 59.9784 46.8641 59.6061 48.4722C59.3946 49.234 58.9087 49.8993 58.2347 50.35C57.5608 50.8006 56.7422 51.0076 55.9244 50.934H50.1537L46.0997 69.2885C45.9457 70.1271 45.4874 70.8863 44.8058 71.4314C44.1243 71.9765 43.2637 72.2724 42.3766 72.2665C41.9836 72.3156 41.584 72.2648 41.2178 72.1193C40.8515 71.9737 40.5315 71.7385 40.2897 71.437C40.0479 71.1356 39.8927 70.7785 39.8397 70.4015C39.7867 70.0245 39.8377 69.6407 39.9876 69.2885L44.052 50.934Z" fill="#288CC5"/>
<path d="M22.4788 46.6755C22.4788 44.8787 24.4747 43.4195 26.9464 43.4195C29.4181 43.4195 31.4141 44.8787 31.4141 46.6755C31.4141 48.4722 29.4078 49.9414 26.9464 49.9414C24.4851 49.9414 22.4788 48.4821 22.4788 46.6755Z" fill="#040516"/>
<path d="M25.571 48.7998L29.6354 51.0829V48.095L25.571 48.7998Z" fill="#040516"/>
<path d="M141.524 45.9707L142.372 47.7476C142.496 48.1546 142.641 48.3531 142.827 48.3531H143.437V51.9267H141.441C141.245 51.931 141.052 51.8771 140.889 51.7722C140.727 51.6674 140.601 51.5168 140.531 51.341L139.28 49.306H138.246L137.098 51.341C137.023 51.5021 136.905 51.6413 136.756 51.7442C136.607 51.8471 136.432 51.9101 136.25 51.9267H134.181V48.3729H134.76C134.884 48.3729 135.029 48.1744 135.153 47.7674L135.981 45.9707H141.524ZM143.189 56.086H140.469V57.3467H143.034V60.6225H140.438V68.1271H143.282V71.6411H134.285V68.1469H137.129V60.6423H134.409V57.3665H137.129V56.1058H134.533V52.8002H143.158L143.189 56.086ZM136.343 61.764V63.3622C136.343 63.8189 136.498 64.0273 136.798 64.0273V67.1145H135.495C134.709 67.1145 134.316 66.4991 134.316 65.2781V61.7839L136.343 61.764ZM143.582 61.764V65.3972C143.582 66.6182 143.137 67.2237 142.279 67.2237H140.862V64.1464H140.965C141.214 64.1464 141.338 63.938 141.338 63.4714V61.7839L143.582 61.764ZM153.034 63.6799H150.273V64.8314H152.755V67.6506H150.273V68.6432H153.572V71.6212H143.758V68.6432H146.86V67.6506H144.378V64.8314H146.86V63.6997H144.068V60.8607H153.034V63.6799ZM152.828 49.1373H150.552V50.0704H153.376L153.138 45.5041H156.592L156.861 50.0704H157.616L157.161 46.5564H160.47L160.925 50.0704H161.556V53.1278H157.047L157.616 63.3325L158.226 55.3911H161.432L160.646 65.3178C160.639 65.5936 160.568 65.8645 160.437 66.1103C160.307 66.356 160.12 66.5703 159.891 66.7373C159.371 67.0966 158.742 67.2814 158.102 67.2634H157.864V67.8491C157.947 68.544 158.226 68.8418 158.681 68.8418H161.401V72.0382H156.788C155.423 72.0382 154.637 71.115 154.431 69.3083L154.306 67.2436H153.376V64.1663H154.162L153.562 53.1477H143.923V50.0903H146.746V49.1571H144.14V46.5762H146.746V45.6431H150.532V46.5762H152.807L152.828 49.1373ZM152.91 54.0312V58.1309C152.91 59.4015 152.486 60.0467 151.638 60.0467H144.068V54.051L152.91 54.0312ZM150.221 57.3963V56.5228H146.767V57.575H149.87C150.108 57.575 150.232 57.5154 150.232 57.3963" fill="#040516"/>
<path d="M181.537 45.524L179.261 52.4727H182.84L187.08 66.2013C187.256 67.0451 187.68 67.4421 188.383 67.4421H191.713V71.8992H185.684C184.921 71.9354 184.171 71.7002 183.577 71.2386C182.984 70.777 182.589 70.1215 182.467 69.3977L178.331 55.5003L173.915 69.0502C173.366 70.9661 172.363 71.929 170.915 71.929H164.524V67.3627H167.978C168.34 67.3627 168.64 67.0748 168.888 66.4296L175.642 45.5835L181.537 45.524Z" fill="#040516"/>
<path d="M220.939 52.0061H216.182V52.5918H220.205V54.9742H216.182V55.411H221.994V57.8827H218.395L218.726 58.1706C218.83 58.2663 218.954 58.3411 219.089 58.3905C219.224 58.44 219.367 58.4631 219.512 58.4584H221.87V60.9699H220.091V67.2138C220.091 68.4348 219.336 69.0204 217.847 69.0204H216.244L216.358 69.2488C216.473 69.4346 216.641 69.5849 216.843 69.6816C217.045 69.7784 217.271 69.8176 217.495 69.7947H222.004V72.1771H215.251C214.524 72.239 213.794 72.1056 213.142 71.7918C212.49 71.478 211.942 70.9961 211.559 70.4003L210.742 69.0105H205.571C205.106 69.9865 204.395 70.836 203.503 71.4823C202.649 71.9562 201.676 72.1965 200.69 72.1771H194.743V69.7947H199.262C199.562 69.7947 199.831 69.5267 200.08 69.0105H196.408V60.9997H194.433V58.4882H196.811C197.094 58.4713 197.362 58.3587 197.566 58.1706L197.846 57.8827H194.743V55.411H200.08V54.9742H196.294V52.5918H200.08V52.0061H195.777V49.6237H200.142V49.0777H204.744V49.6237H211.621V49.0777H216.223V49.6237H220.98L220.939 52.0061ZM211.207 45.4446V46.2288H221.994V49.3954H217.599V48.7204H199.159V49.3954H194.743V46.2288H205.406V45.4446H211.207ZM215.603 61.1089H200.948V61.6648H215.634L215.603 61.1089ZM215.603 63.6104H200.948V64.1663H215.634L215.603 63.6104ZM215.603 66.1119H200.948V66.8167H215.117C215.427 66.8167 215.572 66.6182 215.603 66.1516V66.1119ZM213.731 58.8754L212.583 57.8827H203.699L202.458 58.8158L213.731 58.8754ZM211.58 52.0359H204.702V52.6216H211.58V52.0359ZM211.58 55.0139H204.702V55.4507H211.58V55.0139Z" fill="#040516"/>
<path d="M105.227 60.2662H99.0884C99.1862 60.0862 99.2683 59.8983 99.3339 59.7047C99.3339 59.7047 99.3339 59.6245 99.3339 59.5644H99.5181C99.7058 59.5603 99.8864 59.493 100.03 59.3739C100.169 59.2377 100.262 59.0626 100.296 58.8725C100.348 58.7093 100.348 58.5344 100.296 58.3712C100.251 58.3133 100.194 58.2655 100.128 58.2309C100.063 58.1963 99.9911 58.1758 99.9171 58.1706C98.6792 58.2308 97.4106 58.2709 96.1421 58.311L96.2546 57.7997H99.0372C99.1465 57.8038 99.2553 57.7844 99.3561 57.7429C99.4569 57.7013 99.5471 57.6385 99.6204 57.559C99.7413 57.4089 99.8158 57.2279 99.8352 57.0376C99.8352 56.797 99.8352 56.6366 99.7738 56.5664C99.7157 56.5156 99.6476 56.4769 99.5737 56.4528C99.4999 56.4287 99.4218 56.4195 99.3442 56.426H96.4592C96.4445 56.2971 96.399 56.1734 96.3262 56.065L96.2137 56.0349H99.6613C99.7675 56.0422 99.8741 56.0262 99.9732 55.9881C100.072 55.9499 100.161 55.8906 100.234 55.8144C100.345 55.6788 100.416 55.5157 100.439 55.3431C100.5 55.0824 100.439 54.922 100.388 54.8418C100.263 54.7449 100.107 54.6951 99.9477 54.7014H97.0116L97.1242 54.1599H99.7431C99.8496 54.1695 99.9568 54.1545 100.056 54.1162C100.156 54.0779 100.245 54.0174 100.316 53.9394C100.429 53.8049 100.5 53.6413 100.521 53.4681C100.582 53.2074 100.521 53.047 100.469 52.9668C100.343 52.8754 100.186 52.8326 100.03 52.8464H97.3697C97.3864 52.6475 97.3322 52.4491 97.2162 52.2849C97.0931 52.1822 96.9494 52.1059 96.7943 52.061C96.6392 52.0161 96.4763 52.0036 96.316 52.0242C95.9522 51.9998 95.5909 52.0989 95.2929 52.305C95.1363 52.4372 95.0166 52.6063 94.9451 52.7963H92.3364C92.1729 52.7839 92.0093 52.8188 91.8658 52.8966C91.7045 53.0284 91.5988 53.2142 91.5691 53.418C91.5077 53.6787 91.5691 53.8491 91.6305 53.9494C91.6918 54.0497 91.8453 54.1098 92.0397 54.1098H94.5768L94.4643 54.6513H91.5486C91.3724 54.6343 91.1956 54.6767 91.0473 54.7716C90.8861 54.9034 90.7804 55.0892 90.7507 55.293C90.6995 55.5436 90.7507 55.7241 90.8223 55.8043C90.8662 55.877 90.9293 55.9367 91.0049 55.9773C91.0805 56.0179 91.1658 56.0378 91.2519 56.0349H94.5461L94.3517 56.1553C94.2391 56.2513 94.1455 56.3669 94.0755 56.4962H91.3747C91.2098 56.4822 91.0447 56.5209 90.9041 56.6065C90.7649 56.7155 90.6676 56.8674 90.6279 57.0376C90.5665 57.3184 90.587 57.4989 90.6893 57.5791C90.7347 57.6424 90.7966 57.6925 90.8686 57.7243C90.9406 57.7561 91.02 57.7682 91.0985 57.7596H93.697L93.5742 58.3511C92.5512 58.3511 91.5282 58.4313 90.5051 58.4514C90.307 58.4368 90.1094 58.4861 89.9425 58.5918C89.7806 58.7413 89.6729 58.9384 89.6355 59.1533C89.564 59.3373 89.564 59.5408 89.6355 59.7248C89.7072 59.8652 89.8708 59.9253 90.1573 59.9253C91.8044 59.9253 93.9732 59.8652 96.6638 59.7047C96.5615 59.9053 96.4797 60.0858 96.408 60.2462H92.3159C91.9997 60.2343 91.6907 60.3405 91.4514 60.5434C91.2121 60.7463 91.0604 61.0307 91.0269 61.3391L90.4233 64.1466C90.2596 64.8886 90.546 65.2395 91.3031 65.2395H96.6331C96.4073 65.4214 96.2432 65.6661 96.1625 65.9414H90.9041C89.789 65.9414 89.1547 66.3024 89.0013 67.0644L88.5818 68.8893C88.4795 69.5209 88.8376 69.8919 89.6049 69.8919C89.9315 69.9147 90.2564 69.8278 90.526 69.6455C90.7955 69.4633 90.9939 69.1966 91.0883 68.8893L91.3338 67.7362C91.3363 67.7124 91.3437 67.6894 91.3553 67.6684C91.367 67.6475 91.3829 67.629 91.4019 67.6141C91.4209 67.5991 91.4428 67.5881 91.4662 67.5815C91.4897 67.5749 91.5142 67.573 91.5384 67.5758H95.7942L95.4873 68.9594C95.4106 69.257 95.4507 69.5719 95.5998 69.8418C95.701 69.9982 95.8445 70.1241 96.0142 70.2056C96.1839 70.287 96.3734 70.3207 96.5615 70.303C96.7899 70.3183 97.0188 70.283 97.2313 70.1996C97.4439 70.1163 97.6345 69.9872 97.7891 69.8217C98.0141 69.5782 98.1693 69.2807 98.2393 68.9594L98.5462 67.5758H102.833C102.925 67.5758 102.976 67.5758 102.976 67.656L102.833 68.2676C102.833 68.3278 102.741 68.3478 102.577 68.3478H101.799C101.531 68.3457 101.264 68.3726 101.001 68.428C100.739 68.4728 100.491 68.5757 100.275 68.7288C100.199 68.8212 100.149 68.9321 100.132 69.0497C100.116 69.1493 100.125 69.2512 100.157 69.347C100.189 69.4428 100.243 69.5299 100.316 69.6012C100.559 69.7578 100.844 69.8414 101.134 69.8418C101.474 69.8819 101.816 69.9019 102.158 69.902H103.181C103.712 69.9242 104.238 69.7841 104.684 69.5009C105.105 69.1781 105.381 68.7066 105.452 68.1874L105.636 67.3351C105.84 66.4227 105.37 65.9414 104.275 65.9414H98.8122C98.8452 65.6944 98.7832 65.4442 98.6383 65.2395H104.142C104.469 65.2651 104.794 65.1655 105.047 64.9618C105.301 64.758 105.464 64.4658 105.503 64.1466L106.106 61.3391C106.27 60.6272 105.973 60.2662 105.227 60.2662ZM102.904 63.6854C102.902 63.7189 102.892 63.7516 102.876 63.7814C102.86 63.8111 102.838 63.8372 102.811 63.858C102.784 63.8788 102.753 63.8938 102.72 63.9021C102.686 63.9103 102.652 63.9116 102.618 63.906H93.4105C93.2571 63.906 93.1855 63.8458 93.2162 63.6854L93.3185 63.2141H103.007L102.904 63.6854ZM103.232 62.1914H93.5435L93.6254 61.8204C93.6331 61.7503 93.6685 61.686 93.7239 61.641C93.7793 61.5961 93.8504 61.5741 93.9221 61.5797H103.129C103.293 61.5797 103.354 61.66 103.324 61.8204L103.232 62.1914Z" fill="#040516"/>
<defs>
<clipPath id="clip0">
<rect width="9.13939" height="8.43636" fill="white" transform="translate(99.0364 53.9515)"/>
</clipPath>
</defs>
</svg>
