<svg width="116" height="116" viewBox="0 0 116 116" fill="none" xmlns="http://www.w3.org/2000/svg">
<rect width="116" height="116" fill="white"/>
<path d="M73.6067 97.7096C74.5522 98.0294 75.3737 98.6378 75.9556 99.4492C76.5375 100.261 76.8505 101.234 76.8506 102.233V102.355C76.8506 103.619 76.3497 104.831 75.4577 105.726C74.5658 106.62 73.3556 107.124 72.0928 107.127H59.0277V96.6302L68.7759 101.481V100.48L59.0277 95.6292V94.6281L68.7759 99.479V98.478L59.0277 93.6271V92.6261L68.7759 97.477V96.4678L59.025 91.617V90.616L68.7731 95.4668V94.4658L59.0223 89.615V88.6221L68.7704 93.4729V92.4719L60.374 88.2947H72.0928C73.3552 88.2976 74.5649 88.8013 75.4568 89.6954C76.3487 90.5895 76.8499 91.801 76.8506 93.0644V93.1888C76.8508 94.1874 76.5378 95.1608 75.9558 95.9719C75.3738 96.7829 74.5522 97.3908 73.6067 97.7096Z" fill="#116099"/>
<path d="M38.1718 88.2974H19V89.3525H38.1718V88.2974Z" fill="#116099"/>
<path d="M38.1718 90.3536H19V91.4087H38.1718V90.3536Z" fill="#116099"/>
<path d="M38.1718 92.407H19V93.4621H38.1718V92.407Z" fill="#116099"/>
<path d="M38.1718 94.4604H19V95.5155H38.1718V94.4604Z" fill="#116099"/>
<path d="M38.1718 96.5139H19V97.569H23.7064V107.127H33.4654V97.569H38.1718V96.5139Z" fill="#116099"/>
<path d="M58.1763 99.9119H39.0045V100.967H58.1763V99.9119Z" fill="#116099"/>
<path d="M58.1763 101.965H39.0045V103.02H58.1763V101.965Z" fill="#116099"/>
<path d="M58.1763 104.019H39.0045V105.074H58.1763V104.019Z" fill="#116099"/>
<path d="M58.1763 106.072H39.0045V107.127H58.1763V106.072Z" fill="#116099"/>
<path d="M48.366 97.8558V88.338H39.0045V97.8558V98.8243V98.9136H58.1736V97.8558H48.366Z" fill="#116099"/>
<path d="M93.0948 98.5673L87.2881 101.457V100.453L92.1162 98.0532L91.1132 97.5257L87.2908 99.4195V98.4158L90.1319 97.0089L96.336 93.9247V92.8994L87.2908 97.3958V96.3948L96.3387 91.8957V90.8703L87.2935 95.3667V94.3657L96.3414 89.8639V88.8385L87.2962 93.3377V92.3366L95.425 88.2785H86.9447C84.4492 88.2792 82.0561 89.2716 80.2915 91.0376C78.5269 92.8036 77.5353 95.1986 77.5345 97.6961C77.5345 100.194 78.526 102.589 80.2907 104.355C82.0555 106.122 84.449 107.114 86.9447 107.114H96.3333V100.269L93.0948 98.5673Z" fill="#116099"/>
<path d="M80.0757 48.8819C80.0757 48.8819 78.2213 48.6113 77.0318 48.3408C75.8424 48.0703 69.4977 45.6949 68.3056 42.911C68.9706 42.6404 69.2328 43.1815 71.7442 41.8559C74.1231 40.3976 74.9178 38.8149 75.7099 37.2214C74.2555 37.6191 72.4065 38.5498 70.3033 38.1521C68.0569 37.8816 66.7323 37.3594 65.8077 36.5667C66.6025 36.1663 68.4543 34.7135 69.3788 33.7855C70.1708 32.8603 70.5628 31.6699 70.9575 30.4768C69.5797 31.2358 68.0372 31.6455 66.4646 31.6699C65.6852 31.7023 64.909 31.5532 64.1969 31.2345C63.4848 30.9157 62.8564 30.4359 62.361 29.8329C63.8127 29.4352 64.0803 27.977 64.7372 26.6567C65.1319 26.3862 69.368 26.6567 76.3749 23.0855C83.244 19.5143 87.207 17.001 91.4404 15.1451C88.9291 15.1451 85.6256 16.6006 84.4362 16.863C83.2467 17.1254 70.552 23.2154 67.5135 23.3561C69.1003 20.978 72.5416 17.1336 72.9201 15.9459C71.7307 16.487 68.9571 18.8569 67.3675 19.7876C65.778 20.7183 63.0071 23.2235 63.0071 23.2235L61.6852 23.494L59.0441 24.0351C60.0956 22.9773 61.0256 22.0493 61.6852 20.4613C61.8204 19.9337 61.9555 19.5387 62.0799 19.0084C64.5939 18.4673 67.3675 16.4978 69.4842 15.4345C71.6117 14.4931 77.6941 9.85864 79.0133 8C70.552 13.0294 66.7214 14.4931 61.7122 15.8052L64.3533 8.93067C64.3533 8.93067 63.2991 10.2482 61.7122 11.9743C61.0526 12.7643 60.2578 13.6922 59.4658 14.4849C56.9571 17.396 56.6895 18.0588 55.8974 19.3818C55.4973 19.9229 54.5728 19.9229 52.9887 20.1745C52.0641 20.445 50.872 20.445 49.6825 20.5722C48.9174 20.6714 48.1651 20.8528 47.4388 21.1133C43.4541 22.5553 43.8542 24.1434 43.1892 25.0686C42.2674 25.469 41.7348 25.469 40.2859 26.6675C38.699 27.7254 39.3586 29.1782 39.3586 29.1782C38.4314 29.4487 37.3744 30.3713 36.0525 30.9042C35.686 31.0482 35.3332 31.2248 34.9982 31.4318C34.4575 31.7023 34.2034 32.0892 33.4114 32.2245C32.2219 32.495 31.5569 34.8704 32.2219 35.5332C32.8869 36.1961 34.863 35.6631 34.863 35.6631L34.9982 35.7957L36.3174 37.3838V35.2654L37.5096 36.7182L37.7799 35.0003C37.7799 35.0003 37.5096 34.2103 41.0806 34.2103C44.5192 34.2103 44.9166 34.4808 45.4465 35.2654C45.9763 36.05 44.6463 37.6327 43.6001 38.3009C42.5431 39.0936 40.2994 38.4335 40.2994 38.4335L39.2424 39.3614L37.9178 37.9032L38.0502 39.889L36.8419 38.4281L36.5715 40.5491C36.5715 40.5491 36.0309 40.1514 35.3794 41.074C34.7279 41.9965 35.5118 43.0598 36.1741 43.3222C36.831 43.4575 37.6285 43.1951 40.2723 41.6043C43.0265 40.0812 45.9051 38.795 48.8769 37.7598C49.1473 37.7598 49.4176 37.6218 49.669 37.6218C52.3101 36.9644 58.1303 36.169 58.1303 36.169L56.8057 33.9235C56.676 33.5258 56.5354 34.4646 54.0321 34.9786C53.2933 35.0903 52.5387 35.029 51.8276 34.7994C51.1165 34.5699 50.4683 34.1784 49.9339 33.6557C49.9339 33.6557 51.9182 33.5258 54.0321 33.3851C56.1461 33.2444 57.9979 29.6787 57.9979 29.6787C59.3394 31.7796 60.5746 33.9467 61.6987 36.1717C62.0608 36.8072 62.37 37.4713 62.6232 38.1575C64.3398 42.1237 66.4538 51.7848 64.0803 60.913C63.5142 63.0674 62.7156 65.1538 61.6987 67.1355C59.3225 71.6346 56.5435 73.8991 53.8997 76.1338C56.4138 76.0039 59.3225 74.0235 61.6987 71.9025C63.8127 70.0519 65.6644 67.9363 66.9864 66.4781C67.9109 66.6133 68.9706 68.729 69.4977 70.4496C70.0249 68.729 70.552 67.6685 70.4223 65.0388C70.4223 62.5254 69.368 60.9373 68.7057 58.8163C71.3781 59.9229 74.2994 60.2874 77.1616 59.8714C77.1616 59.8714 74.5205 57.7557 72.5416 55.7699C70.671 53.9086 69.6275 50.9921 69.5085 50.6458C69.4653 50.6215 69.5085 50.6134 69.5085 50.6134C69.508 50.6242 69.508 50.635 69.5085 50.6458C69.6194 50.7081 70.2168 50.8569 73.0688 51.1409C77.0318 51.6577 80.0757 48.8819 80.0757 48.8819ZM50.3394 26.2563C50.0691 26.3889 49.9421 26.5268 49.6771 26.5268C49.0202 26.6594 48.485 26.5268 48.3579 26.2563C48.2309 25.9858 48.0876 25.2012 49.5447 24.7981H49.6771C50.9963 24.5275 51.1315 24.6709 51.1315 24.6709C51.1315 24.6709 51.1234 25.7314 50.3313 26.2563H50.3394Z" fill="#116099"/>
<path d="M30.2349 44.1257C30.3674 44.1257 30.3674 43.9878 30.5053 43.8552C32.6219 41.2093 33.2788 40.1514 34.8684 39.0936C35.0036 38.9638 35.1387 38.8231 35.2658 38.6986C36.2834 38.167 37.3442 37.7226 38.4367 37.3702C38.4367 37.3702 37.1148 37.6408 36.0632 37.7707C35.787 37.7661 35.5121 37.8119 35.2523 37.9059C33.9785 38.3155 32.8064 38.9915 31.8137 39.889C31.2548 40.4333 30.7252 41.0067 30.2268 41.607C29.3023 42.5322 28.3778 43.7253 27.1883 44.7859C25.5474 46.4281 22.7603 47.4426 22.1575 47.6536C22.5467 47.5887 23.7578 47.6536 24.6769 47.2992C26.2719 46.7744 28.1237 46.6391 30.2349 44.1257Z" fill="#116099"/>
<path d="M91.8377 80.4868C86.5501 79.0313 85.6201 80.2163 84.5659 79.6941C85.0706 78.7981 85.8632 78.0992 86.815 77.7111C87.8693 77.3134 91.1754 76.9157 91.7026 77.5758C92.2297 78.2359 92.2297 78.501 91.8377 79.2964C92.2297 79.2964 93.9517 78.501 93.9517 77.0482C94.0815 75.59 92.6298 75.1923 89.986 75.3276C87.3422 75.4628 83.3764 76.5207 81.922 77.5758C80.4677 78.6309 78.3537 80.6167 75.1773 81.0144C73.0687 81.2849 67.9108 82.2048 61.6986 81.2849C58.048 80.8141 54.5112 79.6926 51.2558 77.9735C50.7151 78.244 50.1961 78.5146 49.6689 78.7716C45.1393 81.0572 40.0295 81.9326 34.9981 81.2849C33.2901 81.1116 31.6049 80.7598 29.97 80.2352C29.578 80.1 29.3131 80.1 28.9157 79.9647C29.3002 79.6951 29.6537 79.3839 29.97 79.0367C31.2946 77.9762 33.0112 76.6559 34.9981 74.938C37.7552 72.4918 40.2734 69.7886 42.5187 66.8649C43.8433 65.1416 46.2222 62.2305 47.4144 59.9823C48.2834 58.1832 49.033 56.3286 49.6581 54.4307C52.5669 45.96 50.8476 41.5907 50.1988 39.2127C50.069 40.403 49.9285 41.5907 49.6581 43.049C49.1175 45.822 48.0713 49.2715 45.6897 53.4974C43.7217 56.8061 39.3586 61.2971 34.9981 65.5393C33.2788 67.3925 31.5568 69.1105 29.97 70.6986C28.4368 72.2099 26.9823 73.7992 25.6123 75.4601C21.1167 81.2822 20.2057 81.2822 19 87.3641C20.0597 84.9806 22.5711 83.9254 28.1209 84.5829H29.97C31.2946 84.7154 33.0112 84.7154 34.9981 84.7154C39.0909 84.8453 44.3786 84.8453 49.6689 84.8453C53.8996 84.7154 57.9978 84.7154 61.6986 84.7154C67.2539 84.7154 71.4819 84.7154 72.6659 84.8453C76.3749 85.2484 77.4319 86.0411 77.8319 88.0242C79.4134 86.3062 80.865 85.381 83.909 84.8453C86.9529 84.3096 89.1966 85.776 87.6044 88.2893C89.3264 86.7012 90.7781 85.6407 89.8535 84.3177C88.929 82.8649 86.815 82.6052 85.7553 82.7378C87.207 82.4672 88.4018 81.9397 90.3834 82.6052C92.4973 83.2626 95.6683 84.058 92.8947 87.1043C94.3491 86.7012 96.0657 85.6407 96.3333 84.3177V83.525C96.1982 82.4726 94.8763 81.4121 91.8377 80.4868Z" fill="#116099"/>
</svg>
