<svg width="116" height="116" viewBox="0 0 116 116" fill="none" xmlns="http://www.w3.org/2000/svg">
<rect width="116" height="116" fill="white"/>
<path d="M19 61.8229V65.9687L26.0778 60.7883L19 61.8229Z" fill="#231815"/>
<path d="M19 71.2481V77.5772L29.7855 69.6582L19 71.2481Z" fill="#231815"/>
<path d="M31.6125 69.3843L19 78.6497V87.6261H20.7579L49.5295 66.7447L31.6125 69.3843Z" fill="#231815"/>
<path d="M19 11V13.845L28.8797 12.3845C28.9719 12.3767 29.0641 12.3981 29.1432 12.4456C29.2224 12.493 29.2843 12.5641 29.3201 12.6486C29.3559 12.7331 29.3638 12.8267 29.3426 12.9159C29.3214 13.0051 29.2722 13.0854 29.2021 13.1452L19 20.6458V23.2626L32.5875 21.2619C32.6838 21.2431 32.7837 21.2588 32.8695 21.3062C32.9552 21.3535 33.0212 21.4295 33.0557 21.5206C33.0925 21.6088 33.0989 21.7065 33.0739 21.7987C33.0489 21.8908 32.994 21.9722 32.9175 22.0303L19 32.239V32.6878L36.3029 30.1394C36.3987 30.1263 36.4962 30.1444 36.5807 30.1911C36.6652 30.2377 36.7321 30.3104 36.7712 30.398C36.8079 30.4857 36.8135 30.5832 36.787 30.6744C36.7605 30.7657 36.7035 30.8452 36.6253 30.9001L22.0706 41.6109L39.8878 38.9484C39.9836 38.9353 40.0812 38.9534 40.1656 39.0001C40.2501 39.0467 40.317 39.1194 40.3561 39.207C40.3956 39.2948 40.4035 39.3934 40.3783 39.4862C40.3532 39.579 40.2965 39.6604 40.2179 39.7167L25.5174 50.5568L43.7261 47.8715C43.8204 47.8578 43.9167 47.8756 43.9997 47.922C44.0828 47.9684 44.1479 48.0409 44.1848 48.128C44.2217 48.2152 44.2284 48.312 44.2037 48.4032C44.179 48.4945 44.1244 48.5751 44.0485 48.6322L29.3787 59.4267L47.4032 56.7642C47.4975 56.7505 47.5938 56.7682 47.6768 56.8147C47.7598 56.8611 47.8249 56.9336 47.8619 57.0207C47.8988 57.1078 47.9054 57.2046 47.8808 57.2959C47.8561 57.3872 47.8015 57.4677 47.7256 57.5249L33.0941 68.2965L51.1416 65.6416C51.236 65.6279 51.3322 65.6457 51.4153 65.6921C51.4983 65.7386 51.5634 65.8111 51.6003 65.8982C51.6373 65.9853 51.6439 66.0821 51.6192 66.1734C51.5946 66.2646 51.54 66.3452 51.464 66.4024L22.2318 87.6261H96.3333V11H19Z" fill="#231815"/>
<path d="M27.9048 60.5069L19 67.0414V70.3809L31.2671 68.5704L45.8448 57.8672L27.9048 60.5069Z" fill="#231815"/>
<path d="M19 52.3977V54.3147L22.2318 51.9261L19 52.3977Z" fill="#231815"/>
<path d="M19 14.7123V19.5732L27.2983 13.4875L19 14.7123Z" fill="#231815"/>
<path d="M19 24.1298V31.174L30.9984 22.365L19 24.1298Z" fill="#231815"/>
<path d="M24.0512 51.6598L19 55.3873V60.9481L27.5517 59.6929L42.1294 48.9897L24.0512 51.6598Z" fill="#231815"/>
<path d="M20.5507 42.7063L19 43.8474V51.5381L23.7057 50.8383L38.2758 40.059L20.5507 42.7063Z" fill="#231815"/>
<path d="M19 33.555V42.0673L20.2052 41.8848L34.7139 31.2424L19 33.555Z" fill="#231815"/>
<path d="M21.0419 91.7415L23.5905 92.2892L22.8766 92.738V104.597L21.0419 105.206V91.7415Z" fill="#231815"/>
<path d="M19.0458 95.7657H23.3062L24.2735 94.8756L25.3559 96.1764H19.4066L19.0458 95.7657Z" fill="#231815"/>
<path d="M32.3341 91.4297C33.0716 91.4281 33.7949 91.631 34.4221 92.0154C34.4221 92.0154 35.1053 93.0804 33.8541 93.0804C33.6745 93.1101 33.4903 93.0708 33.339 92.9704C33.1878 92.87 33.0809 92.7161 33.0403 92.5403C33.031 92.3101 32.9609 92.0864 32.8369 91.8915C32.713 91.6966 32.5396 91.5373 32.3341 91.4297Z" fill="#231815"/>
<path d="M31.3747 95.6287H33.5855V96.96H31.3747V95.6287ZM31.3747 97.3099H33.5855V98.4814H31.3747V97.3099ZM27.3675 95.6287H29.5476V96.96H27.3675V95.6287ZM27.3675 97.3099H29.5476V98.4814H27.3675V97.3099ZM33.3859 95.2408H31.3747V93.9171H36.7482L35.5584 92.6392L34.6679 93.5292H31.3747V92.7685L32.0041 92.3273L29.5476 92.0002V93.5216H24.65L25.1413 93.9171H29.563V95.2484H27.3675L25.5635 94.7311V100.155L27.3675 99.6377V98.877H29.5476V100.132L31.3747 99.6149V98.8541H33.5855V99.6149L35.3741 99.0976V96.1993L35.9652 95.6972L34.1152 94.8072L33.3859 95.2408Z" fill="#231815"/>
<path d="M24.4503 100.71H31.8658V99.554L34.1688 99.98L33.6391 100.391V100.71H34.4605L35.4354 99.767L36.7021 101.121H33.6314V103.806C33.6314 103.806 34.0076 104.963 31.3669 105.138C31.3669 105.138 31.0598 105.29 30.9677 104.795C30.8641 104.485 30.6745 104.21 30.4207 104.002C30.1668 103.793 29.859 103.66 29.5322 103.616C28.7645 103.434 31.4667 103.616 31.4667 103.616C31.4667 103.616 31.8582 103.616 31.8582 103.152V101.159H24.8802L24.4503 100.71Z" fill="#231815"/>
<path d="M26.1929 101.562C26.1929 101.562 28.8029 101.562 29.0716 103.084C29.0803 103.203 29.0635 103.323 29.0222 103.436C28.981 103.548 28.9162 103.651 28.8322 103.737C28.7482 103.823 28.6467 103.891 28.5345 103.936C28.4224 103.98 28.3019 104.001 28.1811 103.997C28.0576 104.014 27.9319 104.003 27.8129 103.966C27.694 103.93 27.5847 103.867 27.4929 103.784C27.4012 103.7 27.3293 103.597 27.2824 103.483C27.2355 103.368 27.2147 103.245 27.2215 103.122C27.1911 102.803 27.0811 102.498 26.9015 102.232C26.7219 101.966 26.4784 101.749 26.1929 101.6" fill="#231815"/>
<path d="M39.6882 93.377H44.3095L45.3842 92.4185L46.7276 93.7498H40.1181L39.6882 93.377Z" fill="#231815"/>
<path d="M42.7973 97.7207H44.3863V102.232H42.7973V97.7207ZM44.8622 96.96L44.2097 97.3936H42.2138C43.0174 96.2289 43.6289 94.9451 44.0255 93.59H42.1831C41.6765 97.8956 39.504 99.5007 39.504 99.5007C40.1274 99.3494 40.6847 99.0025 41.0931 98.5118V104.704L42.828 104.346V102.582H44.4093V103.806L46.1058 103.403V98.101L46.7123 97.6903L44.8622 96.96Z" fill="#231815"/>
<path d="M49.5756 95.5679H54.1815V97.2567H49.5756V95.5679ZM49.5756 97.5838H54.1815V99.2421H49.5756V97.5838ZM49.5756 99.6149H54.1815V101.296H49.5756V99.6149ZM53.8284 95.218H51.2414C52.0857 94.7874 52.7788 94.1138 53.2297 93.2858H57.4978L55.5863 91.8404L54.312 92.9434H46.7123L47.2189 93.2858H51.1186C51.1746 93.958 51.0248 94.6314 50.6887 95.218H49.5756L47.764 94.6246V102.536L49.5756 102.049V101.623H54.1815V102.437L56.0086 101.897V95.933L56.6073 95.5299L54.6882 94.5866L53.8284 95.218Z" fill="#231815"/>
<path d="M50.2434 102.285L51.9553 103.601H51.0802C51.0802 103.601 49.2839 104.757 45.1309 105.008C47.0501 104.57 48.8156 103.629 50.2434 102.285Z" fill="#231815"/>
<path d="M52.5847 102.475C52.5847 102.475 57.1906 102.939 57.1906 104.133C57.1906 104.133 57.3058 104.894 56.3692 104.894C56.2351 104.921 56.0961 104.91 55.9683 104.861C55.8406 104.813 55.7293 104.729 55.6476 104.62C54.8321 103.656 53.7723 102.923 52.577 102.498" fill="#231815"/>
<path d="M67.4849 91.9013L69.7879 92.3425L69.3273 92.738V94.7996H73.7797L74.9772 93.6965L76.8349 95.1495H73.227C73.227 95.1495 72.6973 103.73 60.0617 104.658C60.0617 104.658 70.4327 102.452 71.446 95.1495H60.507L59.9159 94.7996H67.4849V91.9013Z" fill="#231815"/>
<path d="M64.2915 94.9669H64.6677C64.6677 94.9669 64.7367 102.026 76.9501 103.456C76.5791 103.482 76.2271 103.629 75.9493 103.874C75.6715 104.119 75.4835 104.448 75.4148 104.81C75.4148 104.81 66.3258 104.97 64.3145 94.9669" fill="#231815"/>
<path d="M82.93 95.1875L84.473 95.8418L83.9664 96.2449V104.559L82.17 105.1V96.1917L82.93 95.1875Z" fill="#231815"/>
<path d="M83.2986 91.8708L85.7858 92.738L85.0796 92.9434C85.0796 92.9434 82.5233 98.0097 78.8693 99.1888C78.8693 99.1888 82.1164 96.998 83.337 91.8708" fill="#231815"/>
<path d="M93.9306 94.1606L95.7653 95.4386H95.1051C93.1701 97.0813 90.85 98.2165 88.3574 98.74C90.5563 97.6651 92.4763 96.1034 93.969 94.1758" fill="#231815"/>
<path d="M87.183 92.0762L89.5627 92.4946L88.9563 93.0651V102.886C88.9563 102.886 88.9563 103.228 89.294 103.243C90.8073 103.443 92.3406 103.443 93.8539 103.243C93.8539 103.243 94.6906 103.434 95.0975 100.885C95.0975 100.885 95.3124 103.091 95.7116 103.167C95.7116 103.167 96.7786 103.784 95.7116 104.248C93.5016 104.788 91.205 104.887 88.9563 104.537C88.9563 104.537 87.183 104.537 87.183 103.243V92.0762Z" fill="#231815"/>
</svg>
