<svg width="1717" height="956" viewBox="0 0 1717 956" fill="none" xmlns="http://www.w3.org/2000/svg">
<g style="mix-blend-mode:color-dodge" opacity="0.66">
<g style="mix-blend-mode:color-dodge" opacity="0.66">
<path d="M480.978 415.96C480.494 415.962 480.023 416.108 479.622 416.381C479.221 416.654 478.91 417.04 478.726 417.492C478.543 417.943 478.496 418.439 478.591 418.918C478.686 419.396 478.92 419.836 479.262 420.18C479.605 420.524 480.04 420.759 480.514 420.853C480.988 420.948 481.479 420.898 481.925 420.711C482.371 420.524 482.752 420.207 483.021 419.801C483.289 419.395 483.432 418.918 483.432 418.43C483.429 417.774 483.17 417.146 482.71 416.683C482.25 416.22 481.627 415.96 480.978 415.96Z" fill="#9AD8D0"/>
</g>
</g>
<g style="mix-blend-mode:color-dodge" opacity="0.47">
<g style="mix-blend-mode:color-dodge" opacity="0.47">
<path d="M1226.07 524.67C1225.58 524.67 1225.11 524.816 1224.7 525.089C1224.3 525.362 1223.98 525.749 1223.8 526.203C1223.61 526.657 1223.56 527.156 1223.66 527.637C1223.76 528.119 1223.99 528.561 1224.33 528.907C1224.68 529.254 1225.12 529.489 1225.59 529.583C1226.07 529.678 1226.56 529.628 1227.01 529.438C1227.46 529.249 1227.84 528.93 1228.11 528.52C1228.38 528.111 1228.52 527.631 1228.52 527.14C1228.52 526.484 1228.26 525.856 1227.8 525.393C1227.34 524.93 1226.72 524.67 1226.07 524.67Z" fill="#9AD8D0"/>
</g>
</g>
<g style="mix-blend-mode:color-dodge" opacity="0.46">
<g style="mix-blend-mode:color-dodge" opacity="0.46">
<path d="M1291.15 530.56C1290.66 530.56 1290.19 530.706 1289.78 530.979C1289.38 531.252 1289.07 531.64 1288.88 532.093C1288.69 532.547 1288.65 533.046 1288.74 533.528C1288.84 534.009 1289.07 534.451 1289.42 534.797C1289.76 535.144 1290.2 535.379 1290.68 535.474C1291.15 535.568 1291.65 535.518 1292.09 535.328C1292.54 535.139 1292.93 534.82 1293.19 534.411C1293.46 534.001 1293.6 533.521 1293.6 533.03C1293.6 532.705 1293.54 532.383 1293.42 532.083C1293.29 531.782 1293.11 531.509 1292.88 531.28C1292.66 531.05 1292.38 530.869 1292.09 530.745C1291.79 530.622 1291.47 530.559 1291.15 530.56Z" fill="#9AD8D0"/>
</g>
</g>
<g style="mix-blend-mode:color-dodge" opacity="0.56">
<g style="mix-blend-mode:color-dodge" opacity="0.56">
<path d="M1285.61 593.97C1285.12 593.968 1284.64 594.112 1284.24 594.383C1283.83 594.654 1283.52 595.041 1283.33 595.494C1283.14 595.947 1283.09 596.446 1283.19 596.928C1283.28 597.409 1283.51 597.852 1283.86 598.2C1284.2 598.548 1284.64 598.785 1285.11 598.882C1285.59 598.978 1286.08 598.93 1286.53 598.742C1286.98 598.555 1287.37 598.237 1287.64 597.829C1287.91 597.421 1288.05 596.941 1288.05 596.45C1288.05 595.794 1287.79 595.165 1287.34 594.7C1286.88 594.235 1286.26 593.973 1285.61 593.97Z" fill="#9AD8D0"/>
</g>
</g>
<g style="mix-blend-mode:color-dodge" opacity="0.38">
<g style="mix-blend-mode:color-dodge" opacity="0.38">
<path d="M602.59 379.56C602.104 379.558 601.628 379.702 601.223 379.974C600.818 380.246 600.502 380.633 600.315 381.086C600.128 381.54 600.078 382.039 600.173 382.521C600.267 383.003 600.501 383.446 600.845 383.794C601.189 384.141 601.627 384.378 602.104 384.473C602.581 384.568 603.075 384.518 603.524 384.329C603.973 384.14 604.356 383.821 604.625 383.412C604.894 383.002 605.037 382.521 605.035 382.03C605.032 381.376 604.774 380.749 604.316 380.286C603.858 379.824 603.238 379.563 602.59 379.56Z" fill="#9AD8D0"/>
</g>
</g>
<g style="mix-blend-mode:color-dodge" opacity="0.9">
<g style="mix-blend-mode:color-dodge" opacity="0.9">
<path d="M435.254 507.25C434.771 507.252 434.299 507.399 433.898 507.671C433.498 507.944 433.186 508.33 433.002 508.782C432.819 509.233 432.772 509.729 432.867 510.208C432.963 510.686 433.196 511.126 433.539 511.47C433.881 511.814 434.316 512.049 434.79 512.143C435.264 512.238 435.755 512.188 436.201 512.001C436.648 511.814 437.029 511.497 437.297 511.091C437.565 510.685 437.708 510.208 437.708 509.72C437.708 509.395 437.645 509.073 437.521 508.772C437.398 508.472 437.217 508.199 436.989 507.97C436.761 507.74 436.49 507.559 436.192 507.435C435.895 507.312 435.576 507.249 435.254 507.25Z" fill="#9AD8D0"/>
</g>
</g>
<g style="mix-blend-mode:color-dodge" opacity="0.75">
<g style="mix-blend-mode:color-dodge" opacity="0.75">
<path d="M287.127 577.41C286.641 577.41 286.166 577.556 285.762 577.829C285.358 578.102 285.044 578.489 284.858 578.943C284.673 579.397 284.625 579.896 284.72 580.377C284.816 580.859 285.051 581.301 285.395 581.647C285.739 581.994 286.177 582.229 286.654 582.323C287.131 582.418 287.625 582.368 288.073 582.178C288.521 581.989 288.904 581.67 289.172 581.26C289.441 580.851 289.583 580.371 289.581 579.88C289.579 579.224 289.319 578.596 288.859 578.133C288.399 577.67 287.776 577.41 287.127 577.41Z" fill="#9AD8D0"/>
</g>
</g>
<g style="mix-blend-mode:color-dodge" opacity="0.65">
<g style="mix-blend-mode:color-dodge" opacity="0.65">
<path d="M206.961 388.86C206.476 388.858 206 389.002 205.595 389.273C205.19 389.544 204.874 389.931 204.687 390.384C204.499 390.837 204.449 391.336 204.543 391.818C204.637 392.299 204.87 392.742 205.212 393.09C205.555 393.438 205.993 393.675 206.469 393.772C206.945 393.868 207.439 393.819 207.888 393.632C208.338 393.445 208.721 393.127 208.992 392.719C209.262 392.311 209.406 391.831 209.406 391.34C209.406 390.684 209.149 390.055 208.691 389.59C208.232 389.125 207.611 388.863 206.961 388.86Z" fill="#9AD8D0"/>
</g>
</g>
<g style="mix-blend-mode:color-dodge" opacity="0.46">
<g style="mix-blend-mode:color-dodge" opacity="0.46">
<path d="M994.261 325.36C993.777 325.36 993.305 325.505 992.903 325.776C992.501 326.048 992.187 326.433 992.002 326.885C991.817 327.336 991.769 327.833 991.863 328.312C991.958 328.791 992.19 329.231 992.532 329.576C992.874 329.922 993.31 330.157 993.784 330.252C994.258 330.348 994.75 330.299 995.196 330.112C995.643 329.925 996.025 329.608 996.293 329.202C996.562 328.796 996.705 328.318 996.705 327.83C996.707 327.505 996.644 327.183 996.522 326.883C996.4 326.583 996.22 326.31 995.992 326.08C995.765 325.851 995.495 325.669 995.198 325.545C994.901 325.422 994.582 325.359 994.261 325.36Z" fill="#9AD8D0"/>
</g>
</g>
<g style="mix-blend-mode:color-dodge" opacity="0.1">
<g style="mix-blend-mode:color-dodge" opacity="0.1">
<path d="M1379.37 355.69C1378.88 355.688 1378.41 355.832 1378 356.103C1377.6 356.374 1377.28 356.761 1377.09 357.214C1376.91 357.667 1376.86 358.166 1376.95 358.648C1377.04 359.129 1377.28 359.572 1377.62 359.92C1377.96 360.268 1378.4 360.505 1378.88 360.602C1379.35 360.698 1379.85 360.65 1380.3 360.462C1380.75 360.275 1381.13 359.957 1381.4 359.549C1381.67 359.141 1381.81 358.661 1381.81 358.17C1381.81 357.514 1381.56 356.885 1381.1 356.42C1380.64 355.955 1380.02 355.693 1379.37 355.69Z" fill="#9AD8D0"/>
</g>
</g>
<g style="mix-blend-mode:color-dodge" opacity="0.13">
<g style="mix-blend-mode:color-dodge" opacity="0.13">
<path d="M1439.03 373.15C1438.54 373.15 1438.07 373.295 1437.67 373.566C1437.27 373.838 1436.95 374.223 1436.77 374.675C1436.58 375.126 1436.54 375.623 1436.63 376.102C1436.72 376.581 1436.96 377.021 1437.3 377.366C1437.64 377.712 1438.08 377.947 1438.55 378.042C1439.02 378.138 1439.52 378.089 1439.96 377.902C1440.41 377.715 1440.79 377.398 1441.06 376.992C1441.33 376.586 1441.47 376.108 1441.47 375.62C1441.47 374.965 1441.21 374.337 1440.76 373.873C1440.3 373.41 1439.68 373.15 1439.03 373.15Z" fill="#9AD8D0"/>
</g>
</g>
<g style="mix-blend-mode:color-dodge" opacity="0.87">
<g style="mix-blend-mode:color-dodge" opacity="0.87">
<path d="M1500.35 612.28C1499.87 612.282 1499.39 612.429 1498.99 612.701C1498.59 612.974 1498.28 613.36 1498.1 613.812C1497.91 614.263 1497.87 614.76 1497.96 615.238C1498.06 615.717 1498.29 616.156 1498.63 616.5C1498.98 616.845 1499.41 617.079 1499.89 617.173C1500.36 617.268 1500.85 617.218 1501.3 617.031C1501.74 616.844 1502.12 616.527 1502.39 616.121C1502.66 615.715 1502.8 615.238 1502.8 614.75C1502.8 614.425 1502.74 614.103 1502.62 613.803C1502.49 613.502 1502.31 613.229 1502.08 613C1501.86 612.77 1501.59 612.589 1501.29 612.465C1500.99 612.342 1500.67 612.279 1500.35 612.28Z" fill="#9AD8D0"/>
</g>
</g>
<g style="mix-blend-mode:color-dodge" opacity="0.7">
<g style="mix-blend-mode:color-dodge" opacity="0.7">
<path d="M1373.07 634.87C1372.59 634.868 1372.11 635.012 1371.71 635.284C1371.3 635.556 1370.99 635.943 1370.8 636.396C1370.61 636.85 1370.56 637.349 1370.66 637.832C1370.75 638.314 1370.99 638.756 1371.33 639.104C1371.67 639.451 1372.11 639.688 1372.59 639.783C1373.07 639.878 1373.56 639.828 1374.01 639.639C1374.46 639.45 1374.84 639.131 1375.11 638.722C1375.38 638.312 1375.52 637.832 1375.52 637.34C1375.52 636.686 1375.26 636.059 1374.8 635.597C1374.34 635.134 1373.72 634.873 1373.07 634.87Z" fill="#9AD8D0"/>
</g>
</g>
<g style="mix-blend-mode:color-dodge" opacity="0.98">
<g style="mix-blend-mode:color-dodge" opacity="0.98">
<path d="M382.048 582.94C381.562 582.938 381.086 583.082 380.682 583.353C380.277 583.624 379.96 584.011 379.773 584.464C379.586 584.917 379.536 585.416 379.629 585.898C379.723 586.379 379.956 586.822 380.299 587.17C380.642 587.518 381.079 587.755 381.555 587.852C382.032 587.948 382.526 587.9 382.975 587.712C383.424 587.525 383.808 587.207 384.078 586.799C384.348 586.391 384.492 585.911 384.492 585.42C384.492 584.764 384.235 584.135 383.777 583.67C383.319 583.205 382.697 582.943 382.048 582.94Z" fill="#9AD8D0"/>
</g>
</g>
<g style="mix-blend-mode:color-dodge" opacity="0.48">
<g style="mix-blend-mode:color-dodge" opacity="0.48">
<path d="M239.621 660.77C239.135 660.768 238.66 660.912 238.255 661.183C237.85 661.454 237.534 661.841 237.347 662.294C237.159 662.747 237.109 663.246 237.203 663.728C237.297 664.209 237.53 664.652 237.872 665C238.215 665.348 238.653 665.585 239.129 665.682C239.605 665.778 240.099 665.73 240.548 665.542C240.997 665.355 241.381 665.037 241.652 664.629C241.922 664.221 242.066 663.741 242.066 663.25C242.066 662.594 241.809 661.965 241.35 661.5C240.892 661.035 240.271 660.773 239.621 660.77Z" fill="#9AD8D0"/>
</g>
</g>
<g style="mix-blend-mode:color-dodge">
<path d="M26.2839 194.75C25.7981 194.748 25.3225 194.892 24.9176 195.163C24.5127 195.434 24.1966 195.821 24.0093 196.274C23.822 196.727 23.772 197.226 23.8655 197.708C23.9591 198.189 24.1921 198.632 24.535 198.98C24.8778 199.328 25.3151 199.565 25.7915 199.662C26.2679 199.758 26.7619 199.71 27.211 199.522C27.6601 199.335 28.044 199.017 28.3141 198.609C28.5842 198.201 28.7285 197.721 28.7285 197.23C28.7285 196.574 28.4712 195.945 28.0131 195.48C27.5549 195.015 26.9332 194.753 26.2839 194.75Z" fill="#9AD8D0"/>
</g>
<g style="mix-blend-mode:color-dodge" opacity="0.81">
<g style="mix-blend-mode:color-dodge" opacity="0.81">
<path d="M523.584 282.4C523.098 282.398 522.622 282.542 522.217 282.813C521.813 283.084 521.496 283.471 521.309 283.924C521.122 284.377 521.072 284.876 521.165 285.358C521.259 285.839 521.492 286.282 521.835 286.63C522.178 286.978 522.615 287.215 523.091 287.312C523.568 287.408 524.062 287.359 524.511 287.172C524.96 286.985 525.344 286.667 525.614 286.259C525.884 285.851 526.028 285.371 526.028 284.88C526.028 284.224 525.771 283.595 525.313 283.13C524.855 282.665 524.233 282.403 523.584 282.4Z" fill="#9AD8D0"/>
</g>
</g>
<g style="mix-blend-mode:color-dodge">
<path d="M1079.87 134.19C1079.38 134.188 1078.91 134.332 1078.5 134.604C1078.1 134.875 1077.78 135.263 1077.59 135.716C1077.41 136.17 1077.36 136.669 1077.45 137.151C1077.55 137.633 1077.78 138.076 1078.12 138.424C1078.47 138.771 1078.91 139.007 1079.38 139.103C1079.86 139.198 1080.35 139.148 1080.8 138.959C1081.25 138.77 1081.63 138.451 1081.9 138.042C1082.17 137.632 1082.32 137.151 1082.31 136.66C1082.31 136.006 1082.05 135.379 1081.59 134.916C1081.14 134.454 1080.52 134.193 1079.87 134.19Z" fill="#9AD8D0"/>
</g>
<g style="mix-blend-mode:color-dodge" opacity="0.08">
<g style="mix-blend-mode:color-dodge" opacity="0.08">
<path d="M1462.88 293.79C1462.39 293.788 1461.92 293.932 1461.51 294.203C1461.11 294.474 1460.79 294.861 1460.6 295.314C1460.42 295.767 1460.37 296.266 1460.46 296.748C1460.55 297.229 1460.79 297.672 1461.13 298.02C1461.47 298.368 1461.91 298.605 1462.39 298.702C1462.86 298.798 1463.36 298.75 1463.81 298.562C1464.26 298.375 1464.64 298.057 1464.91 297.649C1465.18 297.241 1465.32 296.761 1465.32 296.27C1465.32 295.614 1465.07 294.985 1464.61 294.52C1464.15 294.055 1463.53 293.793 1462.88 293.79Z" fill="#9AD8D0"/>
</g>
</g>
<g style="mix-blend-mode:color-dodge" opacity="0.94">
<g style="mix-blend-mode:color-dodge" opacity="0.94">
<path d="M1621.94 430.15C1621.46 430.15 1620.98 430.295 1620.58 430.568C1620.18 430.84 1619.86 431.228 1619.67 431.681C1619.49 432.134 1619.44 432.633 1619.54 433.114C1619.63 433.595 1619.86 434.037 1620.21 434.383C1620.55 434.73 1620.99 434.967 1621.46 435.062C1621.94 435.158 1622.43 435.109 1622.88 434.921C1623.33 434.733 1623.71 434.416 1623.98 434.008C1624.25 433.6 1624.4 433.12 1624.4 432.63C1624.4 431.972 1624.14 431.341 1623.68 430.876C1623.22 430.411 1622.59 430.15 1621.94 430.15Z" fill="#9AD8D0"/>
</g>
</g>
<g style="mix-blend-mode:color-dodge">
<path d="M1661.89 434.24C1661.4 434.24 1660.93 434.385 1660.53 434.656C1660.13 434.928 1659.81 435.313 1659.63 435.765C1659.44 436.216 1659.39 436.713 1659.49 437.192C1659.58 437.671 1659.82 438.111 1660.16 438.457C1660.5 438.802 1660.93 439.037 1661.41 439.133C1661.88 439.228 1662.37 439.179 1662.82 438.992C1663.27 438.805 1663.65 438.488 1663.92 438.082C1664.19 437.676 1664.33 437.199 1664.33 436.71C1664.33 436.055 1664.07 435.427 1663.61 434.963C1663.16 434.5 1662.53 434.24 1661.89 434.24Z" fill="#9AD8D0"/>
</g>
<g style="mix-blend-mode:color-dodge" opacity="0.55">
<g style="mix-blend-mode:color-dodge" opacity="0.55">
<path d="M1548.19 169.04C1547.7 169.038 1547.23 169.182 1546.82 169.454C1546.42 169.726 1546.1 170.113 1545.91 170.566C1545.73 171.02 1545.68 171.519 1545.77 172.001C1545.87 172.483 1546.1 172.926 1546.45 173.274C1546.79 173.621 1547.23 173.858 1547.7 173.953C1548.18 174.048 1548.68 173.998 1549.12 173.809C1549.57 173.62 1549.96 173.301 1550.23 172.892C1550.49 172.482 1550.64 172.001 1550.64 171.51C1550.64 170.855 1550.38 170.227 1549.92 169.764C1549.46 169.3 1548.84 169.04 1548.19 169.04Z" fill="#9AD8D0"/>
</g>
</g>
<g style="mix-blend-mode:color-dodge">
<path d="M933.909 30.23C933.423 30.228 932.948 30.3718 932.543 30.6431C932.138 30.9144 931.822 31.301 931.634 31.754C931.447 32.207 931.397 32.7059 931.491 33.1877C931.584 33.6694 931.817 34.1122 932.16 34.4601C932.503 34.8079 932.94 35.0451 933.417 35.1416C933.893 35.2381 934.387 35.1896 934.836 35.0022C935.285 34.8148 935.669 34.4969 935.939 34.0889C936.209 33.6808 936.354 33.2009 936.354 32.71C936.354 32.054 936.096 31.4247 935.638 30.9599C935.18 30.4951 934.558 30.2326 933.909 30.23Z" fill="#9AD8D0"/>
</g>
<g style="mix-blend-mode:color-dodge">
<path d="M621.583 4.94C622.933 4.94 624.027 3.83414 624.027 2.47C624.027 1.10586 622.933 0 621.583 0C620.232 0 619.138 1.10586 619.138 2.47C619.138 3.83414 620.232 4.94 621.583 4.94Z" fill="#9AD8D0"/>
</g>
<g style="mix-blend-mode:color-dodge" opacity="0.84">
<g style="mix-blend-mode:color-dodge" opacity="0.84">
<path d="M327.882 582.47C327.396 582.468 326.92 582.612 326.515 582.884C326.11 583.156 325.793 583.543 325.606 583.996C325.419 584.45 325.37 584.949 325.464 585.431C325.559 585.913 325.793 586.356 326.137 586.704C326.48 587.051 326.919 587.287 327.396 587.383C327.873 587.478 328.367 587.428 328.816 587.239C329.265 587.05 329.648 586.731 329.917 586.322C330.186 585.912 330.329 585.431 330.327 584.94C330.324 584.286 330.066 583.659 329.608 583.196C329.15 582.734 328.53 582.473 327.882 582.47Z" fill="#9AD8D0"/>
</g>
</g>
<g style="mix-blend-mode:color-dodge" opacity="0.21">
<g style="mix-blend-mode:color-dodge" opacity="0.21">
<path d="M160.832 790.79C160.346 790.788 159.871 790.932 159.466 791.203C159.061 791.474 158.745 791.861 158.558 792.314C158.37 792.767 158.32 793.266 158.414 793.748C158.507 794.229 158.74 794.672 159.083 795.02C159.426 795.368 159.863 795.605 160.34 795.702C160.816 795.798 161.31 795.75 161.759 795.562C162.208 795.375 162.592 795.057 162.862 794.649C163.133 794.241 163.277 793.761 163.277 793.27C163.278 792.945 163.216 792.623 163.094 792.322C162.971 792.021 162.791 791.747 162.564 791.517C162.337 791.287 162.067 791.104 161.77 790.979C161.473 790.854 161.154 790.79 160.832 790.79Z" fill="#9AD8D0"/>
</g>
</g>
<g style="mix-blend-mode:color-dodge" opacity="0.61">
<g style="mix-blend-mode:color-dodge" opacity="0.61">
<path d="M297.637 656.56C297.154 656.562 296.683 656.709 296.282 656.981C295.881 657.254 295.569 657.64 295.386 658.092C295.202 658.543 295.155 659.04 295.251 659.518C295.346 659.996 295.58 660.436 295.922 660.78C296.264 661.125 296.7 661.359 297.174 661.453C297.648 661.548 298.139 661.498 298.585 661.311C299.031 661.124 299.412 660.807 299.68 660.401C299.949 659.995 300.092 659.518 300.092 659.03C300.092 658.705 300.028 658.383 299.905 658.083C299.781 657.782 299.6 657.509 299.372 657.28C299.144 657.05 298.874 656.869 298.576 656.745C298.278 656.622 297.959 656.559 297.637 656.56Z" fill="#9AD8D0"/>
</g>
</g>
<g style="mix-blend-mode:color-dodge" opacity="0.85">
<g style="mix-blend-mode:color-dodge" opacity="0.85">
<path d="M450.742 553.48C450.259 553.48 449.786 553.625 449.384 553.896C448.982 554.168 448.669 554.553 448.484 555.005C448.299 555.456 448.251 555.953 448.345 556.432C448.439 556.911 448.672 557.351 449.014 557.697C449.356 558.042 449.791 558.277 450.266 558.373C450.74 558.468 451.231 558.419 451.678 558.232C452.125 558.045 452.506 557.728 452.775 557.322C453.044 556.916 453.187 556.439 453.187 555.95C453.188 555.625 453.126 555.304 453.004 555.003C452.881 554.703 452.701 554.43 452.474 554.201C452.247 553.971 451.977 553.789 451.679 553.665C451.382 553.542 451.064 553.479 450.742 553.48Z" fill="#9AD8D0"/>
</g>
</g>
<g style="mix-blend-mode:color-dodge" opacity="0.34">
<g style="mix-blend-mode:color-dodge" opacity="0.34">
<path d="M598.434 515.18C597.95 515.18 597.478 515.325 597.076 515.596C596.674 515.868 596.36 516.253 596.175 516.705C595.99 517.156 595.942 517.653 596.036 518.132C596.131 518.611 596.364 519.051 596.705 519.396C597.047 519.742 597.483 519.977 597.957 520.072C598.431 520.168 598.923 520.119 599.369 519.932C599.816 519.745 600.198 519.428 600.467 519.022C600.735 518.616 600.879 518.138 600.879 517.65C600.88 517.325 600.817 517.003 600.695 516.703C600.573 516.403 600.393 516.13 600.165 515.9C599.938 515.671 599.668 515.489 599.371 515.365C599.074 515.242 598.755 515.179 598.434 515.18Z" fill="#9AD8D0"/>
</g>
</g>
<g style="mix-blend-mode:color-dodge" opacity="0.59">
<g style="mix-blend-mode:color-dodge" opacity="0.59">
<path d="M837.741 607.84C837.258 607.842 836.787 607.988 836.386 608.261C835.985 608.534 835.673 608.92 835.49 609.372C835.306 609.823 835.259 610.319 835.355 610.798C835.45 611.276 835.684 611.716 836.026 612.06C836.368 612.404 836.804 612.639 837.278 612.733C837.752 612.828 838.243 612.778 838.689 612.591C839.135 612.404 839.516 612.087 839.784 611.681C840.053 611.275 840.196 610.798 840.196 610.31C840.197 609.984 840.134 609.662 840.011 609.361C839.888 609.06 839.707 608.787 839.479 608.557C839.251 608.327 838.98 608.145 838.681 608.022C838.383 607.899 838.064 607.837 837.741 607.84Z" fill="#9AD8D0"/>
</g>
</g>
<g style="mix-blend-mode:color-dodge" opacity="0.68">
<g style="mix-blend-mode:color-dodge" opacity="0.68">
<path d="M1351.27 632.66C1350.79 632.66 1350.31 632.805 1349.91 633.078C1349.5 633.35 1349.19 633.738 1349 634.191C1348.82 634.644 1348.77 635.143 1348.86 635.624C1348.96 636.105 1349.19 636.547 1349.54 636.894C1349.88 637.24 1350.32 637.477 1350.79 637.572C1351.27 637.668 1351.76 637.619 1352.21 637.431C1352.66 637.243 1353.04 636.926 1353.31 636.518C1353.58 636.11 1353.73 635.63 1353.73 635.14C1353.73 634.814 1353.67 634.491 1353.54 634.189C1353.42 633.888 1353.24 633.614 1353.01 633.383C1352.78 633.153 1352.51 632.97 1352.21 632.846C1351.91 632.722 1351.59 632.659 1351.27 632.66Z" fill="#9AD8D0"/>
</g>
</g>
<g style="mix-blend-mode:color-dodge" opacity="0.5">
<g style="mix-blend-mode:color-dodge" opacity="0.5">
<path d="M1569.29 782.47C1568.81 782.47 1568.33 782.615 1567.93 782.888C1567.52 783.16 1567.21 783.548 1567.02 784.001C1566.84 784.454 1566.79 784.953 1566.88 785.434C1566.98 785.915 1567.21 786.357 1567.56 786.704C1567.9 787.05 1568.34 787.287 1568.81 787.382C1569.29 787.478 1569.78 787.429 1570.23 787.241C1570.68 787.054 1571.06 786.736 1571.33 786.328C1571.6 785.92 1571.75 785.441 1571.75 784.95C1571.75 784.292 1571.49 783.661 1571.03 783.196C1570.57 782.731 1569.94 782.47 1569.29 782.47Z" fill="#9AD8D0"/>
</g>
</g>
<g style="mix-blend-mode:color-dodge">
<path d="M1676.65 566.15C1676.17 566.148 1675.69 566.292 1675.29 566.563C1674.88 566.834 1674.57 567.221 1674.38 567.674C1674.19 568.127 1674.14 568.626 1674.23 569.108C1674.33 569.589 1674.56 570.032 1674.9 570.38C1675.25 570.728 1675.68 570.965 1676.16 571.061C1676.64 571.158 1677.13 571.109 1677.58 570.922C1678.03 570.735 1678.41 570.417 1678.68 570.009C1678.95 569.601 1679.1 569.121 1679.1 568.63C1679.1 567.974 1678.84 567.345 1678.38 566.88C1677.92 566.415 1677.3 566.153 1676.65 566.15Z" fill="#9AD8D0"/>
</g>
<g style="mix-blend-mode:color-dodge" opacity="0.78">
<g style="mix-blend-mode:color-dodge" opacity="0.78">
<path d="M1620.36 394.86C1619.88 394.86 1619.4 395.005 1619 395.276C1618.6 395.548 1618.29 395.933 1618.1 396.385C1617.92 396.836 1617.87 397.333 1617.96 397.812C1618.06 398.291 1618.29 398.731 1618.63 399.076C1618.97 399.422 1619.41 399.657 1619.88 399.752C1620.36 399.848 1620.85 399.799 1621.29 399.612C1621.74 399.425 1622.12 399.108 1622.39 398.702C1622.66 398.296 1622.8 397.818 1622.8 397.33C1622.8 397.005 1622.74 396.683 1622.62 396.383C1622.5 396.083 1622.32 395.81 1622.09 395.58C1621.86 395.351 1621.59 395.169 1621.3 395.045C1621 394.922 1620.68 394.859 1620.36 394.86Z" fill="#9AD8D0"/>
</g>
</g>
<g style="mix-blend-mode:color-dodge" opacity="0.82">
<g style="mix-blend-mode:color-dodge" opacity="0.82">
<path d="M477.217 599.74C476.73 599.738 476.254 599.882 475.849 600.154C475.444 600.426 475.128 600.813 474.941 601.266C474.754 601.72 474.705 602.219 474.799 602.701C474.893 603.183 475.127 603.626 475.471 603.974C475.815 604.321 476.253 604.557 476.73 604.653C477.207 604.748 477.702 604.698 478.151 604.509C478.599 604.32 478.983 604.001 479.252 603.592C479.521 603.182 479.663 602.701 479.661 602.21C479.661 601.555 479.404 600.927 478.945 600.463C478.487 600 477.865 599.74 477.217 599.74Z" fill="#9AD8D0"/>
</g>
</g>
<g style="mix-blend-mode:color-dodge" opacity="0.94">
<g style="mix-blend-mode:color-dodge" opacity="0.94">
<path d="M1103.83 204.43C1103.35 204.43 1102.87 204.575 1102.47 204.846C1102.07 205.118 1101.76 205.503 1101.57 205.955C1101.39 206.406 1101.34 206.903 1101.43 207.382C1101.53 207.861 1101.76 208.301 1102.1 208.646C1102.44 208.992 1102.88 209.227 1103.35 209.322C1103.83 209.418 1104.32 209.369 1104.77 209.182C1105.21 208.995 1105.59 208.678 1105.86 208.272C1106.13 207.866 1106.27 207.388 1106.27 206.9C1106.27 206.245 1106.02 205.617 1105.56 205.153C1105.1 204.69 1104.48 204.43 1103.83 204.43Z" fill="#9AD8D0"/>
</g>
</g>
<g style="mix-blend-mode:color-dodge" opacity="0.67">
<g style="mix-blend-mode:color-dodge" opacity="0.67">
<path d="M365.006 156.68C364.519 156.678 364.043 156.822 363.638 157.094C363.233 157.365 362.917 157.753 362.73 158.206C362.543 158.66 362.494 159.159 362.588 159.641C362.682 160.123 362.916 160.566 363.26 160.914C363.604 161.261 364.042 161.497 364.519 161.593C364.996 161.688 365.491 161.638 365.94 161.449C366.388 161.26 366.772 160.941 367.041 160.532C367.31 160.122 367.452 159.641 367.45 159.15C367.45 158.826 367.387 158.504 367.264 158.205C367.141 157.905 366.961 157.633 366.734 157.403C366.507 157.174 366.238 156.992 365.941 156.868C365.644 156.744 365.327 156.68 365.006 156.68Z" fill="#9AD8D0"/>
</g>
</g>
<g style="mix-blend-mode:color-dodge" opacity="0.92">
<g style="mix-blend-mode:color-dodge" opacity="0.92">
<path d="M257 196.94C256.514 196.938 256.038 197.082 255.633 197.354C255.228 197.625 254.912 198.013 254.725 198.466C254.538 198.92 254.488 199.419 254.583 199.901C254.677 200.383 254.911 200.826 255.255 201.174C255.599 201.521 256.037 201.757 256.514 201.853C256.991 201.948 257.485 201.898 257.934 201.709C258.383 201.52 258.766 201.201 259.035 200.792C259.304 200.382 259.447 199.901 259.445 199.41C259.442 198.756 259.184 198.129 258.726 197.666C258.268 197.204 257.648 196.943 257 196.94Z" fill="#9AD8D0"/>
</g>
</g>
<g style="mix-blend-mode:color-dodge" opacity="0.6">
<g style="mix-blend-mode:color-dodge" opacity="0.6">
<path d="M444.487 151.56C444.001 151.558 443.526 151.702 443.121 151.973C442.716 152.244 442.4 152.631 442.213 153.084C442.025 153.537 441.975 154.036 442.069 154.518C442.162 154.999 442.395 155.442 442.738 155.79C443.081 156.138 443.519 156.375 443.995 156.472C444.471 156.568 444.965 156.52 445.414 156.332C445.863 156.145 446.247 155.827 446.517 155.419C446.788 155.011 446.932 154.531 446.932 154.04C446.932 153.384 446.675 152.755 446.216 152.29C445.758 151.825 445.137 151.563 444.487 151.56Z" fill="#9AD8D0"/>
</g>
</g>
<g style="mix-blend-mode:color-dodge">
<path d="M1070.32 103.02C1069.84 103.022 1069.36 103.169 1068.96 103.441C1068.56 103.714 1068.25 104.1 1068.07 104.552C1067.88 105.003 1067.84 105.5 1067.93 105.978C1068.03 106.456 1068.26 106.896 1068.6 107.24C1068.95 107.585 1069.38 107.819 1069.86 107.913C1070.33 108.008 1070.82 107.958 1071.27 107.771C1071.71 107.584 1072.09 107.267 1072.36 106.861C1072.63 106.455 1072.77 105.978 1072.77 105.49C1072.77 105.165 1072.71 104.843 1072.59 104.542C1072.46 104.242 1072.28 103.969 1072.05 103.74C1071.83 103.51 1071.55 103.329 1071.26 103.205C1070.96 103.082 1070.64 103.019 1070.32 103.02Z" fill="#9AD8D0"/>
</g>
<g style="mix-blend-mode:color-dodge" opacity="0.07">
<g style="mix-blend-mode:color-dodge" opacity="0.07">
<path d="M1415.1 299.02C1414.61 299.02 1414.14 299.165 1413.74 299.436C1413.34 299.708 1413.02 300.093 1412.84 300.545C1412.65 300.996 1412.61 301.493 1412.7 301.972C1412.79 302.451 1413.03 302.891 1413.37 303.237C1413.71 303.582 1414.15 303.817 1414.62 303.913C1415.09 304.008 1415.59 303.959 1416.03 303.772C1416.48 303.585 1416.86 303.268 1417.13 302.862C1417.4 302.456 1417.54 301.979 1417.54 301.49C1417.54 300.835 1417.28 300.207 1416.83 299.743C1416.37 299.28 1415.75 299.02 1415.1 299.02Z" fill="#9AD8D0"/>
</g>
</g>
<g style="mix-blend-mode:color-dodge" opacity="0.65">
<g style="mix-blend-mode:color-dodge" opacity="0.65">
<path d="M1573.49 424.89C1573 424.89 1572.53 425.035 1572.13 425.306C1571.73 425.578 1571.41 425.964 1571.23 426.415C1571.04 426.866 1571 427.363 1571.09 427.842C1571.18 428.321 1571.42 428.761 1571.76 429.107C1572.1 429.452 1572.54 429.687 1573.01 429.783C1573.48 429.878 1573.98 429.829 1574.42 429.642C1574.87 429.455 1575.25 429.139 1575.52 428.732C1575.79 428.326 1575.93 427.849 1575.93 427.36C1575.93 426.705 1575.67 426.077 1575.22 425.614C1574.76 425.15 1574.14 424.89 1573.49 424.89Z" fill="#9AD8D0"/>
</g>
</g>
<g style="mix-blend-mode:color-dodge" opacity="0.67">
<g style="mix-blend-mode:color-dodge" opacity="0.67">
<path d="M1616.07 746.4C1615.59 746.398 1615.11 746.542 1614.71 746.814C1614.3 747.085 1613.99 747.473 1613.8 747.926C1613.61 748.38 1613.56 748.879 1613.66 749.361C1613.75 749.843 1613.98 750.286 1614.33 750.633C1614.67 750.981 1615.11 751.217 1615.59 751.313C1616.06 751.408 1616.56 751.358 1617.01 751.169C1617.46 750.98 1617.84 750.661 1618.11 750.251C1618.38 749.842 1618.52 749.361 1618.52 748.87C1618.52 748.216 1618.26 747.589 1617.8 747.126C1617.34 746.664 1616.72 746.403 1616.07 746.4Z" fill="#9AD8D0"/>
</g>
</g>
<g style="mix-blend-mode:color-dodge" opacity="0.38">
<g style="mix-blend-mode:color-dodge" opacity="0.38">
<path d="M1531.75 840.4C1531.27 840.4 1530.79 840.546 1530.39 840.819C1529.98 841.091 1529.67 841.479 1529.48 841.933C1529.3 842.387 1529.25 842.886 1529.35 843.367C1529.44 843.849 1529.68 844.291 1530.02 844.637C1530.36 844.983 1530.8 845.219 1531.28 845.313C1531.76 845.408 1532.25 845.357 1532.7 845.168C1533.15 844.979 1533.53 844.66 1533.8 844.25C1534.07 843.841 1534.21 843.361 1534.21 842.87C1534.2 842.214 1533.94 841.586 1533.48 841.123C1533.02 840.66 1532.4 840.4 1531.75 840.4Z" fill="#9AD8D0"/>
</g>
</g>
<g style="mix-blend-mode:color-dodge" opacity="0.59">
<g style="mix-blend-mode:color-dodge" opacity="0.59">
<path d="M715.584 666.93C715.098 666.93 714.624 667.075 714.22 667.348C713.816 667.62 713.502 668.008 713.316 668.461C713.13 668.914 713.082 669.413 713.176 669.894C713.271 670.375 713.505 670.817 713.848 671.164C714.191 671.51 714.629 671.747 715.105 671.842C715.581 671.938 716.074 671.889 716.523 671.701C716.971 671.513 717.355 671.196 717.624 670.788C717.894 670.38 718.038 669.9 718.038 669.41C718.038 668.752 717.779 668.121 717.319 667.656C716.859 667.191 716.235 666.93 715.584 666.93Z" fill="#9AD8D0"/>
</g>
</g>
<g style="mix-blend-mode:color-dodge" opacity="0.73">
<g style="mix-blend-mode:color-dodge" opacity="0.73">
<path d="M610.924 709.5C610.438 709.498 609.963 709.642 609.558 709.913C609.153 710.184 608.837 710.571 608.649 711.024C608.462 711.477 608.412 711.976 608.506 712.458C608.599 712.939 608.832 713.382 609.175 713.73C609.518 714.078 609.955 714.315 610.432 714.412C610.908 714.508 611.402 714.46 611.851 714.272C612.3 714.085 612.684 713.767 612.954 713.359C613.224 712.951 613.369 712.471 613.369 711.98C613.369 711.324 613.111 710.695 612.653 710.23C612.195 709.765 611.573 709.503 610.924 709.5Z" fill="#9AD8D0"/>
</g>
</g>
<g style="mix-blend-mode:color-dodge" opacity="0.44">
<g style="mix-blend-mode:color-dodge" opacity="0.44">
<path d="M858.01 714.44C857.523 714.438 857.048 714.582 856.642 714.854C856.237 715.125 855.921 715.513 855.734 715.966C855.547 716.42 855.498 716.919 855.592 717.401C855.686 717.883 855.92 718.326 856.264 718.674C856.608 719.021 857.046 719.257 857.523 719.353C858 719.448 858.495 719.398 858.944 719.209C859.393 719.02 859.776 718.701 860.045 718.292C860.314 717.882 860.456 717.401 860.454 716.91C860.454 716.586 860.391 716.264 860.268 715.965C860.145 715.665 859.965 715.393 859.738 715.163C859.511 714.934 859.242 714.752 858.945 714.628C858.649 714.504 858.331 714.44 858.01 714.44Z" fill="#9AD8D0"/>
</g>
</g>
<g style="mix-blend-mode:color-dodge" opacity="0.65">
<g style="mix-blend-mode:color-dodge" opacity="0.65">
<path d="M865.106 848.79C864.62 848.788 864.144 848.932 863.738 849.204C863.333 849.476 863.017 849.863 862.83 850.316C862.643 850.77 862.594 851.269 862.688 851.751C862.783 852.233 863.017 852.676 863.36 853.024C863.704 853.371 864.142 853.608 864.62 853.703C865.097 853.798 865.591 853.748 866.04 853.559C866.489 853.37 866.872 853.051 867.141 852.642C867.41 852.232 867.552 851.751 867.55 851.26C867.548 850.606 867.289 849.979 866.831 849.516C866.374 849.054 865.753 848.793 865.106 848.79Z" fill="#9AD8D0"/>
</g>
</g>
<g style="mix-blend-mode:color-dodge">
<path d="M787.356 244.29C786.87 244.288 786.394 244.432 785.989 244.704C785.584 244.976 785.268 245.363 785.081 245.816C784.894 246.27 784.844 246.769 784.939 247.251C785.033 247.733 785.267 248.176 785.611 248.524C785.955 248.871 786.393 249.107 786.87 249.203C787.347 249.298 787.841 249.248 788.29 249.059C788.739 248.87 789.122 248.551 789.391 248.142C789.66 247.732 789.803 247.251 789.801 246.76C789.802 246.435 789.74 246.114 789.617 245.813C789.495 245.513 789.315 245.24 789.088 245.011C788.86 244.781 788.59 244.599 788.293 244.475C787.996 244.352 787.678 244.289 787.356 244.29Z" fill="#9AD8D0"/>
</g>
<g style="mix-blend-mode:color-dodge">
<path d="M92.7613 96.8599C92.2782 96.8619 91.8066 97.0084 91.4059 97.281C91.0052 97.5536 90.6934 97.9401 90.5099 98.3916C90.3264 98.8431 90.2794 99.3394 90.3748 99.8179C90.4703 100.296 90.7039 100.736 91.0462 101.08C91.3884 101.424 91.824 101.659 92.2979 101.753C92.7718 101.848 93.2628 101.798 93.7089 101.611C94.1551 101.424 94.5363 101.107 94.8044 100.701C95.0726 100.295 95.2157 99.818 95.2157 99.3299C95.2157 99.0047 95.1522 98.6827 95.0287 98.3823C94.9052 98.082 94.7243 97.8093 94.4962 97.5798C94.2682 97.3503 93.9976 97.1686 93.6998 97.045C93.4021 96.9215 93.0832 96.8586 92.7613 96.8599Z" fill="#9AD8D0"/>
</g>
<g style="mix-blend-mode:color-dodge" opacity="0.26">
<g style="mix-blend-mode:color-dodge" opacity="0.26">
<path d="M1475.41 194.56C1474.92 194.558 1474.45 194.702 1474.04 194.973C1473.64 195.244 1473.32 195.631 1473.13 196.084C1472.95 196.537 1472.9 197.036 1472.99 197.518C1473.08 197.999 1473.32 198.442 1473.66 198.79C1474 199.138 1474.44 199.375 1474.92 199.472C1475.39 199.568 1475.89 199.52 1476.34 199.332C1476.78 199.145 1477.17 198.827 1477.44 198.419C1477.71 198.011 1477.85 197.531 1477.85 197.04C1477.85 196.715 1477.79 196.393 1477.67 196.092C1477.55 195.791 1477.37 195.517 1477.14 195.287C1476.91 195.057 1476.64 194.874 1476.35 194.749C1476.05 194.624 1475.73 194.56 1475.41 194.56Z" fill="#9AD8D0"/>
</g>
</g>
<g style="mix-blend-mode:color-dodge" opacity="0.78">
<g style="mix-blend-mode:color-dodge" opacity="0.78">
<path d="M1551.95 122.56C1551.47 122.56 1550.99 122.706 1550.59 122.978C1550.18 123.251 1549.87 123.638 1549.68 124.091C1549.5 124.544 1549.45 125.043 1549.54 125.524C1549.64 126.005 1549.87 126.447 1550.22 126.794C1550.56 127.141 1551 127.377 1551.47 127.472C1551.95 127.568 1552.44 127.519 1552.89 127.331C1553.34 127.144 1553.72 126.826 1553.99 126.418C1554.26 126.01 1554.41 125.531 1554.41 125.04C1554.41 124.714 1554.34 124.392 1554.22 124.091C1554.1 123.79 1553.91 123.517 1553.69 123.286C1553.46 123.056 1553.19 122.873 1552.89 122.749C1552.59 122.624 1552.27 122.56 1551.95 122.56Z" fill="#9AD8D0"/>
</g>
</g>
<g style="mix-blend-mode:color-dodge" opacity="0.62">
<g style="mix-blend-mode:color-dodge" opacity="0.62">
<path d="M1440.43 121.96C1439.95 121.958 1439.47 122.102 1439.07 122.373C1438.66 122.644 1438.35 123.031 1438.16 123.484C1437.97 123.937 1437.92 124.436 1438.01 124.918C1438.11 125.399 1438.34 125.842 1438.68 126.19C1439.03 126.538 1439.46 126.775 1439.94 126.872C1440.42 126.968 1440.91 126.92 1441.36 126.732C1441.81 126.545 1442.19 126.227 1442.46 125.819C1442.73 125.411 1442.88 124.931 1442.88 124.44C1442.88 123.784 1442.62 123.155 1442.16 122.69C1441.7 122.225 1441.08 121.963 1440.43 121.96Z" fill="#9AD8D0"/>
</g>
</g>
<g style="mix-blend-mode:color-dodge" opacity="0.58">
<g style="mix-blend-mode:color-dodge" opacity="0.58">
<path d="M1490.17 135.68C1489.69 135.68 1489.22 135.825 1488.82 136.096C1488.41 136.368 1488.1 136.753 1487.92 137.205C1487.73 137.656 1487.68 138.153 1487.78 138.632C1487.87 139.111 1488.1 139.551 1488.45 139.896C1488.79 140.242 1489.22 140.477 1489.7 140.572C1490.17 140.668 1490.66 140.619 1491.11 140.432C1491.56 140.245 1491.94 139.928 1492.21 139.522C1492.48 139.116 1492.62 138.638 1492.62 138.15C1492.62 137.826 1492.56 137.504 1492.43 137.205C1492.31 136.905 1492.13 136.633 1491.9 136.403C1491.68 136.174 1491.41 135.992 1491.11 135.868C1490.81 135.744 1490.5 135.68 1490.17 135.68Z" fill="#9AD8D0"/>
</g>
</g>
<g style="mix-blend-mode:color-dodge" opacity="0.27">
<g style="mix-blend-mode:color-dodge" opacity="0.27">
<path d="M1552.88 279.28C1552.4 279.28 1551.92 279.426 1551.52 279.699C1551.11 279.972 1550.8 280.36 1550.61 280.813C1550.43 281.267 1550.38 281.766 1550.48 282.248C1550.57 282.729 1550.81 283.171 1551.15 283.517C1551.49 283.864 1551.93 284.099 1552.41 284.194C1552.89 284.288 1553.38 284.238 1553.83 284.048C1554.28 283.859 1554.66 283.54 1554.93 283.131C1555.2 282.721 1555.34 282.241 1555.34 281.75C1555.33 281.094 1555.07 280.466 1554.61 280.003C1554.15 279.54 1553.53 279.28 1552.88 279.28Z" fill="#9AD8D0"/>
</g>
</g>
<g style="mix-blend-mode:color-dodge">
<path d="M1440.46 70.1499C1439.98 70.1499 1439.51 70.2948 1439.1 70.5662C1438.7 70.8376 1438.39 71.2234 1438.2 71.6747C1438.02 72.126 1437.97 72.6227 1438.07 73.1018C1438.16 73.5809 1438.39 74.021 1438.73 74.3665C1439.08 74.7119 1439.51 74.9472 1439.99 75.0425C1440.46 75.1378 1440.95 75.0889 1441.4 74.9019C1441.84 74.715 1442.23 74.3984 1442.5 73.9922C1442.76 73.586 1442.91 73.1084 1442.91 72.6199C1442.91 72.2952 1442.85 71.9734 1442.72 71.6731C1442.6 71.3729 1442.42 71.1001 1442.19 70.8704C1441.97 70.6408 1441.7 70.4589 1441.4 70.3353C1441.1 70.2116 1440.78 70.1486 1440.46 70.1499Z" fill="#9AD8D0"/>
</g>
<g style="mix-blend-mode:color-dodge" opacity="0.25">
<g style="mix-blend-mode:color-dodge" opacity="0.25">
<path d="M1380.13 182.73C1379.65 182.73 1379.18 182.875 1378.77 183.146C1378.37 183.418 1378.06 183.803 1377.87 184.255C1377.69 184.706 1377.64 185.203 1377.73 185.682C1377.83 186.161 1378.06 186.601 1378.4 186.947C1378.74 187.292 1379.18 187.527 1379.65 187.622C1380.13 187.718 1380.62 187.669 1381.07 187.482C1381.51 187.295 1381.9 186.978 1382.16 186.572C1382.43 186.166 1382.58 185.689 1382.58 185.2C1382.58 184.545 1382.32 183.917 1381.86 183.453C1381.4 182.99 1380.78 182.73 1380.13 182.73Z" fill="#9AD8D0"/>
</g>
</g>
<g style="mix-blend-mode:color-dodge" opacity="0.64">
<g style="mix-blend-mode:color-dodge" opacity="0.64">
<path d="M1260.82 152.79C1260.34 152.788 1259.86 152.932 1259.46 153.203C1259.05 153.474 1258.74 153.861 1258.55 154.314C1258.36 154.767 1258.31 155.266 1258.41 155.748C1258.5 156.229 1258.73 156.672 1259.08 157.02C1259.42 157.368 1259.86 157.605 1260.33 157.702C1260.81 157.798 1261.3 157.75 1261.75 157.562C1262.2 157.375 1262.58 157.057 1262.85 156.649C1263.12 156.241 1263.27 155.761 1263.27 155.27C1263.27 154.614 1263.01 153.985 1262.55 153.52C1262.1 153.055 1261.47 152.793 1260.82 152.79Z" fill="#9AD8D0"/>
</g>
</g>
<g style="mix-blend-mode:color-dodge">
<path d="M732.487 25.8301C732.001 25.8281 731.525 25.9721 731.12 26.2439C730.715 26.5156 730.399 26.9028 730.212 27.3564C730.025 27.81 729.975 28.3094 730.07 28.7914C730.164 29.2734 730.398 29.7163 730.742 30.0637C731.086 30.4111 731.524 30.6475 732.001 30.7429C732.478 30.8383 732.972 30.7883 733.421 30.5994C733.87 30.4104 734.253 30.091 734.522 29.6817C734.791 29.2723 734.934 28.7914 734.932 28.3001C734.929 27.6458 734.671 27.0191 734.213 26.5564C733.755 26.0938 733.135 25.8327 732.487 25.8301Z" fill="#9AD8D0"/>
</g>
<g style="mix-blend-mode:color-dodge" opacity="0.71">
<g style="mix-blend-mode:color-dodge" opacity="0.71">
<path d="M400.515 100.72C400.03 100.72 399.555 100.865 399.151 101.138C398.747 101.411 398.432 101.799 398.247 102.253C398.061 102.707 398.013 103.206 398.109 103.687C398.204 104.169 398.439 104.61 398.783 104.957C399.128 105.303 399.566 105.539 400.043 105.633C400.519 105.728 401.013 105.677 401.462 105.488C401.91 105.299 402.293 104.979 402.561 104.57C402.83 104.161 402.972 103.681 402.97 103.19C402.97 102.865 402.906 102.543 402.783 102.242C402.659 101.942 402.478 101.669 402.25 101.44C402.022 101.21 401.752 101.028 401.454 100.905C401.156 100.781 400.837 100.718 400.515 100.72Z" fill="#9AD8D0"/>
</g>
</g>
<g style="mix-blend-mode:color-dodge" opacity="0.97">
<g style="mix-blend-mode:color-dodge" opacity="0.97">
<path d="M232.892 231.49C232.406 231.488 231.93 231.632 231.525 231.903C231.12 232.174 230.804 232.561 230.617 233.014C230.43 233.467 230.38 233.966 230.473 234.448C230.567 234.929 230.8 235.372 231.143 235.72C231.485 236.068 231.923 236.305 232.399 236.402C232.876 236.498 233.37 236.45 233.819 236.262C234.268 236.075 234.652 235.757 234.922 235.349C235.192 234.941 235.336 234.461 235.336 233.97C235.337 233.645 235.275 233.323 235.153 233.022C235.031 232.721 234.851 232.447 234.624 232.217C234.397 231.987 234.127 231.804 233.829 231.679C233.532 231.554 233.213 231.49 232.892 231.49Z" fill="#9AD8D0"/>
</g>
</g>
<g style="mix-blend-mode:color-dodge" opacity="0.77">
<g style="mix-blend-mode:color-dodge" opacity="0.77">
<path d="M126.015 284.49C125.529 284.488 125.054 284.632 124.649 284.903C124.244 285.174 123.928 285.561 123.74 286.014C123.553 286.467 123.503 286.966 123.597 287.448C123.69 287.929 123.923 288.372 124.266 288.72C124.609 289.068 125.046 289.305 125.523 289.402C125.999 289.498 126.493 289.45 126.942 289.262C127.391 289.075 127.775 288.757 128.045 288.349C128.315 287.941 128.46 287.461 128.46 286.97C128.46 286.314 128.202 285.685 127.744 285.22C127.286 284.755 126.664 284.493 126.015 284.49Z" fill="#9AD8D0"/>
</g>
</g>
<g style="mix-blend-mode:color-dodge">
<path d="M58.3795 218.09C57.8936 218.09 57.4187 218.236 57.0148 218.509C56.611 218.781 56.2964 219.169 56.1109 219.623C55.9255 220.077 55.8774 220.576 55.9729 221.057C56.0685 221.539 56.3032 221.981 56.6474 222.327C56.9917 222.673 57.43 222.909 57.9067 223.003C58.3835 223.098 58.8773 223.047 59.3256 222.858C59.7739 222.669 60.1566 222.35 60.4251 221.94C60.6936 221.531 60.8359 221.051 60.8339 220.56C60.8339 220.235 60.7704 219.913 60.6469 219.612C60.5234 219.312 60.3425 219.039 60.1144 218.81C59.8864 218.58 59.6157 218.399 59.318 218.275C59.0203 218.151 58.7013 218.089 58.3795 218.09Z" fill="#9AD8D0"/>
</g>
<g style="mix-blend-mode:color-dodge" opacity="0.69">
<g style="mix-blend-mode:color-dodge" opacity="0.69">
<path d="M501.939 360.94C501.453 360.938 500.978 361.082 500.573 361.353C500.168 361.624 499.852 362.011 499.664 362.464C499.477 362.917 499.427 363.416 499.521 363.898C499.614 364.379 499.847 364.822 500.19 365.17C500.533 365.518 500.97 365.755 501.447 365.852C501.923 365.948 502.417 365.9 502.866 365.712C503.315 365.525 503.699 365.207 503.969 364.799C504.239 364.391 504.384 363.911 504.384 363.42C504.385 363.095 504.323 362.772 504.2 362.472C504.078 362.171 503.898 361.897 503.671 361.667C503.444 361.436 503.174 361.254 502.877 361.129C502.58 361.004 502.261 360.94 501.939 360.94Z" fill="#9AD8D0"/>
</g>
</g>
<g style="mix-blend-mode:color-dodge" opacity="0.47">
<g style="mix-blend-mode:color-dodge" opacity="0.47">
<path d="M1075.32 344.8C1074.83 344.798 1074.36 344.942 1073.95 345.213C1073.55 345.484 1073.23 345.871 1073.04 346.324C1072.85 346.777 1072.8 347.276 1072.9 347.758C1072.99 348.239 1073.22 348.682 1073.57 349.03C1073.91 349.378 1074.35 349.615 1074.82 349.712C1075.3 349.808 1075.79 349.76 1076.24 349.572C1076.69 349.385 1077.08 349.067 1077.35 348.659C1077.62 348.251 1077.76 347.771 1077.76 347.28C1077.76 346.624 1077.5 345.995 1077.05 345.53C1076.59 345.065 1075.97 344.803 1075.32 344.8Z" fill="#9AD8D0"/>
</g>
</g>
<g style="mix-blend-mode:color-dodge" opacity="0.72">
<g style="mix-blend-mode:color-dodge" opacity="0.72">
<path d="M479.819 379.49C479.336 379.49 478.863 379.635 478.461 379.906C478.059 380.178 477.746 380.563 477.561 381.015C477.376 381.466 477.328 381.963 477.422 382.442C477.516 382.921 477.749 383.361 478.091 383.707C478.433 384.052 478.868 384.287 479.343 384.383C479.817 384.478 480.308 384.429 480.755 384.242C481.202 384.055 481.583 383.738 481.852 383.332C482.121 382.926 482.264 382.449 482.264 381.96C482.264 381.305 482.006 380.677 481.548 380.213C481.09 379.75 480.468 379.49 479.819 379.49Z" fill="#9AD8D0"/>
</g>
</g>
<g style="mix-blend-mode:color-dodge" opacity="0.6">
<g style="mix-blend-mode:color-dodge" opacity="0.6">
<path d="M507.204 406.56C506.719 406.56 506.244 406.706 505.841 406.978C505.437 407.251 505.123 407.638 504.937 408.091C504.751 408.544 504.702 409.043 504.797 409.524C504.892 410.005 505.126 410.447 505.469 410.794C505.812 411.141 506.249 411.377 506.725 411.472C507.202 411.568 507.695 411.519 508.144 411.331C508.592 411.144 508.975 410.826 509.245 410.418C509.515 410.01 509.659 409.531 509.659 409.04C509.659 408.382 509.4 407.752 508.94 407.286C508.48 406.821 507.855 406.56 507.204 406.56Z" fill="#9AD8D0"/>
</g>
</g>
<g style="mix-blend-mode:color-dodge" opacity="0.23">
<g style="mix-blend-mode:color-dodge" opacity="0.23">
<path d="M1336.77 386.41C1336.29 386.408 1335.81 386.552 1335.41 386.824C1335 387.095 1334.68 387.483 1334.5 387.936C1334.31 388.39 1334.26 388.889 1334.36 389.371C1334.45 389.853 1334.68 390.296 1335.03 390.644C1335.37 390.991 1335.81 391.227 1336.29 391.323C1336.76 391.418 1337.26 391.368 1337.71 391.179C1338.16 390.99 1338.54 390.671 1338.81 390.261C1339.08 389.852 1339.22 389.371 1339.22 388.88C1339.21 388.226 1338.96 387.599 1338.5 387.136C1338.04 386.674 1337.42 386.413 1336.77 386.41Z" fill="#9AD8D0"/>
</g>
</g>
<g style="mix-blend-mode:color-dodge" opacity="0.19">
<g style="mix-blend-mode:color-dodge" opacity="0.19">
<path d="M1390.48 385.94C1390 385.938 1389.52 386.082 1389.12 386.354C1388.71 386.625 1388.39 387.013 1388.21 387.466C1388.02 387.92 1387.97 388.419 1388.07 388.901C1388.16 389.383 1388.39 389.826 1388.74 390.174C1389.08 390.521 1389.52 390.757 1390 390.853C1390.47 390.948 1390.97 390.898 1391.42 390.709C1391.87 390.52 1392.25 390.201 1392.52 389.792C1392.79 389.382 1392.93 388.901 1392.93 388.41C1392.93 387.756 1392.67 387.129 1392.21 386.666C1391.75 386.204 1391.13 385.943 1390.48 385.94Z" fill="#9AD8D0"/>
</g>
</g>
<g style="mix-blend-mode:color-dodge" opacity="0.5">
<g style="mix-blend-mode:color-dodge" opacity="0.5">
<path d="M1052.28 327.14C1051.79 327.14 1051.32 327.286 1050.91 327.559C1050.51 327.832 1050.19 328.219 1050.01 328.673C1049.82 329.127 1049.77 329.626 1049.87 330.107C1049.97 330.589 1050.2 331.031 1050.54 331.377C1050.89 331.724 1051.33 331.959 1051.8 332.053C1052.28 332.148 1052.77 332.097 1053.22 331.908C1053.67 331.719 1054.05 331.4 1054.32 330.99C1054.59 330.581 1054.73 330.101 1054.73 329.61C1054.73 328.954 1054.47 328.326 1054.01 327.863C1053.55 327.4 1052.93 327.14 1052.28 327.14Z" fill="#9AD8D0"/>
</g>
</g>
<g style="mix-blend-mode:color-dodge" opacity="0.24">
<g style="mix-blend-mode:color-dodge" opacity="0.24">
<path d="M1320.27 357.56C1319.79 357.558 1319.31 357.702 1318.91 357.973C1318.5 358.244 1318.19 358.631 1318 359.084C1317.81 359.537 1317.76 360.036 1317.86 360.518C1317.95 360.999 1318.18 361.442 1318.53 361.79C1318.87 362.138 1319.31 362.375 1319.78 362.472C1320.26 362.568 1320.75 362.52 1321.2 362.332C1321.65 362.145 1322.03 361.827 1322.3 361.419C1322.57 361.011 1322.72 360.531 1322.72 360.04C1322.72 359.384 1322.46 358.755 1322 358.29C1321.55 357.825 1320.92 357.563 1320.27 357.56Z" fill="#9AD8D0"/>
</g>
</g>
<g style="mix-blend-mode:color-dodge" opacity="0.36">
<g style="mix-blend-mode:color-dodge" opacity="0.36">
<path d="M1256.25 417.73C1255.77 417.73 1255.3 417.875 1254.89 418.146C1254.49 418.418 1254.18 418.803 1253.99 419.255C1253.81 419.706 1253.76 420.203 1253.85 420.682C1253.95 421.161 1254.18 421.601 1254.52 421.947C1254.86 422.292 1255.3 422.527 1255.77 422.623C1256.25 422.718 1256.74 422.669 1257.19 422.482C1257.63 422.295 1258.02 421.978 1258.28 421.572C1258.55 421.166 1258.7 420.689 1258.7 420.2C1258.7 419.875 1258.64 419.554 1258.51 419.253C1258.39 418.953 1258.21 418.68 1257.98 418.451C1257.76 418.221 1257.49 418.039 1257.19 417.915C1256.89 417.792 1256.57 417.729 1256.25 417.73Z" fill="#9AD8D0"/>
</g>
</g>
<g style="mix-blend-mode:color-dodge" opacity="0.27">
<g style="mix-blend-mode:color-dodge" opacity="0.27">
<path d="M1365.42 436.8C1364.94 436.798 1364.46 436.942 1364.06 437.214C1363.65 437.486 1363.34 437.873 1363.15 438.326C1362.96 438.78 1362.91 439.279 1363.01 439.761C1363.1 440.243 1363.34 440.686 1363.68 441.034C1364.02 441.381 1364.46 441.618 1364.94 441.713C1365.42 441.808 1365.91 441.758 1366.36 441.569C1366.81 441.38 1367.19 441.061 1367.46 440.652C1367.73 440.242 1367.87 439.761 1367.87 439.27C1367.87 438.615 1367.61 437.987 1367.15 437.524C1366.69 437.06 1366.07 436.8 1365.42 436.8Z" fill="#9AD8D0"/>
</g>
</g>
<g style="mix-blend-mode:color-dodge" opacity="0.76">
<g style="mix-blend-mode:color-dodge" opacity="0.76">
<path d="M193.641 374.16C193.158 374.162 192.686 374.308 192.285 374.581C191.885 374.854 191.573 375.24 191.389 375.692C191.206 376.143 191.159 376.639 191.254 377.118C191.35 377.596 191.583 378.036 191.926 378.38C192.268 378.724 192.703 378.959 193.177 379.053C193.651 379.148 194.142 379.098 194.588 378.911C195.034 378.724 195.416 378.407 195.684 378.001C195.952 377.595 196.095 377.118 196.095 376.63C196.095 376.305 196.032 375.983 195.908 375.682C195.785 375.382 195.604 375.109 195.376 374.88C195.148 374.65 194.877 374.469 194.579 374.345C194.281 374.222 193.963 374.159 193.641 374.16Z" fill="#9AD8D0"/>
</g>
</g>
<g style="mix-blend-mode:color-dodge" opacity="0.41">
<g style="mix-blend-mode:color-dodge" opacity="0.41">
<path d="M1215.11 449.94C1214.62 449.94 1214.15 450.085 1213.75 450.358C1213.34 450.63 1213.03 451.018 1212.84 451.471C1212.66 451.924 1212.61 452.423 1212.7 452.904C1212.8 453.385 1213.03 453.827 1213.37 454.174C1213.72 454.52 1214.16 454.757 1214.63 454.852C1215.11 454.948 1215.6 454.899 1216.05 454.711C1216.5 454.523 1216.88 454.206 1217.15 453.798C1217.42 453.39 1217.56 452.91 1217.56 452.42C1217.56 451.762 1217.31 451.131 1216.85 450.666C1216.39 450.201 1215.76 449.94 1215.11 449.94Z" fill="#9AD8D0"/>
</g>
</g>
<g style="mix-blend-mode:color-dodge" opacity="0.43">
<g style="mix-blend-mode:color-dodge" opacity="0.43">
<path d="M1361.57 530.33C1361.09 530.328 1360.61 530.472 1360.21 530.743C1359.8 531.014 1359.49 531.401 1359.3 531.854C1359.11 532.307 1359.06 532.806 1359.16 533.288C1359.25 533.769 1359.48 534.212 1359.83 534.56C1360.17 534.908 1360.61 535.145 1361.08 535.242C1361.56 535.338 1362.05 535.29 1362.5 535.102C1362.95 534.915 1363.33 534.597 1363.6 534.189C1363.87 533.781 1364.02 533.301 1364.02 532.81C1364.02 532.485 1363.96 532.163 1363.84 531.862C1363.71 531.561 1363.53 531.287 1363.31 531.057C1363.08 530.827 1362.81 530.644 1362.51 530.519C1362.22 530.394 1361.9 530.33 1361.57 530.33Z" fill="#9AD8D0"/>
</g>
</g>
<g style="mix-blend-mode:color-dodge" opacity="0.73">
<g style="mix-blend-mode:color-dodge" opacity="0.73">
<path d="M1573.26 635.14C1572.77 635.14 1572.3 635.286 1571.89 635.559C1571.49 635.832 1571.18 636.22 1570.99 636.673C1570.81 637.127 1570.76 637.626 1570.85 638.108C1570.95 638.589 1571.18 639.031 1571.53 639.377C1571.87 639.724 1572.31 639.959 1572.79 640.054C1573.26 640.148 1573.76 640.098 1574.21 639.908C1574.65 639.719 1575.04 639.4 1575.31 638.991C1575.57 638.582 1575.72 638.101 1575.71 637.61C1575.71 636.954 1575.45 636.326 1574.99 635.863C1574.53 635.4 1573.91 635.14 1573.26 635.14Z" fill="#9AD8D0"/>
</g>
</g>
<g style="mix-blend-mode:color-dodge" opacity="0.85">
<g style="mix-blend-mode:color-dodge" opacity="0.85">
<path d="M1697.04 425.21C1696.55 425.208 1696.08 425.352 1695.67 425.623C1695.27 425.894 1694.95 426.281 1694.77 426.734C1694.58 427.187 1694.53 427.686 1694.62 428.168C1694.72 428.649 1694.95 429.092 1695.29 429.44C1695.63 429.788 1696.07 430.025 1696.55 430.122C1697.02 430.218 1697.52 430.17 1697.97 429.982C1698.42 429.795 1698.8 429.477 1699.07 429.069C1699.34 428.661 1699.48 428.181 1699.48 427.69C1699.48 427.034 1699.23 426.405 1698.77 425.94C1698.31 425.475 1697.69 425.213 1697.04 425.21Z" fill="#9AD8D0"/>
</g>
</g>
<g style="mix-blend-mode:color-dodge" opacity="0.85">
<g style="mix-blend-mode:color-dodge" opacity="0.85">
<path d="M1714.26 408.67C1713.77 408.67 1713.3 408.816 1712.9 409.089C1712.49 409.362 1712.18 409.749 1711.99 410.203C1711.81 410.657 1711.76 411.156 1711.85 411.637C1711.95 412.119 1712.18 412.561 1712.53 412.907C1712.87 413.254 1713.31 413.489 1713.79 413.583C1714.26 413.678 1714.76 413.628 1715.21 413.438C1715.66 413.249 1716.04 412.93 1716.31 412.52C1716.57 412.111 1716.72 411.631 1716.72 411.14C1716.71 410.484 1716.45 409.856 1715.99 409.393C1715.53 408.93 1714.91 408.67 1714.26 408.67Z" fill="#9AD8D0"/>
</g>
</g>
<g style="mix-blend-mode:color-dodge" opacity="0.21">
<g style="mix-blend-mode:color-dodge" opacity="0.21">
<path d="M1417.54 354.05C1417.06 354.048 1416.58 354.192 1416.17 354.464C1415.77 354.736 1415.45 355.123 1415.27 355.576C1415.08 356.03 1415.03 356.529 1415.12 357.011C1415.22 357.493 1415.45 357.936 1415.8 358.284C1416.14 358.631 1416.58 358.867 1417.06 358.963C1417.53 359.058 1418.03 359.008 1418.48 358.819C1418.92 358.63 1419.31 358.311 1419.58 357.902C1419.85 357.492 1419.99 357.011 1419.99 356.52C1419.98 355.866 1419.73 355.239 1419.27 354.776C1418.81 354.314 1418.19 354.053 1417.54 354.05Z" fill="#9AD8D0"/>
</g>
</g>
<g style="mix-blend-mode:color-dodge" opacity="0.22">
<g style="mix-blend-mode:color-dodge" opacity="0.22">
<path d="M1368.23 355.22C1367.74 355.222 1367.27 355.368 1366.87 355.641C1366.47 355.914 1366.16 356.3 1365.97 356.752C1365.79 357.203 1365.74 357.699 1365.84 358.178C1365.93 358.656 1366.17 359.096 1366.51 359.44C1366.85 359.784 1367.29 360.019 1367.76 360.113C1368.24 360.208 1368.73 360.158 1369.17 359.971C1369.62 359.784 1370 359.467 1370.27 359.061C1370.54 358.655 1370.68 358.178 1370.68 357.69C1370.68 357.365 1370.62 357.043 1370.49 356.742C1370.37 356.442 1370.19 356.169 1369.96 355.94C1369.73 355.71 1369.46 355.529 1369.16 355.405C1368.87 355.282 1368.55 355.219 1368.23 355.22Z" fill="#9AD8D0"/>
</g>
</g>
<g style="mix-blend-mode:color-dodge" opacity="0.75">
<g style="mix-blend-mode:color-dodge" opacity="0.75">
<path d="M33.4097 295.5C32.9262 295.502 32.4542 295.649 32.0533 295.922C31.6524 296.195 31.3406 296.582 31.1574 297.034C30.9742 297.486 30.9278 297.983 31.024 298.462C31.1203 298.941 31.3548 299.38 31.6981 299.724C32.0414 300.068 32.4779 300.301 32.9524 300.395C33.427 300.488 33.9183 300.437 34.3642 300.248C34.8102 300.059 35.1907 299.741 35.4577 299.334C35.7247 298.927 35.8661 298.449 35.8642 297.96C35.8642 297.635 35.8005 297.314 35.677 297.014C35.5534 296.714 35.3723 296.442 35.1441 296.213C34.9159 295.985 34.6452 295.804 34.3475 295.682C34.0498 295.559 33.7311 295.497 33.4097 295.5Z" fill="#9AD8D0"/>
</g>
</g>
<g style="mix-blend-mode:color-dodge" opacity="0.77">
<g style="mix-blend-mode:color-dodge" opacity="0.77">
<path d="M3.37227 276.86C2.88879 276.86 2.41616 277.005 2.01416 277.276C1.61215 277.548 1.29884 277.933 1.11381 278.385C0.928793 278.836 0.880384 279.333 0.974707 279.812C1.06903 280.291 1.30185 280.731 1.64372 281.076C1.9856 281.422 2.42117 281.657 2.89537 281.752C3.36956 281.848 3.86107 281.799 4.30775 281.612C4.75443 281.425 5.13622 281.108 5.40483 280.702C5.67344 280.296 5.8168 279.818 5.8168 279.33C5.8168 278.675 5.55925 278.047 5.10082 277.583C4.64238 277.12 4.0206 276.86 3.37227 276.86Z" fill="#9AD8D0"/>
</g>
</g>
<g style="mix-blend-mode:color-dodge" opacity="0.76">
<g style="mix-blend-mode:color-dodge" opacity="0.76">
<path d="M212.672 366.86C212.186 366.86 211.711 367.006 211.308 367.279C210.904 367.551 210.589 367.939 210.404 368.393C210.218 368.847 210.17 369.346 210.266 369.827C210.361 370.309 210.596 370.751 210.94 371.097C211.284 371.443 211.723 371.679 212.199 371.773C212.676 371.868 213.17 371.817 213.618 371.628C214.067 371.439 214.449 371.12 214.718 370.71C214.986 370.301 215.129 369.821 215.127 369.33C215.124 368.674 214.864 368.046 214.404 367.583C213.944 367.12 213.321 366.86 212.672 366.86Z" fill="#9AD8D0"/>
</g>
</g>
<g style="mix-blend-mode:color-dodge" opacity="0.67">
<g style="mix-blend-mode:color-dodge" opacity="0.67">
<path d="M206.477 606.93C205.993 606.93 205.521 607.075 205.119 607.346C204.717 607.618 204.403 608.003 204.218 608.455C204.033 608.906 203.985 609.403 204.079 609.882C204.174 610.361 204.406 610.801 204.748 611.146C205.09 611.492 205.526 611.727 206 611.822C206.474 611.918 206.966 611.869 207.412 611.682C207.859 611.495 208.241 611.178 208.509 610.772C208.778 610.366 208.921 609.888 208.921 609.4C208.921 608.745 208.664 608.117 208.205 607.653C207.747 607.19 207.125 606.93 206.477 606.93Z" fill="#9AD8D0"/>
</g>
</g>
<g style="mix-blend-mode:color-dodge" opacity="0.7">
<g style="mix-blend-mode:color-dodge" opacity="0.7">
<path d="M514.755 562.69C514.269 562.688 513.794 562.832 513.389 563.103C512.984 563.374 512.668 563.761 512.481 564.214C512.293 564.667 512.243 565.166 512.337 565.648C512.431 566.129 512.664 566.572 513.006 566.92C513.349 567.268 513.787 567.505 514.263 567.602C514.739 567.698 515.233 567.65 515.682 567.462C516.131 567.275 516.515 566.957 516.786 566.549C517.056 566.141 517.2 565.661 517.2 565.17C517.2 564.514 516.943 563.885 516.485 563.42C516.026 562.955 515.405 562.693 514.755 562.69Z" fill="#9AD8D0"/>
</g>
</g>
<g style="mix-blend-mode:color-dodge" opacity="0.69">
<g style="mix-blend-mode:color-dodge" opacity="0.69">
<path d="M1561.11 666.44C1560.62 666.438 1560.14 666.582 1559.74 666.853C1559.33 667.124 1559.02 667.511 1558.83 667.964C1558.64 668.417 1558.59 668.916 1558.69 669.398C1558.78 669.879 1559.01 670.322 1559.36 670.67C1559.7 671.018 1560.14 671.255 1560.61 671.352C1561.09 671.448 1561.58 671.4 1562.03 671.212C1562.48 671.025 1562.87 670.707 1563.14 670.299C1563.41 669.891 1563.55 669.411 1563.55 668.92C1563.55 668.594 1563.49 668.272 1563.37 667.97C1563.25 667.669 1563.07 667.395 1562.84 667.164C1562.61 666.933 1562.34 666.751 1562.05 666.626C1561.75 666.502 1561.43 666.439 1561.11 666.44Z" fill="#9AD8D0"/>
</g>
</g>
<g style="mix-blend-mode:color-dodge" opacity="0.78">
<g style="mix-blend-mode:color-dodge" opacity="0.78">
<path d="M329.772 494.56C329.287 494.56 328.812 494.706 328.409 494.978C328.005 495.251 327.69 495.638 327.505 496.091C327.319 496.544 327.27 497.043 327.365 497.524C327.46 498.005 327.693 498.447 328.037 498.794C328.38 499.141 328.817 499.377 329.293 499.472C329.77 499.568 330.263 499.519 330.712 499.331C331.16 499.144 331.543 498.826 331.813 498.418C332.083 498.01 332.227 497.531 332.227 497.04C332.227 496.382 331.968 495.752 331.508 495.286C331.048 494.821 330.423 494.56 329.772 494.56Z" fill="#9AD8D0"/>
</g>
</g>
<g style="mix-blend-mode:color-dodge" opacity="0.54">
<g style="mix-blend-mode:color-dodge" opacity="0.54">
<path d="M114.584 718.37C114.101 718.372 113.63 718.519 113.229 718.791C112.828 719.064 112.516 719.45 112.333 719.902C112.149 720.353 112.102 720.85 112.198 721.328C112.293 721.807 112.527 722.246 112.869 722.59C113.211 722.935 113.647 723.169 114.121 723.263C114.595 723.358 115.086 723.308 115.532 723.121C115.978 722.934 116.359 722.617 116.627 722.211C116.896 721.805 117.039 721.328 117.039 720.84C117.039 720.515 116.975 720.193 116.852 719.893C116.728 719.592 116.547 719.32 116.319 719.09C116.091 718.861 115.821 718.679 115.523 718.555C115.225 718.432 114.906 718.369 114.584 718.37Z" fill="#9AD8D0"/>
</g>
</g>
<g style="mix-blend-mode:color-dodge" opacity="0.36">
<g style="mix-blend-mode:color-dodge" opacity="0.36">
<path d="M303.951 759.5C303.465 759.498 302.989 759.642 302.584 759.914C302.179 760.186 301.863 760.573 301.676 761.026C301.489 761.48 301.439 761.979 301.533 762.461C301.628 762.943 301.862 763.386 302.206 763.734C302.55 764.081 302.988 764.317 303.465 764.413C303.942 764.508 304.436 764.458 304.885 764.269C305.334 764.08 305.717 763.761 305.986 763.352C306.255 762.942 306.398 762.461 306.396 761.97C306.393 761.316 306.135 760.689 305.677 760.226C305.219 759.764 304.599 759.503 303.951 759.5Z" fill="#9AD8D0"/>
</g>
</g>
<g style="mix-blend-mode:color-dodge" opacity="0.58">
<g style="mix-blend-mode:color-dodge" opacity="0.58">
<path d="M721.264 655.21C720.778 655.208 720.302 655.352 719.897 655.624C719.492 655.895 719.176 656.283 718.989 656.736C718.802 657.19 718.752 657.689 718.847 658.171C718.941 658.653 719.175 659.096 719.519 659.444C719.863 659.791 720.301 660.027 720.778 660.123C721.255 660.218 721.749 660.168 722.198 659.979C722.647 659.79 723.03 659.471 723.299 659.062C723.568 658.652 723.711 658.171 723.709 657.68C723.706 657.026 723.448 656.399 722.99 655.936C722.532 655.474 721.912 655.213 721.264 655.21Z" fill="#9AD8D0"/>
</g>
</g>
<g style="mix-blend-mode:color-dodge" opacity="0.79">
<g style="mix-blend-mode:color-dodge" opacity="0.79">
<path d="M483.857 674.92C483.371 674.918 482.895 675.062 482.49 675.334C482.085 675.606 481.769 675.993 481.582 676.446C481.395 676.9 481.345 677.399 481.44 677.881C481.534 678.363 481.768 678.806 482.112 679.154C482.456 679.501 482.894 679.737 483.371 679.833C483.848 679.928 484.342 679.878 484.791 679.689C485.24 679.5 485.623 679.181 485.892 678.772C486.161 678.362 486.304 677.881 486.302 677.39C486.302 677.066 486.239 676.744 486.116 676.445C485.993 676.145 485.813 675.873 485.586 675.643C485.359 675.414 485.089 675.232 484.793 675.108C484.496 674.984 484.178 674.92 483.857 674.92Z" fill="#9AD8D0"/>
</g>
</g>
<g style="mix-blend-mode:color-dodge" opacity="0.18">
<g style="mix-blend-mode:color-dodge" opacity="0.18">
<path d="M111.694 881.63C111.209 881.63 110.734 881.776 110.33 882.049C109.926 882.321 109.611 882.709 109.426 883.163C109.24 883.617 109.192 884.116 109.288 884.597C109.383 885.079 109.618 885.521 109.962 885.867C110.307 886.214 110.745 886.449 111.222 886.543C111.698 886.638 112.192 886.587 112.641 886.398C113.089 886.209 113.472 885.89 113.74 885.48C114.009 885.071 114.151 884.591 114.149 884.1C114.146 883.444 113.886 882.816 113.426 882.353C112.966 881.89 112.344 881.63 111.694 881.63Z" fill="#9AD8D0"/>
</g>
</g>
<g style="mix-blend-mode:color-dodge" opacity="0.14">
<g style="mix-blend-mode:color-dodge" opacity="0.14">
<path d="M139.544 856.36C139.058 856.358 138.583 856.502 138.178 856.773C137.773 857.044 137.457 857.431 137.27 857.884C137.082 858.337 137.032 858.836 137.126 859.318C137.219 859.799 137.452 860.242 137.795 860.59C138.138 860.938 138.575 861.175 139.052 861.272C139.528 861.368 140.022 861.319 140.471 861.132C140.92 860.945 141.304 860.627 141.574 860.219C141.845 859.811 141.989 859.331 141.989 858.84C141.99 858.515 141.928 858.192 141.805 857.892C141.683 857.591 141.503 857.317 141.276 857.087C141.049 856.856 140.779 856.674 140.482 856.549C140.185 856.424 139.866 856.36 139.544 856.36Z" fill="#9AD8D0"/>
</g>
</g>
<g style="mix-blend-mode:color-dodge" opacity="0.08">
<g style="mix-blend-mode:color-dodge" opacity="0.08">
<path d="M228.923 905.27C228.437 905.268 227.962 905.412 227.557 905.683C227.152 905.954 226.836 906.341 226.648 906.794C226.461 907.247 226.411 907.746 226.505 908.228C226.598 908.71 226.831 909.152 227.174 909.5C227.517 909.848 227.954 910.085 228.431 910.182C228.907 910.278 229.401 910.23 229.85 910.042C230.299 909.855 230.683 909.537 230.953 909.129C231.223 908.721 231.368 908.241 231.368 907.75C231.369 907.425 231.307 907.103 231.184 906.802C231.062 906.501 230.882 906.228 230.655 905.997C230.428 905.767 230.158 905.584 229.861 905.459C229.564 905.334 229.245 905.27 228.923 905.27Z" fill="#9AD8D0"/>
</g>
</g>
<g style="mix-blend-mode:color-dodge" opacity="0.48">
<g style="mix-blend-mode:color-dodge" opacity="0.48">
<path d="M429.919 950.56C429.436 950.56 428.963 950.705 428.561 950.976C428.159 951.248 427.846 951.634 427.661 952.085C427.476 952.536 427.428 953.033 427.522 953.512C427.616 953.991 427.849 954.431 428.191 954.777C428.533 955.122 428.968 955.357 429.442 955.453C429.917 955.548 430.408 955.499 430.855 955.312C431.302 955.125 431.683 954.809 431.952 954.402C432.221 953.996 432.364 953.519 432.364 953.03C432.365 952.705 432.303 952.384 432.181 952.083C432.058 951.783 431.878 951.51 431.651 951.281C431.424 951.051 431.154 950.869 430.856 950.745C430.559 950.622 430.241 950.559 429.919 950.56Z" fill="#9AD8D0"/>
</g>
</g>
</svg>
