<svg width="588" height="278" viewBox="0 0 588 278" fill="none" xmlns="http://www.w3.org/2000/svg">
<path d="M327 197.666H4" stroke="white" stroke-miterlimit="10"/>
<path d="M80.32 254.32V250.63H68.53C68.83 247.84 68.86 245.08 68.89 242.62H64.99C64.96 245.08 64.99 247.81 64.69 250.63H53.77V254.32H64.09C62.92 259.48 60.07 264.46 53.2 267.52C54.25 268.27 55.3 269.56 55.87 270.55C62.23 267.49 65.47 262.81 67.09 257.8C69.43 263.59 72.91 267.97 78.34 270.52C78.91 269.5 80.08 267.91 80.98 267.16C75.37 264.88 71.74 260.17 69.76 254.32H80.32ZM88.45 261.76C88.51 261.07 88.54 260.44 88.54 259.81H93.46V261.76H88.45ZM93.46 255.1V257.17H88.54V255.1H93.46ZM96.91 252.31H85.33V259.18C85.33 262.12 85.15 265.9 83.29 268.6C84.01 268.96 85.42 270.04 85.96 270.61C87.16 268.9 87.85 266.65 88.18 264.37H93.46V267.04C93.46 267.4 93.34 267.52 92.98 267.52C92.59 267.55 91.39 267.55 90.28 267.49C90.73 268.3 91.24 269.62 91.42 270.52C93.25 270.52 94.63 270.46 95.59 269.95C96.61 269.44 96.91 268.6 96.91 267.07V252.31ZM105.46 266.62C105.46 267.04 105.31 267.16 104.83 267.16C104.32 267.19 102.76 267.19 101.23 267.13C101.77 268.06 102.34 269.53 102.52 270.49C104.68 270.52 106.3 270.43 107.44 269.89C108.64 269.32 108.97 268.45 108.97 266.68V251.77H105.46V266.62ZM102.76 252.61H99.49V264.85H102.76V252.61ZM104.47 247.03C105.22 245.98 106.03 244.81 106.75 243.64L102.88 242.5C102.28 243.88 101.32 245.65 100.42 247.03H92.08L93.73 246.46C93.22 245.32 92.02 243.7 90.94 242.56L87.55 243.73C88.39 244.72 89.26 246.01 89.8 247.03H83.41V250.24H110.56V247.03H104.47ZM139.87 244.03H136.48V248.62H133.6V242.68H130.18V248.62H127.45V244.03H124.18V251.68H139.87V244.03ZM123.4 247.84H118.69L120.91 247.12C120.55 245.95 119.74 244.21 119.02 242.92L116.05 243.73C116.65 244.99 117.34 246.64 117.67 247.84H113.32V251.11H123.4V247.84ZM117.7 262.18C117.61 259.45 117.19 255.43 116.65 252.25L114.04 252.7C114.49 255.85 114.91 259.9 114.94 262.66L117.7 262.18ZM121.12 262.72C121.69 259.75 122.35 255.85 122.8 252.55L119.8 252.1C119.59 255.46 119.05 260.17 118.48 263.26C116.38 263.71 114.46 264.1 112.96 264.37L113.68 267.91C116.53 267.22 120.1 266.38 123.46 265.57L123.07 262.27L121.12 262.72ZM137.14 267.58C137.14 267.82 137.08 267.91 136.81 267.91C136.63 267.91 136.06 267.91 135.49 267.88V261.19H137.14V267.58ZM140.83 256.36V253.21H123.13V256.36H129.7C129.61 256.99 129.49 257.62 129.34 258.22H123.76V270.58H126.94V261.19H128.5V270.37H131.2V261.19H132.82V270.34H135.49V268.09C135.82 268.87 136.15 269.89 136.27 270.67C137.56 270.67 138.52 270.64 139.27 270.16C140.08 269.68 140.26 268.93 140.26 267.61V258.22H132.97L133.75 256.36H140.83ZM151.63 244.06H143.95V246.67H151.63V244.06ZM150.64 262.12H163.63V263.47H150.64V262.12ZM150.64 258.82H163.63V260.11H150.64V258.82ZM150.64 255.52H163.63V256.81H150.64V255.52ZM167.26 265.57V253.39H147.19V265.57H151.51C149.41 266.62 146.2 267.52 143.32 268.06C144.1 268.66 145.36 269.98 145.96 270.67C148.99 269.83 152.86 268.33 155.32 266.77L152.71 265.57H161.17L159.34 267.04C162.31 268.12 165.43 269.59 167.14 270.58L170.35 268.66C168.58 267.79 165.64 266.59 162.88 265.57H167.26ZM162.07 247.6V247H165.4C165.07 247.63 164.68 248.26 164.35 248.74L167.11 249.76C168.07 248.56 169.09 246.67 169.87 245.02L167.44 244.27L166.9 244.42H158.38C158.56 244 158.74 243.55 158.89 243.1L155.77 242.41C155.08 244.45 153.85 246.43 152.26 247.75C153.01 248.17 154.33 249.04 154.9 249.58C155.65 248.89 156.37 247.99 157 247H158.8V247.45C158.8 248.56 158.05 249.91 152.32 250.51V248.68H143.26V251.41H151.21C151.69 252.04 152.17 252.79 152.41 253.36C157.45 252.79 159.94 251.62 161.08 250.3C162.97 251.95 165.58 252.91 168.94 253.33C169.36 252.46 170.2 251.17 170.92 250.48C166.87 250.27 163.69 249.52 162.07 247.93V247.6ZM195.61 251.95C195.07 251.95 194.95 251.68 194.95 250.99V247.81H191.8V250.96C191.8 253.9 192.55 254.92 195.67 254.92H198.61C199.42 254.92 200.29 254.89 200.8 254.71C200.68 253.93 200.59 252.58 200.53 251.74C200.02 251.89 199.15 251.95 198.55 251.95H195.61ZM185.08 247H196.63V249.91H200.05V243.97H181.84V250.09H185.08V247ZM186.85 247.81C186.64 250.84 185.92 252.19 180.67 252.88C181.3 253.54 182.11 254.86 182.35 255.67C188.62 254.47 189.79 252.13 190.09 247.81H186.85ZM181.57 246.61C180.46 245.59 178.15 244.15 176.56 243.22L174.37 245.59C175.99 246.67 178.24 248.26 179.26 249.31L181.57 246.61ZM179.98 254.53C178.84 253.51 176.53 252.13 174.91 251.23L172.81 253.66C174.46 254.68 176.71 256.21 177.79 257.26L179.98 254.53ZM178.27 258.31C176.77 261.79 174.85 265.48 173.47 267.76L176.65 269.95C178.18 267.07 179.74 263.65 181.06 260.5L178.27 258.31ZM200.08 260.59V257.41H192.4V254.44H188.89V257.41H181.45V260.59H186.7C184.99 262.93 182.44 265 179.71 266.11C180.49 266.77 181.54 268.09 182.08 268.93C184.69 267.61 187.09 265.45 188.89 262.93V270.61H192.4V262.81C194.14 265.24 196.39 267.43 198.64 268.78C199.21 267.94 200.26 266.65 201.07 266.02C198.64 264.85 196.18 262.78 194.44 260.59H200.08ZM212.62 246.28V247.81H207.91V246.28H212.62ZM207.91 251.77V250.15H212.62V251.77H207.91ZM215.98 254.35V243.73H204.43V270.61H207.91V254.35H215.98ZM215.5 260.95V258.7H218.29V260.95H215.5ZM224.71 263.86V260.95H221.41V258.7H224.23V255.88H209.74V258.7H212.47V260.95H209.32V263.86H212.35C212.05 265.39 211.21 267.34 209.29 268.54C209.98 269.02 211.06 269.95 211.57 270.58C214.12 268.84 215.11 265.93 215.41 263.86H218.29V270.04H221.41V263.86H224.71ZM221.35 251.83V250.15H226.21V251.83H221.35ZM226.21 246.28V247.81H221.35V246.28H226.21ZM229.72 243.73H217.96V254.41H226.21V266.41C226.21 266.83 226.06 267.01 225.58 267.01C225.13 267.04 223.66 267.04 222.31 266.98C222.79 267.91 223.27 269.53 223.39 270.52C225.67 270.52 227.23 270.43 228.31 269.83C229.39 269.26 229.72 268.27 229.72 266.44V243.73ZM254.2 262.6C253.66 263.38 253.03 264.07 252.31 264.7C250.96 263.95 249.58 263.26 248.32 262.6H254.2ZM256.33 260.14L255.79 260.23H246.04V262.6H246.76L245.56 264.04C246.85 264.73 248.26 265.54 249.73 266.35C248.17 267.13 246.34 267.7 244.39 268.03C244.96 268.69 245.59 269.83 245.89 270.61C248.38 270.04 250.69 269.2 252.58 268.03C254.2 268.99 255.64 269.92 256.66 270.64L258.46 268.27C257.56 267.67 256.33 266.92 254.98 266.17C256.42 264.76 257.53 263.02 258.28 260.83L256.33 260.14ZM257.89 245.74C257.08 246.7 255.7 247.96 254.56 248.86C254.02 248.44 253.48 247.99 252.97 247.51C254.11 246.7 255.4 245.62 256.63 244.6L254.08 242.77C253.36 243.61 252.25 244.69 251.26 245.53C250.57 244.69 250 243.73 249.55 242.71L246.7 243.55C248.14 246.76 250.15 249.43 252.76 251.5H247.03V253.63C247.03 254.98 246.76 256.42 244.9 257.65V251.68H240.97C243.4 249.85 245.41 247.51 246.61 244.57L244.42 243.49L243.82 243.64H235.99V246.43H241.9C241.39 247.12 240.79 247.75 240.16 248.35C239.29 247.69 238.03 246.97 237.01 246.46L234.97 248.35C235.87 248.86 236.95 249.55 237.76 250.15C236.2 251.14 234.49 251.95 232.72 252.46C233.35 253.09 234.22 254.29 234.64 255.07C235.57 254.74 236.47 254.35 237.37 253.9V254.38H241.72V256.48H236.41C236.14 258.85 235.66 261.82 235.24 263.77H241.54C241.33 265.81 241.06 266.77 240.7 267.1C240.43 267.37 240.1 267.4 239.62 267.4C238.96 267.4 237.49 267.37 235.99 267.25C236.53 268.06 236.95 269.29 237.01 270.22C238.6 270.28 240.16 270.28 240.97 270.19C242.02 270.13 242.74 269.89 243.37 269.2C244.15 268.42 244.51 266.5 244.84 262.45C244.87 262.03 244.9 261.19 244.9 261.19H238.66C238.75 260.53 238.84 259.81 238.96 259.12H244.9V258.22C245.5 258.76 246.37 259.63 246.7 260.14C249.19 258.55 249.91 256.3 250 254.2H252.76V255.94C252.76 258.37 253.24 259.39 255.76 259.39H257.62C258.25 259.39 258.94 259.36 259.36 259.21C259.24 258.52 259.18 257.5 259.12 256.78C258.73 256.9 258.01 256.93 257.59 256.93H256.12C255.73 256.93 255.67 256.69 255.67 255.97V253.39C256.75 253.96 257.86 254.44 259.09 254.83C259.57 253.96 260.47 252.7 261.22 252.01C259.69 251.59 258.25 251.02 256.93 250.33C258.04 249.55 259.33 248.59 260.47 247.57L257.89 245.74ZM276.73 248.92H281.62C280.6 249.88 279.52 250.78 278.38 251.65H276.73V248.92ZM283.27 262.03H272.95V260.11H283.27V262.03ZM272.95 266.77V264.73H283.27V266.77H272.95ZM290.44 254.8V251.65H283.48C285.67 249.64 287.68 247.42 289.39 245.05L286.33 243.49C285.4 244.81 284.38 246.07 283.24 247.3V245.83H276.73V242.59H273.19V245.83H266.14V248.92H273.19V251.65H263.56V254.8H273.76C270.31 256.84 266.56 258.55 262.63 259.78C263.29 260.5 264.37 261.94 264.79 262.72C266.32 262.15 267.88 261.49 269.38 260.83V270.64H272.95V269.74H283.27V270.52H287.02V257.2H276.1C277.33 256.42 278.47 255.64 279.64 254.8H290.44ZM304.48 263.17C308.2 262.09 310.39 259.3 310.39 255.91C310.39 253.39 309.28 251.8 307.15 251.8C305.56 251.8 304.21 252.82 304.21 254.5C304.21 256.21 305.56 257.17 307.06 257.17C307.18 257.17 307.3 257.17 307.39 257.14C307.21 258.73 305.86 260.02 303.52 260.77L304.48 263.17ZM334.48 259.54H337.42C336.97 261.25 336.43 263.08 335.92 264.46H345.82C345.61 266.26 345.31 267.22 344.89 267.55C344.53 267.79 344.14 267.79 343.48 267.79C342.52 267.79 340.18 267.76 338.05 267.58C338.74 268.45 339.25 269.71 339.34 270.64C341.41 270.76 343.42 270.76 344.5 270.67C345.91 270.64 346.81 270.4 347.59 269.62C348.46 268.78 348.88 266.86 349.18 262.87C349.24 262.42 349.3 261.55 349.3 261.55H340.12C340.33 260.89 340.51 260.23 340.69 259.54H350.53V256.6H334.48V259.54ZM339.34 252.19C340.15 251.23 340.9 250.24 341.53 249.13H343.48C343.96 250.18 344.56 251.2 345.25 252.19H339.34ZM326.95 246.73H330.64V250.6H326.95V246.73ZM350.65 249.13V246.07H343.15C343.51 245.32 343.81 244.57 344.05 243.76L340.99 242.95C340.63 244.06 340.18 245.08 339.64 246.07H334.66V249.13H337.6C336.46 250.54 335.14 251.71 333.64 252.67V243.73H324.07V253.6H328.21V264.7L326.86 265.06V255.79H324.16V265.72C323.74 265.81 323.32 265.9 322.93 265.99L323.77 269.32C326.98 268.42 331.18 267.22 335.11 266.05L334.63 263.02L331.27 263.89V259.9H333.76V256.81H331.27V253.6H333.64V253.45C334.12 254.32 334.69 255.55 334.87 256.15C336.04 255.4 337.09 254.5 338.11 253.54V255.01H345.88V253.06C346.87 254.35 347.92 255.49 349.03 256.3C349.57 255.49 350.62 254.23 351.37 253.66C349.75 252.61 348.04 250.9 346.87 249.13H350.65ZM362.17 262.54C362.53 262.03 362.86 261.52 363.19 260.98H368.08V262.54H362.17ZM362.59 252.97C364.69 252.52 366.88 252.01 369.04 251.44C370.93 251.95 372.73 252.46 374.2 252.97H362.59ZM373.18 247.78C372.07 248.26 370.69 248.74 369.25 249.13C367.27 248.65 365.29 248.2 363.4 247.78H373.18ZM371.59 267.01V265.27H378.13V262.54H371.59V260.98H379V258.19H371.59V256.36H368.08V258.19H364.6C364.78 257.77 364.93 257.38 365.08 256.99L362.05 256.09C361.3 258.16 360.07 260.08 358.63 261.49C358.75 260.35 358.78 259.3 358.78 258.34V255.82H380.56V252.97H376.15L377.83 251.59C376.48 251.14 374.86 250.66 373.09 250.18C374.44 249.7 375.7 249.19 376.78 248.68L375.34 247.78H379.69V244.99H369.31C368.8 244.09 367.99 243.04 367.3 242.26L364.9 243.43C365.26 243.88 365.68 244.42 366.04 244.99H355.6V247.78H360.76L359.08 249.07C360.85 249.4 362.8 249.82 364.69 250.3C362.38 250.84 360.01 251.26 357.85 251.59C358.27 251.92 358.87 252.46 359.35 252.97H355.3V258.31C355.3 261.4 355.06 265.66 352.63 268.66C353.38 269.05 354.85 270.31 355.39 270.97C357.37 268.54 358.24 265.09 358.6 261.97C359.11 262.81 359.8 264.34 360.01 264.97C360.58 264.43 361.18 263.8 361.72 263.11V265.27H368.08V267.01H358.99V269.89H381.04V267.01H371.59ZM391.96 264.79C390.13 265.9 386.65 266.92 383.65 267.34C384.37 268 385.3 269.17 385.75 269.92C388.84 269.2 392.44 267.64 394.48 265.93L391.96 264.79ZM400.03 266.29C402.55 267.34 406.06 268.93 407.8 269.92L410.32 267.97C408.4 267.01 404.86 265.51 402.43 264.61L400.03 266.29ZM401.29 250.27C400.87 250.99 400.24 251.89 399.76 252.58L400.84 252.91H392.65L394.27 252.52C394.03 251.89 393.55 251.02 393.07 250.27H401.29ZM398.74 260.86V259.54H407.74V256.96H398.74V255.61H409.15V252.91H403.36C403.9 252.37 404.53 251.71 405.19 250.99L402.37 250.27H410.29V247.48H406.42C407.17 246.43 407.98 245.08 408.82 243.7L405.07 242.83C404.65 244.12 403.84 245.95 403.15 247.15L404.23 247.48H401.56V242.59H398.2V247.48H395.95V242.59H392.65V247.48H389.89L391.33 246.94C390.94 245.8 389.95 244 389.05 242.74L385.99 243.76C386.68 244.9 387.46 246.34 387.91 247.48H383.83V250.27H391.48L389.47 250.72C389.86 251.38 390.31 252.22 390.58 252.91H385.06V255.61H395.2V256.96H386.56V259.54H395.2V260.86H383.77V263.8H395.2V270.64H398.74V263.8H410.38V260.86H398.74ZM440.14 246.37H429.52L429.61 246.34C429.22 245.2 428.23 243.49 427.42 242.2L424 243.4C424.54 244.3 425.11 245.38 425.53 246.37H413.83V249.85H440.14V246.37ZM429.85 251.95C432.52 253.9 435.85 256.72 437.32 258.58L440.38 256.27C438.73 254.35 435.25 251.71 432.67 249.94L429.85 251.95ZM420.94 250.12C419.2 252.28 416.29 254.47 413.62 255.82C414.43 256.42 415.78 257.71 416.44 258.43C419.11 256.81 422.35 254.08 424.39 251.44L420.94 250.12ZM430.93 255.28C430.06 257.62 428.74 259.57 427.03 261.19C425.38 259.57 424.09 257.62 423.19 255.43L419.98 256.42C421.12 259.09 422.59 261.4 424.36 263.32C421.42 265.27 417.73 266.56 413.38 267.4C414.07 268.18 415.12 269.77 415.54 270.58C419.95 269.5 423.82 267.97 427 265.72C430.03 268 433.78 269.53 438.52 270.43C438.97 269.47 439.9 268 440.68 267.22C436.27 266.56 432.67 265.27 429.79 263.38C431.74 261.46 433.33 259.12 434.53 256.33L430.93 255.28ZM465.16 247.69C464.59 248.65 463.9 249.46 463.09 250.24C462.22 249.49 461.5 248.74 460.9 247.93L461.11 247.69H465.16ZM467.41 244.87L466.84 244.96H462.88C463.12 244.45 463.36 243.94 463.6 243.46L460.42 242.59C459.22 245.5 456.94 248.14 454.3 249.79C455.05 250.3 456.31 251.38 456.88 251.95C457.57 251.44 458.26 250.84 458.95 250.15C459.46 250.84 460.03 251.5 460.63 252.1C458.8 253.27 456.55 254.11 454.21 254.59C454.81 255.28 455.56 256.54 455.89 257.38C458.59 256.66 461.08 255.61 463.18 254.17C465.01 255.37 467.2 256.39 469.75 257.02C470.23 256.09 471.13 254.68 471.82 253.99C469.51 253.6 467.5 252.88 465.79 251.98C467.44 250.3 468.7 248.26 469.57 245.74L467.41 244.87ZM447.16 250.03C448.06 248.98 448.9 247.84 449.65 246.61C450.91 247.81 452.2 249.1 452.92 250.03H447.16ZM451.03 258.19H454.48V255.19H451.03V252.97H453.76V250.03H453.07L455.59 248.2C454.57 247.09 452.59 245.38 451.09 244.03C451.21 243.76 451.33 243.49 451.45 243.22L448.33 242.38C447.13 245.17 444.88 248.05 442.72 249.82C443.62 250.36 444.73 251.26 445.33 251.92V252.97H448V255.19H444.16V258.19H448V266.11C446.41 266.38 444.94 266.62 443.74 266.8L444.46 269.95C447.46 269.38 451.33 268.6 455.02 267.85L454.75 264.91C453.49 265.15 452.23 265.36 451.03 265.6V258.19ZM444.13 259.9C444.58 261.58 445.03 263.74 445.09 265.15L447.37 264.52C447.25 263.14 446.8 261.01 446.26 259.36L444.13 259.9ZM453.67 264.43C454.06 263.2 454.51 261.31 454.96 259.6L452.53 259.03C452.38 260.47 451.96 262.57 451.57 263.89L453.67 264.43ZM464.71 263.62H469.39V261.04H464.71V259.84H469.48V257.29H464.71V255.73H461.29V257.29H456.61V259.84H461.29V261.04H456.79V263.62H461.29V264.94H455.29V267.67H461.29V270.58H464.71V267.67H470.86V264.94H464.71V263.62Z" fill="#A5F9F9"/>
<path d="M41.16 240.07V248.07H32.62V245.58L25.62 243.31L18.56 245.58V250.41L26.49 247.92L41.19 252.66V267.22L25.62 272.37L10 267.22V240.07L25.59 235L41.16 240.07ZM18.53 258.22V261.75L25.59 264L32.59 261.79V258.22L25.59 255.93L18.53 258.22Z" fill="#A5F9F9"/>
<path opacity="0.6" d="M141 54L141 65L249 65L249 54L141 54Z" fill="url(#paint0_linear)"/>
<g filter="url(#filter0_d)">
<path d="M29.7544 5.64198V31.7481H22.941V21.2705H10.8134V31.7431H4V5.63696H10.8134V15.0904H22.941V5.64198H29.7544Z" fill="white"/>
<path d="M40.6153 4L45.4841 7.8858L40.6153 11.7415L35.7366 7.8858L40.6153 4ZM43.9898 12.9715V31.7428H37.2111V12.9715H43.9898Z" fill="white"/>
<path d="M80.5124 11.5309H62.6254V25.7638H80.5124V31.7431H56V5.63696H80.5124V11.5309ZM64.3819 15.487H78.7707V21.4312H64.3819V15.487Z" fill="white"/>
<path d="M92.5214 8.88965L98.9538 17.7657L105.747 8.88965L111.022 13.408L104.426 21.3051L111.824 28.2182L107.128 33.3642L98.9637 24.6638L91.1706 33.3642L86.4502 28.2182L93.5159 21.3051L87.2468 13.4331L92.5214 8.88965Z" fill="white"/>
<path d="M140.878 13.8649V28.4241L129.824 33.3441L126.415 31.5317V25.5072L129.824 26.943L134.446 25.0152V18.1975L129.78 15.8228L125.084 18.1975V36.5672H118.652V13.8649L129.785 8.88965L140.878 13.8649Z" fill="white"/>
<path d="M168.904 20.5069L158.864 24.7592L156.509 19.7388L162.115 17.3641L158.74 15.627L154.238 18.323V24.4278L158.745 26.6418L167.429 23.489L169.646 29.2575L158.76 33.3642L148.092 27.9471V15.0899L158.74 8.88965L168.904 13.9603V20.5069Z" fill="white"/>
<path d="M182.719 10.5667V12.0728L187.949 8.93506L195.766 12.6301V19.9649L187.949 16.2699L182.719 19.4076V31.7428H176.469V10.5667H182.719Z" fill="white"/>
</g>
<path d="M196.506 103.977C197.048 102.658 197.665 101.257 198.199 100.015L191.346 95.6663C187.633 105.212 181.682 113.711 174 120.439C175.987 122.972 177.668 125.734 179.01 128.666C180.709 127.037 182.327 125.25 183.944 123.386L186.795 119.817C188.851 117.057 190.804 114.068 192.737 110.886C195.588 113.84 203.833 123.545 204.607 124.628L209 117.174C206.451 113.681 201.208 108.401 196.506 103.977Z" fill="white"/>
<path d="M234.618 152.666L228 157.224C232.102 160.317 237.462 164.786 239.924 167.666L247 162.559C244.231 159.623 238.611 155.526 234.618 152.666Z" fill="white"/>
<path d="M203 161.921C205.025 163.722 206.936 165.64 208.724 167.666C214.715 165.209 220.222 161.749 225 157.443L217.75 152.666C214.671 155.877 208.419 159.831 203 161.921Z" fill="white"/>
<path d="M549.004 123.679C548.982 123.285 549.046 122.891 549.193 122.522C549.341 122.152 549.568 121.816 549.861 121.533C550.154 121.25 550.507 121.027 550.896 120.878C551.286 120.729 551.704 120.657 552.124 120.667C552.777 120.665 553.408 120.884 553.901 121.284L553.138 122.259C552.887 122.026 552.55 121.892 552.197 121.883C551.275 121.883 550.643 122.587 550.643 123.667C550.643 124.747 551.301 125.438 552.157 125.438C552.598 125.418 553.017 125.254 553.342 124.975L554 125.969C553.453 126.417 552.752 126.664 552.026 126.666C550.321 126.679 549.004 125.574 549.004 123.679Z" fill="#A5F9F9"/>
<path d="M556 125.828L556.77 124.886C557.246 125.26 557.854 125.478 558.49 125.502C559.135 125.502 559.419 125.262 559.419 124.886C559.419 124.51 558.725 124.27 558.073 124.03C557.262 123.753 556.319 123.315 556.319 122.366C556.319 121.418 557.262 120.666 558.698 120.666C559.498 120.678 560.271 120.925 560.896 121.369L560.133 122.274C559.738 121.989 559.254 121.819 558.746 121.787C558.171 121.787 557.893 122.009 557.893 122.336C557.893 122.755 558.531 122.909 559.204 123.136C560.057 123.42 561 123.796 561 124.855C561 125.915 560.112 126.666 558.434 126.666C557.541 126.633 556.685 126.339 556 125.828Z" fill="#A5F9F9"/>
<path d="M563 125.884L563.614 124.941C563.994 125.316 564.479 125.533 564.986 125.557C565.501 125.557 565.728 125.317 565.728 124.941C565.728 124.566 565.174 124.325 564.654 124.085C564.007 123.808 563.255 123.371 563.255 122.422C563.255 121.473 564.007 120.666 565.163 120.666C565.8 120.679 566.415 120.926 566.911 121.369L566.308 122.274C565.992 121.991 565.607 121.821 565.202 121.787C564.743 121.787 564.527 122.009 564.527 122.336C564.527 122.755 565.03 122.909 565.567 123.136C566.248 123.42 567 123.796 567 124.855C567 125.915 566.292 126.666 564.953 126.666C564.242 126.652 563.556 126.377 563 125.884Z" fill="#A5F9F9"/>
<path d="M47 154.666V131.721L52.0034 127.666L57 131.721V154.666H47Z" fill="url(#paint1_linear)"/>
<path d="M52.0034 123.666L47 127.264V129.666L52.0034 126.069L57 129.666V127.264L52.0034 123.666Z" fill="url(#paint2_linear)"/>
<path d="M201 125.166C201 124.202 199.758 123.285 197.857 122.717C198.292 120.822 198.102 119.297 197.239 118.838C197.027 118.718 196.784 118.658 196.538 118.667C195.696 118.667 194.602 119.249 193.486 120.261C192.377 119.256 191.283 118.681 190.441 118.681C190.195 118.672 189.952 118.732 189.739 118.852C188.884 119.331 188.687 120.836 189.129 122.717C187.235 123.292 186 124.202 186 125.166C186 126.131 187.242 127.048 189.143 127.623C188.701 129.511 188.898 131.043 189.761 131.502C189.976 131.615 190.218 131.672 190.462 131.666C191.297 131.666 192.399 131.084 193.507 130.072C194.616 131.077 195.717 131.652 196.552 131.652C196.796 131.658 197.038 131.601 197.254 131.488C198.109 131.002 198.299 129.504 197.857 127.616C199.793 127.048 201 126.131 201 125.166ZM196.58 119.351C196.702 119.348 196.823 119.377 196.931 119.433C197.345 119.666 197.527 120.549 197.387 121.684C197.352 121.965 197.296 122.259 197.232 122.56C196.592 122.41 195.943 122.301 195.289 122.232C194.902 121.71 194.481 121.214 194.026 120.747C195.015 119.823 195.949 119.351 196.58 119.351ZM190.841 126.713C190.981 126.954 191.129 127.182 191.283 127.397C190.848 127.335 190.427 127.253 190.027 127.157C190.144 126.761 190.282 126.37 190.441 125.987C190.567 126.193 190.701 126.453 190.841 126.692V126.713ZM190.02 123.203C190.42 123.114 190.841 123.032 191.276 122.97C191.129 123.196 190.981 123.436 190.841 123.655C190.701 123.873 190.567 124.127 190.441 124.339C190.28 123.969 190.139 123.572 190.02 123.182V123.203ZM190.799 125.201C190.991 124.795 191.201 124.398 191.43 124.01C191.669 123.607 191.914 123.23 192.167 122.875C192.623 122.834 193.079 122.813 193.57 122.813C194.061 122.813 194.496 122.813 194.973 122.868C195.226 123.224 195.471 123.6 195.71 124.003C195.949 124.407 196.152 124.79 196.348 125.187C196.152 125.584 195.942 125.981 195.717 126.371C195.493 126.761 195.233 127.157 194.98 127.506C194.524 127.547 194.061 127.568 193.577 127.568C193.093 127.568 192.658 127.568 192.209 127.513C191.957 127.157 191.704 126.781 191.465 126.384C191.227 125.987 190.988 125.577 190.799 125.18V125.201ZM196.25 126.706C196.391 126.466 196.517 126.227 196.643 125.987C196.807 126.374 196.948 126.769 197.064 127.171C196.664 127.267 196.243 127.349 195.808 127.41C195.956 127.157 196.089 126.925 196.25 126.685V126.706ZM196.25 123.668C196.11 123.429 195.963 123.196 195.815 122.984C196.243 123.046 196.664 123.121 197.064 123.217C196.952 123.6 196.811 123.997 196.65 124.393C196.517 124.14 196.391 123.88 196.243 123.648L196.25 123.668ZM194.391 122.17C194.12 122.17 193.839 122.17 193.549 122.17C193.261 122.17 192.981 122.17 192.7 122.17C192.963 121.839 193.244 121.521 193.542 121.219C193.839 121.515 194.12 121.825 194.384 122.149L194.391 122.17ZM190.146 119.433C190.255 119.381 190.376 119.355 190.497 119.358C191.483 119.523 192.385 120.004 193.058 120.726C192.606 121.194 192.186 121.689 191.802 122.211C191.148 122.279 190.499 122.389 189.859 122.539C189.789 122.245 189.739 121.958 189.697 121.677C189.55 120.542 189.725 119.659 190.139 119.42L190.146 119.433ZM189.375 126.993C189.073 126.897 188.785 126.795 188.526 126.685C187.445 126.241 186.744 125.645 186.744 125.18C186.744 124.715 187.445 124.12 188.526 123.675C188.785 123.566 189.073 123.47 189.368 123.374C189.559 123.993 189.793 124.599 190.069 125.187C189.797 125.769 189.562 126.368 189.368 126.979L189.375 126.993ZM190.476 130.982C190.357 130.986 190.239 130.96 190.132 130.906C189.711 130.674 189.536 129.791 189.676 128.656C189.712 128.361 189.764 128.069 189.831 127.78C190.468 127.931 191.115 128.038 191.767 128.101C192.155 128.624 192.579 129.12 193.037 129.586C192.069 130.51 191.136 130.982 190.476 130.982ZM193.521 129.121C193.24 128.833 192.953 128.519 192.672 128.17C192.946 128.17 193.226 128.17 193.514 128.17C193.802 128.17 194.082 128.17 194.363 128.17C194.11 128.508 193.838 128.832 193.549 129.141L193.521 129.121ZM196.924 130.893C196.816 130.947 196.695 130.973 196.573 130.968C195.585 130.802 194.682 130.321 194.005 129.6C194.459 129.133 194.881 128.637 195.268 128.115C195.922 128.046 196.571 127.936 197.211 127.787C197.282 128.088 197.331 128.375 197.366 128.649C197.541 129.791 197.359 130.681 196.952 130.913L196.924 130.893ZM198.544 126.651C198.278 126.761 197.99 126.863 197.696 126.952C197.505 126.333 197.27 125.727 196.994 125.139C197.268 124.555 197.503 123.954 197.696 123.34C197.986 123.426 198.272 123.526 198.551 123.641C199.632 124.092 200.333 124.681 200.333 125.146C200.333 125.611 199.653 126.227 198.573 126.672L198.544 126.651Z" fill="#A5F9F9"/>
<path d="M193.5 125.666C194.328 125.666 195 125.219 195 124.666C195 124.114 194.328 123.666 193.5 123.666C192.672 123.666 192 124.114 192 124.666C192 125.219 192.672 125.666 193.5 125.666Z" fill="#A5F9F9"/>
<path d="M451 119.666H431V126.666H451V119.666Z" fill="white"/>
<path d="M454 108.529H442.514L447.704 105.795C446.129 102.239 444.178 98.8458 441.883 95.6663L434.544 98.9546C436.494 102.018 438.201 105.216 439.649 108.522H428V115.666H454V108.529Z" fill="white"/>
<path d="M451 129.666H431V136.666H451V129.666Z" fill="white"/>
<path d="M452 158.399V140.666H431V166.666H438.365V163.504H446.757L452 158.399ZM438.365 156.269V147.828H444.566V156.269H438.365Z" fill="white"/>
<path d="M505.627 113.063L504.777 112.212L492.812 124.176L493.663 125.027L505.627 113.063Z" fill="white"/>
<path d="M353.515 119.555L352.664 118.705L339.675 131.694L340.526 132.545L353.515 119.555Z" fill="white"/>
<path d="M14.4223 109.99L13.5715 109.139L3.99993 118.711L4.85074 119.562L14.4223 109.99Z" fill="white"/>
<path d="M75.261 154.424L74.4102 153.573L64.8386 163.144L65.6894 163.995L75.261 154.424Z" fill="white"/>
<path d="M165.169 119.901L164.318 119.05L152.354 131.014L153.205 131.865L165.169 119.901Z" fill="white"/>
<path d="M248.228 142.118L247.378 141.267L237.806 150.839L238.657 151.69L248.228 142.118Z" fill="white"/>
<path d="M330.948 105.887L330.097 105.036L320.526 114.607L321.376 115.458L330.948 105.887Z" fill="white"/>
<path d="M588 157.157L587.149 156.306L577.578 165.878L578.428 166.729L588 157.157Z" fill="white"/>
<path d="M499.131 119.548C499.711 118.85 500.336 118.19 501 117.575C492.899 114.847 485.328 109.314 480.815 103.082C481.352 102.23 481.889 101.372 482.344 100.513L475.466 95.6663C470.573 104.779 460.515 113.815 451 118.018C453.165 120.637 454.967 123.547 456.355 126.666C458.74 125.324 461.013 123.787 463.152 122.069V125.572H488.379V122.242C490.032 123.362 491.76 124.361 493.551 125.233L499.131 119.548ZM468.507 117.727C471.153 115.281 473.63 112.653 475.922 109.861C477.963 112.675 480.237 115.307 482.718 117.727H468.507Z" fill="white"/>
<path d="M456 129.666V167.666H460.286L463.442 164.59V151.924H467.238V165.472H473.516V151.924H477.312V165.472H483.438V151.924H487.572V158.809C487.572 159.415 487.414 159.644 486.952 159.644C486.49 159.644 485.167 159.644 483.851 159.57C484.771 161.986 485.395 164.501 485.712 167.061C486.939 167.082 488.166 167.019 489.384 166.872L494.897 161.488C494.972 160.747 495 159.92 495 158.977V129.666H456ZM467.238 144.581H463.442V137.009H467.238V144.581ZM477.312 144.581H473.516V137.009H477.312V144.581ZM487.545 144.581H483.41V137.009H487.545V144.581Z" fill="white"/>
<path d="M329 107.412H315.941C314.658 103.339 312.996 99.405 310.98 95.6663L302.835 97.9661C304.296 101.018 305.546 104.175 306.575 107.412H293V115.666H321.12L329 107.412Z" fill="white"/>
<path d="M324.758 155.785C324.684 157.139 324.535 157.816 324.305 158.067C324.229 158.198 324.116 158.305 323.98 158.373C323.845 158.442 323.692 158.469 323.541 158.453H322.865C322.727 158.452 322.594 158.407 322.484 158.324C322.374 158.241 322.294 158.125 322.256 157.992C322.026 157.688 322.108 156.774 322.108 155.102V121.666H297.222V138.8C297.222 146.416 296.546 155.86 290 162.562C292.581 163.93 294.961 165.647 297.073 167.666C304.451 160.125 305.668 148.034 305.668 138.956V129.512H313.506V155.325C313.506 160.964 313.959 162.636 315.251 164.085C316.577 165.366 318.351 166.075 320.194 166.062H323.771C325.261 166.114 326.728 165.687 327.957 164.843C329.075 163.81 329.845 162.455 330.161 160.964C330.621 159.136 330.926 154.641 331 150.911C328.815 150.191 326.778 149.081 324.988 147.635C324.988 151.446 324.914 154.492 324.758 155.785Z" fill="white"/>
<path d="M282 124.222C280.806 120.609 279.353 117.082 277.654 113.666L272 115.873C273.612 119.362 274.936 122.971 275.958 126.666L282 124.222Z" fill="white"/>
<path d="M199.984 159.961C198.942 158.78 197.793 157.551 196.53 156.253C201.273 149.826 205.133 142.759 208 135.25L202.716 131.666L201.44 132.051H178V139.603H197.76C195.75 143.504 193.386 147.201 190.699 150.644C188.969 149.023 187.165 147.478 185.589 146.167L180.104 151.111C185.229 155.577 190.011 160.443 194.406 165.666L199.984 159.961Z" fill="white"/>
<path d="M293.545 126.015L290.107 126.483V105.186H279.554C280.472 102.708 281.47 100.003 282.388 97.215L273.289 95.6663C272.906 98.8746 272.318 102.054 271.53 105.186H264.348V130.042C262.438 130.276 260.604 130.51 259 130.661L260.067 138.233L264.348 137.545C264.191 146.603 263.43 156.901 259 164.259C260.56 165.047 262.059 165.954 263.485 166.971L269.063 161.313C271.102 154.787 271.876 147.14 272.141 140.257C273.918 143.797 275.403 147.481 276.578 151.27L282.231 148.716C280.798 144.902 279.139 141.178 277.264 137.565L272.148 139.796C272.148 138.639 272.229 137.476 272.229 136.313L282.238 134.688V158.78C282.238 159.633 281.858 159.943 281.09 159.943C280.173 160.019 277.652 160.019 275.206 159.943C276.336 162.391 277.107 164.993 277.495 167.666C281.926 167.666 284.97 167.508 287.198 166.118C289.427 164.727 290.107 162.635 290.107 158.842V133.525L294 132.905L293.545 126.015ZM282.231 127.639C278.793 128.108 275.437 128.651 272.223 129.016V112.29H282.231V127.639Z" fill="white"/>
<path d="M580 110.666H537V135.666H580V110.666ZM572.204 130.42H544.425V115.796H572.218L572.204 130.42Z" fill="white"/>
<path d="M578 157.666V138.666H540V157.666H578ZM548.261 143.344H569.272V145.904H548.261V143.344ZM548.261 150.354H569.272V152.995H548.261V150.354Z" fill="white"/>
<path d="M536.294 141.266L530.027 143.506V122.643H535.654V113.901H530.006V96.6663H521.441V113.901H514.397V122.643H521.441V146.53C518.263 147.616 515.401 148.537 513 149.238L516.02 158.666C522.597 156.117 530.57 152.866 538 149.623L536.294 141.266Z" fill="white"/>
<path d="M584 103.516V102.046H563.642C562.224 99.3877 560.489 96.9099 558.475 94.6663L551.154 98.1269C552.165 99.3635 553.082 100.673 553.898 102.046H534V108.666H578.833L584 103.516Z" fill="white"/>
<path d="M584 160.593V159.666H532V166.666H578.133L584 160.593Z" fill="white"/>
<path d="M17.6118 120.666L11.2438 127.023V138.313C11.2438 145.848 10.7846 155.569 6 162.508C8.48868 163.939 10.791 165.671 12.8547 167.666C15.9393 163.275 17.7147 157.5 18.5646 151.643H32.1369V158.494C32.1369 159.418 31.8284 159.727 30.9031 159.727C29.9777 159.727 26.7902 159.802 23.9593 159.651C25.2757 162.105 26.2621 164.722 26.8931 167.433C29.2292 167.482 31.5658 167.363 33.8848 167.077L40.9589 160.008C40.9863 159.551 41 159.071 41 158.569V120.666H17.6118ZM32.1438 144.937H19.2638C19.4215 143.163 19.4969 141.546 19.4969 139.929H32.1438V144.937ZM32.1438 133.148H19.4969V127.832H32.1438V133.148Z" fill="white"/>
<path d="M111.044 147.515C112.509 140.025 114.249 130.133 115.37 121.807L107.64 120.666C107.021 129.168 105.701 141.085 104.236 148.905C98.8166 150.039 93.865 151.024 90 151.712L91.8569 160.666C99.1192 158.919 108.41 156.773 117 154.728L116.072 146.375L111.044 147.515Z" fill="white"/>
<path d="M76 107.384H60.4079C62.327 104.666 64.4032 101.646 66.2473 98.618L56.3374 95.6663C54.5392 99.7329 52.4317 103.653 50.0337 107.39H28.6773L32.9049 105.915C31.6004 102.97 28.5271 98.7766 25.7611 95.8318L25.0166 96.0869L19.3548 101.811C20.6371 103.591 21.8007 105.455 22.838 107.39H15.1956L7 115.666H67.8454V115.632L76 107.384Z" fill="white"/>
<path d="M71.8346 119.666H68.6644L62.9304 125.356V157.741C62.9304 158.821 62.5445 159.108 61.3039 159.108C60.0634 159.108 55.9559 159.184 52 159.033C53.5224 161.729 54.6458 164.629 55.3356 167.642C57.7453 167.708 60.1567 167.638 62.5582 167.43L72 158.069V119.865L71.8346 119.666Z" fill="white"/>
<path d="M104.85 109.287L110.581 107.44C109.323 103.682 107.663 100.07 105.627 96.6663L105.173 96.7894L99.669 102.262C100.704 104.54 101.584 106.885 102.304 109.28H94.6671L91 112.926V117.666H117V109.287H104.85Z" fill="white"/>
<path d="M99.2108 120.666L98.6206 120.77L93 126.309C93.9738 133.39 94.5251 140.521 94.651 147.666L102 146.42C101.592 137.788 100.661 129.188 99.2108 120.666Z" fill="white"/>
<path d="M141.019 136.304L142.999 131.601H153.04L161 123.72V123.666H116V131.601H132.706C132.481 133.183 132.176 134.753 131.791 136.304H117.6V167.438H125.689V143.782H129.648V166.907H136.51V143.782H140.632V166.833H147.413V161.169C148.314 163.255 148.978 165.435 149.392 167.666C150.314 167.666 151.155 167.666 151.948 167.619L159.535 160.108V136.727L159.108 136.304H141.019ZM151.616 159.879C151.616 160.484 151.467 160.713 150.782 160.713C150.321 160.713 148.87 160.713 147.426 160.639V143.782H151.616V159.879Z" fill="white"/>
<path d="M154.886 100.115L150.358 104.66V111.843H143.015V96.6663H138.616L134.298 100.994V111.843H127.336V100.115H124.29L119 105.423V119.666H153.085L159 113.737V100.115H154.886Z" fill="white"/>
<path d="M243.947 146.942V111.625H230.555C231.096 109.997 231.554 108.211 232.095 106.432H240.991L246 101.384V98.6663H208V106.425H222.371C222.138 108.128 221.905 109.915 221.597 111.618H210.621V152.666H238.254L243.947 146.942ZM235.482 145.928H218.703V140.873H235.482V145.928ZM235.482 134.68H218.703V129.639H235.482V134.68ZM218.703 123.28V118.452H235.482V123.28H218.703Z" fill="white"/>
<path d="M379 144.666L383.003 151.666L387 144.666H384.55L383.023 147.33L381.47 144.666H379Z" fill="url(#paint3_linear)"/>
<path d="M388.999 144.666L383.003 154.914L376.953 144.666H373L383.003 161.666L393 144.666H388.999Z" fill="url(#paint4_linear)"/>
<path d="M405.904 127.005L414 118.92H396.67C402.285 113.802 407.366 108.127 411.834 101.985L403.998 97.98C401.577 101.413 398.928 104.679 396.067 107.755V103.983H379.319V95.6663H370.222V103.983H361.105L353.16 111.917H370.222V118.92H352.968L345.468 126.416V127.005H371.689C362.647 132.347 353.021 136.637 343 139.792C345.108 142.12 346.992 144.641 348.628 147.322C352.563 145.857 356.573 144.166 360.433 142.468V167.666H369.605V165.353H396.135V167.358H398.404L405.664 160.075V133.165H377.701C380.862 131.167 383.796 129.161 386.805 127.005H405.904ZM396.135 140.634V157.747H387.408L383.151 165.065L378.887 157.734H369.605V140.62L396.135 140.634ZM379.319 118.92V111.917H391.892C389.239 114.394 386.459 116.731 383.563 118.92H379.319Z" fill="white"/>
<g filter="url(#filter1_d)">
<path d="M4 66.5961L22.9889 55.5056V52.0886L17.0931 50.1663L11.1712 52.0886V55.9703H4V47.4147L17.067 43.1211L30.1339 47.4147V58.9595L15.8178 66.5961H30.1496V73.0392H4.0157L4 66.5961Z" fill="white"/>
<path d="M62.9198 47.2936V70.2987L49.8528 74.6662L36.7859 70.2987V47.2936L49.8528 43L62.9198 47.2936ZM55.7591 51.9675L49.8528 50.0452L43.9361 51.9675V65.6617L49.8528 67.6369L55.7539 65.6617L55.7591 51.9675Z" fill="white"/>
<path d="M70.1345 66.5959L89.1286 55.5054V52.0884L83.2276 50.166L77.3213 52.1042V55.9859H70.1345V47.4304L83.2015 43.1367L96.2684 47.4304V58.9751L81.9523 66.5959H96.2893V73.039H70.1554L70.1345 66.5959Z" fill="white"/>
<path d="M120.312 44.9058V73.0494H112.268V51.8981H108.917V44.9058H120.312Z" fill="white"/>
</g>
<defs>
<filter id="filter0_d" x="0" y="0" width="199.766" height="40.5672" filterUnits="userSpaceOnUse" color-interpolation-filters="sRGB">
<feFlood flood-opacity="0" result="BackgroundImageFix"/>
<feColorMatrix in="SourceAlpha" type="matrix" values="0 0 0 0 0 0 0 0 0 0 0 0 0 0 0 0 0 0 127 0"/>
<feOffset/>
<feGaussianBlur stdDeviation="2"/>
<feColorMatrix type="matrix" values="0 0 0 0 1 0 0 0 0 1 0 0 0 0 1 0 0 0 1 0"/>
<feBlend mode="normal" in2="BackgroundImageFix" result="effect1_dropShadow"/>
<feBlend mode="normal" in="SourceGraphic" in2="effect1_dropShadow" result="shape"/>
</filter>
<filter id="filter1_d" x="0" y="39" width="124.312" height="39.6662" filterUnits="userSpaceOnUse" color-interpolation-filters="sRGB">
<feFlood flood-opacity="0" result="BackgroundImageFix"/>
<feColorMatrix in="SourceAlpha" type="matrix" values="0 0 0 0 0 0 0 0 0 0 0 0 0 0 0 0 0 0 127 0"/>
<feOffset/>
<feGaussianBlur stdDeviation="2"/>
<feColorMatrix type="matrix" values="0 0 0 0 1 0 0 0 0 1 0 0 0 0 1 0 0 0 1 0"/>
<feBlend mode="normal" in2="BackgroundImageFix" result="effect1_dropShadow"/>
<feBlend mode="normal" in="SourceGraphic" in2="effect1_dropShadow" result="shape"/>
</filter>
<linearGradient id="paint0_linear" x1="141" y1="59.5" x2="249" y2="59.5" gradientUnits="userSpaceOnUse">
<stop stop-color="#A5F9F9"/>
<stop offset="1" stop-color="#A5F9F9" stop-opacity="0"/>
</linearGradient>
<linearGradient id="paint1_linear" x1="52.0033" y1="127.673" x2="52.0033" y2="154.666" gradientUnits="userSpaceOnUse">
<stop stop-color="#A5F9F9"/>
<stop offset="0.18" stop-color="#ADFAFA"/>
<stop offset="0.46" stop-color="#C3FBFB"/>
<stop offset="0.8" stop-color="#E6FDFD"/>
<stop offset="1" stop-color="white"/>
</linearGradient>
<linearGradient id="paint2_linear" x1="678.9" y1="1489.45" x2="828.2" y2="1489.45" gradientUnits="userSpaceOnUse">
<stop stop-color="#A5F9F9"/>
<stop offset="0.18" stop-color="#ADFAFA"/>
<stop offset="0.46" stop-color="#C3FBFB"/>
<stop offset="0.8" stop-color="#E6FDFD"/>
<stop offset="1" stop-color="white"/>
</linearGradient>
<linearGradient id="paint3_linear" x1="4763.24" y1="1959.49" x2="4860.68" y2="1959.49" gradientUnits="userSpaceOnUse">
<stop stop-color="#A5F9F9"/>
<stop offset="0.18" stop-color="#ADFAFA"/>
<stop offset="0.46" stop-color="#C3FBFB"/>
<stop offset="0.8" stop-color="#E6FDFD"/>
<stop offset="1" stop-color="white"/>
</linearGradient>
<linearGradient id="paint4_linear" x1="11166.2" y1="4675.17" x2="11746" y2="4675.17" gradientUnits="userSpaceOnUse">
<stop stop-color="#A5F9F9"/>
<stop offset="0.18" stop-color="#ADFAFA"/>
<stop offset="0.46" stop-color="#C3FBFB"/>
<stop offset="0.8" stop-color="#E6FDFD"/>
<stop offset="1" stop-color="white"/>
</linearGradient>
</defs>
</svg>
