<svg width="768" height="342" viewBox="0 0 768 342" fill="none" xmlns="http://www.w3.org/2000/svg">
<rect width="768" height="342" fill="#222247"/>
<mask id="mask0" mask-type="alpha" maskUnits="userSpaceOnUse" x="0" y="0" width="768" height="342">
<rect width="768" height="342" fill="#222247"/>
</mask>
<g mask="url(#mask0)">
<g style="mix-blend-mode:color-dodge">
<path d="M125.356 194.75C124.87 194.748 124.395 194.892 123.99 195.163C123.585 195.434 123.269 195.821 123.082 196.274C122.894 196.727 122.844 197.226 122.938 197.708C123.032 198.189 123.264 198.632 123.607 198.98C123.95 199.328 124.388 199.565 124.864 199.662C125.34 199.758 125.834 199.71 126.283 199.522C126.732 199.335 127.116 199.017 127.386 198.609C127.657 198.201 127.801 197.721 127.801 197.23C127.801 196.574 127.544 195.945 127.085 195.48C126.627 195.015 126.006 194.753 125.356 194.75Z" fill="#9AD8D0"/>
</g>
<g style="mix-blend-mode:color-dodge" opacity="0.81">
<g style="mix-blend-mode:color-dodge" opacity="0.81">
<path d="M622.656 282.4C622.17 282.398 621.695 282.542 621.29 282.813C620.885 283.084 620.569 283.471 620.381 283.924C620.194 284.377 620.144 284.876 620.238 285.358C620.331 285.839 620.564 286.282 620.907 286.63C621.25 286.978 621.687 287.215 622.164 287.312C622.64 287.408 623.134 287.359 623.583 287.172C624.032 286.985 624.416 286.667 624.686 286.259C624.956 285.851 625.101 285.371 625.101 284.88C625.101 284.224 624.843 283.595 624.385 283.13C623.927 282.665 623.305 282.403 622.656 282.4Z" fill="#9AD8D0"/>
</g>
</g>
<g style="mix-blend-mode:color-dodge">
<path d="M720.655 4.94C722.005 4.94 723.099 3.83414 723.099 2.47C723.099 1.10586 722.005 0 720.655 0C719.305 0 718.21 1.10586 718.21 2.47C718.21 3.83414 719.305 4.94 720.655 4.94Z" fill="#9AD8D0"/>
</g>
<g style="mix-blend-mode:color-dodge" opacity="0.67">
<g style="mix-blend-mode:color-dodge" opacity="0.67">
<path d="M464.078 156.68C463.592 156.678 463.116 156.822 462.711 157.094C462.305 157.365 461.989 157.753 461.802 158.206C461.615 158.66 461.566 159.159 461.66 159.641C461.755 160.123 461.989 160.566 462.332 160.914C462.676 161.261 463.114 161.497 463.592 161.593C464.069 161.688 464.563 161.638 465.012 161.449C465.461 161.26 465.844 160.941 466.113 160.532C466.382 160.122 466.524 159.641 466.522 159.15C466.522 158.826 466.459 158.504 466.336 158.205C466.213 157.905 466.033 157.633 465.806 157.403C465.579 157.174 465.31 156.992 465.013 156.868C464.717 156.744 464.399 156.68 464.078 156.68Z" fill="#9AD8D0"/>
</g>
</g>
<g style="mix-blend-mode:color-dodge" opacity="0.92">
<g style="mix-blend-mode:color-dodge" opacity="0.92">
<path d="M356.072 196.94C355.586 196.938 355.11 197.082 354.705 197.354C354.3 197.625 353.984 198.013 353.797 198.466C353.61 198.92 353.56 199.419 353.655 199.901C353.749 200.383 353.983 200.826 354.327 201.174C354.671 201.521 355.109 201.757 355.586 201.853C356.063 201.948 356.558 201.898 357.006 201.709C357.455 201.52 357.839 201.201 358.107 200.792C358.376 200.382 358.519 199.901 358.517 199.41C358.514 198.756 358.256 198.129 357.798 197.666C357.34 197.204 356.72 196.943 356.072 196.94Z" fill="#9AD8D0"/>
</g>
</g>
<g style="mix-blend-mode:color-dodge" opacity="0.6">
<g style="mix-blend-mode:color-dodge" opacity="0.6">
<path d="M543.56 151.56C543.074 151.558 542.598 151.702 542.193 151.973C541.788 152.244 541.472 152.631 541.285 153.084C541.098 153.537 541.048 154.036 541.141 154.518C541.235 154.999 541.468 155.442 541.811 155.79C542.153 156.138 542.591 156.375 543.067 156.472C543.544 156.568 544.038 156.52 544.487 156.332C544.936 156.145 545.32 155.827 545.59 155.419C545.86 155.011 546.004 154.531 546.004 154.04C546.004 153.384 545.747 152.755 545.289 152.29C544.831 151.825 544.209 151.563 543.56 151.56Z" fill="#9AD8D0"/>
</g>
</g>
<g style="mix-blend-mode:color-dodge">
<path d="M191.833 96.8599C191.35 96.8619 190.879 97.0084 190.478 97.281C190.077 97.5536 189.766 97.9401 189.582 98.3916C189.399 98.8431 189.352 99.3394 189.447 99.8179C189.542 100.296 189.776 100.736 190.118 101.08C190.461 101.424 190.896 101.659 191.37 101.753C191.844 101.848 192.335 101.798 192.781 101.611C193.227 101.424 193.608 101.107 193.877 100.701C194.145 100.295 194.288 99.818 194.288 99.3299C194.288 99.0047 194.224 98.6827 194.101 98.3823C193.977 98.082 193.796 97.8093 193.568 97.5798C193.34 97.3503 193.07 97.1686 192.772 97.045C192.474 96.9215 192.155 96.8586 191.833 96.8599Z" fill="#9AD8D0"/>
</g>
<g style="mix-blend-mode:color-dodge" opacity="0.71">
<g style="mix-blend-mode:color-dodge" opacity="0.71">
<path d="M499.588 100.72C499.102 100.72 498.627 100.866 498.223 101.139C497.819 101.412 497.505 101.8 497.319 102.253C497.134 102.707 497.086 103.206 497.181 103.688C497.277 104.169 497.511 104.611 497.856 104.957C498.2 105.304 498.638 105.539 499.115 105.634C499.592 105.728 500.086 105.678 500.534 105.488C500.982 105.299 501.365 104.98 501.633 104.571C501.902 104.161 502.044 103.681 502.042 103.19C502.042 102.865 501.979 102.543 501.855 102.242C501.732 101.942 501.551 101.669 501.323 101.44C501.095 101.21 500.824 101.029 500.526 100.905C500.229 100.782 499.91 100.719 499.588 100.72Z" fill="#9AD8D0"/>
</g>
</g>
<g style="mix-blend-mode:color-dodge" opacity="0.97">
<g style="mix-blend-mode:color-dodge" opacity="0.97">
<path d="M331.964 231.49C331.478 231.488 331.002 231.632 330.598 231.903C330.193 232.174 329.876 232.561 329.689 233.014C329.502 233.467 329.452 233.966 329.545 234.448C329.639 234.929 329.872 235.372 330.215 235.72C330.558 236.068 330.995 236.305 331.471 236.402C331.948 236.498 332.442 236.45 332.891 236.262C333.34 236.075 333.724 235.757 333.994 235.349C334.264 234.941 334.408 234.461 334.408 233.97C334.41 233.645 334.347 233.323 334.225 233.022C334.103 232.721 333.923 232.447 333.696 232.217C333.469 231.987 333.199 231.804 332.902 231.679C332.604 231.554 332.286 231.49 331.964 231.49Z" fill="#9AD8D0"/>
</g>
</g>
<g style="mix-blend-mode:color-dodge" opacity="0.77">
<g style="mix-blend-mode:color-dodge" opacity="0.77">
<path d="M225.087 284.49C224.602 284.488 224.126 284.632 223.721 284.903C223.316 285.174 223 285.561 222.813 286.014C222.625 286.467 222.575 286.966 222.669 287.448C222.763 287.929 222.996 288.372 223.338 288.72C223.681 289.068 224.119 289.305 224.595 289.402C225.071 289.498 225.565 289.45 226.014 289.262C226.464 289.075 226.847 288.757 227.118 288.349C227.388 287.941 227.532 287.461 227.532 286.97C227.532 286.314 227.275 285.685 226.817 285.22C226.358 284.755 225.737 284.493 225.087 284.49Z" fill="#9AD8D0"/>
</g>
</g>
<g style="mix-blend-mode:color-dodge">
<path d="M157.452 218.09C156.966 218.09 156.491 218.236 156.087 218.509C155.683 218.781 155.369 219.169 155.183 219.623C154.998 220.077 154.95 220.576 155.045 221.057C155.141 221.539 155.376 221.981 155.72 222.327C156.064 222.673 156.502 222.909 156.979 223.003C157.456 223.098 157.95 223.047 158.398 222.858C158.846 222.669 159.229 222.35 159.497 221.94C159.766 221.531 159.908 221.051 159.906 220.56C159.906 220.235 159.843 219.913 159.719 219.612C159.596 219.312 159.415 219.039 159.187 218.81C158.959 218.58 158.688 218.399 158.39 218.275C158.093 218.151 157.774 218.089 157.452 218.09Z" fill="#9AD8D0"/>
</g>
<g style="mix-blend-mode:color-dodge" opacity="0.75">
<g style="mix-blend-mode:color-dodge" opacity="0.75">
<path d="M132.482 295.5C131.999 295.502 131.526 295.649 131.126 295.922C130.725 296.195 130.413 296.582 130.23 297.034C130.046 297.486 130 297.983 130.096 298.462C130.193 298.941 130.427 299.38 130.77 299.724C131.114 300.068 131.55 300.301 132.025 300.395C132.499 300.488 132.991 300.437 133.437 300.248C133.882 300.059 134.263 299.741 134.53 299.334C134.797 298.927 134.938 298.449 134.936 297.96C134.936 297.635 134.873 297.314 134.749 297.014C134.626 296.714 134.445 296.442 134.216 296.213C133.988 295.985 133.717 295.804 133.42 295.682C133.122 295.559 132.803 295.497 132.482 295.5Z" fill="#9AD8D0"/>
</g>
</g>
<g style="mix-blend-mode:color-dodge" opacity="0.77">
<g style="mix-blend-mode:color-dodge" opacity="0.77">
<path d="M102.445 276.86C101.961 276.86 101.488 277.005 101.086 277.276C100.684 277.548 100.371 277.933 100.186 278.385C100.001 278.836 99.9526 279.333 100.047 279.812C100.141 280.291 100.374 280.731 100.716 281.076C101.058 281.422 101.493 281.657 101.968 281.752C102.442 281.848 102.933 281.799 103.38 281.612C103.827 281.425 104.208 281.108 104.477 280.702C104.746 280.296 104.889 279.818 104.889 279.33C104.889 278.675 104.632 278.047 104.173 277.583C103.715 277.12 103.093 276.86 102.445 276.86Z" fill="#9AD8D0"/>
</g>
</g>
</g>
</svg>
